<svg width="236" height="295" fill="none" xmlns="http://www.w3.org/2000/svg"><path d="M50 6v40h186V6H50z" fill="#8F2E2F"/><path d="M77.687 34.239c.16 0 .23.045.23.206 0 .206-.07.23-.23.23a233.73 233.73 0 00-4.346-.07c-1.273 0-3.898.07-4.116.07-.115 0-.207-.024-.207-.23 0-.184.092-.206.252-.206h1.32V18.436h-1.32c-.16 0-.252-.023-.252-.23 0-.183.092-.206.298-.206.321 0 1.995.069 3.28.069 1.043 0 4.93-.046 5.251-.046 4.094 0 7.832.493 7.832 4.53 0 2.97-1.972 4.094-4.713 4.552 3.303.86 3.6 1.537 4.14 4.783.206 1.204.298 1.88.86 1.88.435 0 .584-.435.584-.86 0-.275.046-.539.23-.539.183 0 .252.16.252.54 0 1.628-1.227 2.018-3.486 2.018-3.807 0-4.804-1.09-4.827-3.922-.023-2.351-.046-3.67-2.374-3.67v6.904h1.342zm-1.342-7.34c.39 0 .814 0 1.204-.069 1.227-.23 1.514-1.043 1.514-4.117 0-3.646-.367-4.231-2.718-4.231v8.417zm27.565-1.229c0-5.16 3.647-8.67 8.394-8.67s8.393 3.51 8.393 8.67-3.623 8.67-8.393 8.67c-4.77 0-8.394-3.51-8.394-8.67zm10.389-5.711c0-1.445 0-2.512-1.995-2.512s-1.973 1.067-1.973 2.512v11.433c0 1.445 0 2.512 1.973 2.512 1.972 0 1.995-1.067 1.995-2.512V19.96zm36.371 1.08c0-1.789-.252-2.603-1.227-2.603h-.206c-.138 0-.23-.023-.23-.23 0-.183.092-.206.253-.206.321 0 1.043.069 1.697.069.653 0 1.582-.069 1.697-.069.091 0 .183.069.183.206 0 .161-.092.23-.229.23h-.207c-1.272 0-1.272.814-1.272 3.188v7.832c0 4.21-1.09 5.46-5.481 5.46-5.091 0-6.318-1.675-6.318-5.93v-10.55H138c-.161 0-.253-.023-.253-.23 0-.183.092-.206.253-.206.768.023 3.325.069 4.368.069 1.273 0 3.876-.069 4.071-.069.115 0 .206.023.206.206 0 .184-.068.23-.229.23h-1.353v12.73c0 3.038.298 3.279 1.605 3.279 3.016 0 4.025-1.33 4.025-4.885v-8.532l-.023.011zm34.422 6.259v7.041c0 .299-.069.345-.184.345-.183 0-.275-.092-.344-.322-.435-.997-.493-1.09-.699-1.09-.447 0-1.284.471-3.279.838-.814.16-1.674.23-2.374.23-3.921 0-8.336-2.673-8.336-8.693 0-5.16 3.257-8.647 7.923-8.647 3.188 0 4.231 1.628 5 1.628.39 0 .435-.39.516-1.25.023-.183.068-.32.275-.32.16 0 .275.114.275.412 0 .115-.023.425-.023 2.087 0 1.044.092 3.922.092 3.968 0 .276-.161.298-.252.298-.184 0-.276-.091-.299-.298-.16-1.296-.928-6.09-5.068-6.09-1.697 0-2.041.815-2.041 3.35v10.642c0 1.582 0 2.465 1.537 2.465 1.536 0 1.559-.837 1.559-2.465v-4.14h-1.33c-.137 0-.229-.023-.229-.207 0-.206.092-.23.229-.23.791.024 3.348.07 4.369.07 1.284 0 3.898-.07 4.07-.07.115 0 .23.024.23.23 0 .16-.092.207-.253.207h-1.353l-.011.011zm26.04 6.941c3.279 0 5.768-1.56 6.41-5.115.046-.252.091-.367.252-.367.183 0 .183.16.183.367-.046 1.09-.206 2.179-.206 3.555 0 .275 0 1.766.023 1.995-1.135-.069-3.899-.069-8.244-.069-2.901 0-5.183.046-5.928.07-.161 0-.253-.024-.253-.23 0-.184.092-.206.253-.206h1.318V18.436h-1.318c-.161 0-.253-.023-.253-.23 0-.183.092-.206.253-.206.745.023 3.015.069 4.093.069 9.104 0 9.483 0 10.079-.069 0 .413.023 3.165.069 3.647.091 1.273.068 1.514.114 2.35 0 .23 0 .368-.183.368-.161 0-.252-.115-.252-.367 0-3.108-2.11-5.55-6.743-5.55h-.114v7.407h.252c2.064 0 3.44-.745 3.463-3.061 0-.276.069-.367.252-.367.184 0 .184.137.184.367-.069 2.305-.092 2.064-.092 3.28 0 1.215.023 1.33.092 3.623 0 .23 0 .367-.184.367-.183 0-.252-.091-.252-.367-.023-2.603-1.399-3.394-3.463-3.394h-.252v7.947h.435l.012-.011z" fill="#E83511"/><path d="M40 0H0v295h40V0z" fill="#E95167"/><path d="M17.704 29.702c-3.096 0-4.759.206-4.759 2.855 0 1.182.345 2.787 2.282 3.945.16.07.184.092.184.161a.426.426 0 01-.046.16c-.046.092-.092.138-.16.138a.325.325 0 01-.138-.046c-1.629-.837-2.718-2.511-2.718-5.046 0-3.921 2.672-8.6 8.738-8.6 5.114 0 8.6 3.325 8.6 7.924 0 2.947-1.422 3.463-1.422 4.117 0 .39.493.47 1.043.539.183.023.321.069.321.252 0 .184-.115.298-.413.298-.114 0-.424-.023-2.087-.023-1.043 0-3.921.092-3.967.092-.275 0-.298-.16-.298-.252 0-.115.023-.275.298-.298.791-.023 6.089-.276 6.089-4.255 0-1.766-1.044-1.972-3.349-1.972h-8.175l-.023.011zm-4.701 32.419c0 4.094 2.534 4.599 5.687 5.184.275.045.367.091.367.229 0 .206-.137.206-.344.206-.654-.022-2.649-.206-4.162-.206h-1.995c.046-.184.069-.86.069-8.716 0-1.444-.07-4.07-.07-4.254 0-.115.024-.207.23-.207.184 0 .206.092.206.253v1.319H28.77v-1.32c0-.16.023-.252.23-.252.183 0 .206.092.206.253-.023.768-.046 3.325-.046 4.369 0 1.273.046 3.853.046 4.048 0 .092-.023.207-.207.207-.183 0-.229-.092-.229-.23v-1.319H12.991v.448l.012-.012zm0 38.739c0 .161-.023.253-.207.253-.206 0-.229-.092-.229-.253.023-1.09.069-1.972.069-5.069 0-3.784-.069-4.552-.069-4.885 0-.183.023-.252.23-.252.183 0 .206.069.206.23v.091c0 1.02.16 1.49.837 1.49.252 0 .539-.045.768-.114l1.49-.447V87.74c-.79-.206-1.49-.367-1.88-.367-.745 0-1.204.608-1.204 1.651v.207c0 .138 0 .23-.206.23-.23 0-.23-.093-.23-.253 0-.275.07-1.158.07-2.328s-.07-1.743-.07-2.064c0-.184.024-.298.23-.298.16 0 .206.091.206.252v.092c0 1.376.47 1.674 2.282 2.19l13.76 3.876c.344.115.367.206.367 1.445 0 1.72-.046 1.927-.47 2.064l-14.54 4.37c-1.227.366-1.399 1.066-1.399 1.72v.321l-.011.011zm10.25-11.09l-6.719-1.88v3.876l6.72-1.995zm5.55 32.385v-2.201c0-.161.023-.253.23-.253.183 0 .206.092.206.253a284.99 284.99 0 00-.069 4.805c0 1.273.07 4.323.07 4.507 0 .091-.024.206-.207.206-.184 0-.23-.092-.23-.229v-1.354H12.728c-5.183 0-5.619-3.211-5.619-6.204 0-4.828 1.926-5.413 3.107-5.413 1.56 0 2.695.952 2.695 2.489 0 1.376-.929 2.626-2.465 2.626-1.204 0-2.018-.768-2.018-1.605 0-.207 0-.39-.184-.39-.32 0-.653.493-.653 1.296 0 1.467 1.02 1.467 2.924 1.467h18.288zm-7.797 24.542c5.16 0 8.669 3.647 8.669 8.383 0 4.737-3.509 8.383-8.669 8.383s-8.668-3.624-8.668-8.383c0-4.759 3.509-8.383 8.668-8.383zm5.71 10.39c1.445 0 2.512 0 2.512-1.995 0-1.996-1.067-1.973-2.512-1.973h-11.43c-1.445 0-2.511 0-2.511 1.973 0 1.972 1.066 1.995 2.51 1.995h11.432zm-.516 36.388c1.79 0 2.603-.252 2.603-1.227v-.206c0-.138.023-.23.23-.23.183 0 .206.092.206.253 0 .321-.069 1.043-.069 1.697 0 .653.07 1.582.07 1.697 0 .092-.07.184-.207.184-.16 0-.23-.092-.23-.23v-.206c0-1.273-.814-1.273-3.187-1.273h-7.832c-4.208 0-5.458-1.09-5.458-5.482 0-5.092 1.674-6.319 5.928-6.319h10.55v-1.33c0-.16.022-.252.229-.252.183 0 .206.092.206.252-.023.768-.069 3.326-.069 4.369 0 1.273.07 3.876.07 4.071 0 .115-.024.207-.207.207-.184 0-.23-.069-.23-.229v-1.354H16.076c-3.039 0-3.28.298-3.28 1.606 0 3.016 1.33 4.025 4.885 4.025h8.531l-.011-.023zm-13.197 28.371c0 .161-.046.23-.207.23-.206 0-.229-.069-.229-.23.023-.768.069-3.325.069-4.346 0-1.273-.069-3.899-.069-4.117 0-.114.023-.206.23-.206.183 0 .206.092.206.252v1.33h15.8v-1.33c0-.16.023-.252.23-.252.183 0 .206.091.206.298 0 .321-.069 1.995-.069 3.28 0 1.043.046 4.931.046 5.252 0 4.094-.493 7.833-4.529 7.833-2.97 0-4.094-1.973-4.552-4.714-.86 3.303-1.537 3.601-4.782 4.14-1.204.207-1.88.298-1.88.86 0 .448.436.585.86.585.275 0 .539.046.539.23 0 .183-.16.252-.54.252-1.627 0-2.017-1.227-2.017-3.486 0-3.808 1.09-4.805 3.921-4.828 2.35-.023 3.67-.046 3.67-2.374h-6.903v1.353-.012zm7.338-1.353c0 .39 0 .815.069 1.204.23 1.227 1.043 1.514 4.116 1.514 3.647 0 4.232-.367 4.232-2.718H20.34zm-7.499 28.956c-.252 0-.367-.068-.367-.252 0-.16.115-.206.367-.206h5.688c.183 0 .424 0 .424.229 0 .161-.046.206-.424.206-3.51 0-5.688 2.879-5.688 5.299 0 1.582 1.02 1.674 1.904 1.674 4.208 0 4.62-7.477 10.01-7.477 3.302 0 4.907 2.97 4.907 6.365 0 2.041-.344 2.786-1.112 4.094-.183.275-.252.412-.252.539 0 .344.275.344.745.344h.39c.252 0 .367.068.367.252 0 .206-.115.275-.367.275-1.697.046-3.646.092-5.022.47-.046 0-.092.023-.16.023-.115 0-.207-.023-.207-.183 0-.115.046-.275.367-.344 3.187-.677 4.758-2.259 4.758-4.645 0-1.066-.607-1.88-1.834-1.88-3.303 0-3.555 7.316-9.804 7.339-2.488 0-5.206-2.305-5.206-6.135 0-3.418 1.835-4.416 1.835-5.528 0-.447-.723-.447-1.135-.447h-.184v-.012z" fill="#8F2E2F"/></svg>