<svg width="285" height="33" fill="none" xmlns="http://www.w3.org/2000/svg"><g clip-path="url(#clip0_221_3823)" fill="#6A3906" stroke="#6A3906" stroke-width=".14" stroke-miterlimit="10"><path d="M14.934 16.136c-1.006 0-1.76-.15-1.685-.527.025-.326 1.082-.326 1.132-.326 6.939 0 15.411-3.815 15.411-9.637 0-2.158-1.91-3.914-5.355-3.914-9.252 0-22.828 10.715-22.828 21.657 0 5.62 3.922 8.557 9.403 8.557 4.928 0 9.98-3.313 13.953-9.084.201-.251.377-.402.528-.402.151 0 .302.1.302.377 0 .3-.604 1.38-1.66 2.71-2.413 2.961-7.265 7.252-13.375 7.252C4.651 32.8.176 29.738.176 23.29c0-11.62 14.557-22.285 24.261-22.285 4.25 0 6.336 2.158 6.336 4.642 0 6.7-9.705 10.49-15.84 10.49zm27.781 5.973c-.905 3.488-5.129 7.854-9.428 7.854-1.986 0-3.947-1.204-3.947-4.065 0-4.843 6.109-9.862 10.358-9.862 2.036 0 3.042 1.33 3.042 2.51 0 .376-.05.752-.1 1.053.175.301.25.728.25 1.205v.326c2.087.326 5.33-.15 8.146-2.484a.636.636 0 01.428-.15c.15 0 .226.1.226.25 0 .602-3.444 3.338-8.07 3.338-.352 0-.603 0-.905-.025v.05zm-9.353 7.127c3.47 0 7.241-3.614 8.146-7.378-.73-.301-1.03-.828-1.03-1.556 0-.527.376-1.205 1.281-1.205h.05c.076-1.48-.728-2.334-2.312-2.334-3.646 0-9 4.894-9 9.11 0 2.259 1.231 3.363 2.865 3.363zm19.962.376c-1.584 0-2.715-.953-2.715-2.986 0-2.41 1.333-5.145 5.506-11.218 4.224-6.022 7.769-10.615 8.724-10.615.075 0 .15.025.15.15 0 .377-.603 1.506-2.036 3.69-3.318 5.17-7.467 10.84-10.182 14.153-1.131 2.133-1.131 3.012-1.131 3.765 0 1.63.804 2.158 1.886 2.158 2.136-.025 4.676-2.183 7.24-5.973.1-.2.277-.276.377-.276.227 0 .377.2.377.402 0 .577-4.098 6.75-8.17 6.75h-.026zm22.979-7.503c-.905 3.488-5.128 7.854-9.428 7.854-1.986 0-3.972-1.204-3.972-4.065 0-4.843 6.11-9.862 10.358-9.862 2.037 0 3.042 1.33 3.042 2.51 0 .376-.025.752-.1 1.053.2.301.276.728.276 1.205v.326c2.087.326 5.33-.15 8.146-2.484a.62.62 0 01.402-.15c.151 0 .227.1.227.25 0 .602-3.445 3.338-8.07 3.338-.328 0-.604 0-.906-.025l.025.05zm-9.352 7.127c3.47 0 7.24-3.614 8.146-7.378-.73-.301-1.031-.828-1.031-1.556 0-.527.377-1.205 1.282-1.205h.025c.076-1.48-.704-2.334-2.288-2.334-3.67 0-9 4.894-9 9.11 0 2.259 1.257 3.363 2.866 3.363zm23.959.376c-1.76 0-2.916-.953-2.916-2.76 0-2.66 2.64-4.919 2.64-6.952 0-1.204-2.238-.752-2.238-2.56 0-1.129.73-1.906 1.282-1.906.453 0 .704.326.704.853 0 .627-.2 1.28-.528 2.032.981.477 1.735.753 1.735 1.732 0 2.259-2.64 4.166-2.64 6.926 0 1.205.956 1.757 1.987 1.757 2.136 0 4.776-2.209 7.34-6.023.127-.2.277-.276.378-.276.226 0 .377.2.377.402 0 .577-4.098 6.75-8.17 6.75l.05.025zm34.745 1.882c0-3.538 13.652-22.334 13.652-26.55 0-.904-.427-1.657-1.961-1.657-6.335 0-18.78 9.01-18.78 15.585 0 1.43.829 2.032 1.885 2.032 1.383 0 1.911-.979 2.414-.979.201 0 .327.1.327.276 0 .477-1.358 1.531-3.017 1.531-1.433 0-2.766-.853-2.766-2.936 0-7.152 12.068-16.211 19.736-16.211 2.263 0 3.092 1.38 3.092 3.011 0 4.793-13.073 22.837-13.073 25.22 0 .126 0 .227.151.227.477 0 1.307-.778 3.243-2.736 9-9.31 22.652-28.131 34.846-28.131 1.659 0 3.318.527 3.318 1.079 0 .2-.1.326-.427.326-.453 0-.83-.452-2.565-.452-12.092 0-24.889 17.843-34.569 27.88-2.036 2.109-3.519 3.389-4.575 3.389-.604 0-.956-.301-.956-.954l.025.05zm31.201-5.47c-1.886 2.233-4.124 3.965-6.009 3.965-2.213 0-3.394-1.607-3.394-4.016 0-4.567 5.38-9.837 9.931-9.837 2.061 0 3.117.753 4.047 1.681.83-1.028 1.534-1.68 1.886-1.68.302 0 .352.15.352.45 0 1.03-3.017 5.27-5.28 7.755-.452.954-.528 1.682-.528 2.46 0 1.355.729 1.957 1.785 1.957 2.263 0 4.727-2.183 7.316-6.023.126-.2.277-.276.377-.276.227 0 .378.2.378.402 0 .577-4.124 6.75-8.171 6.75-1.433 0-2.665-.953-2.665-2.986 0-.2.025-.377.025-.602h-.05zm-5.808 3.162c2.062 0 4.4-2.46 6.436-5.17.754-1.656 1.911-3.563 3.042-5.12-.327-1.104-1.332-2.158-3.142-2.158-4.073 0-8.825 5.346-8.825 9.135 0 2.083.805 3.287 2.464 3.287l.025.026zm25.116.426c-1.785 0-2.891-.953-2.891-2.76 0-2.66 2.64-4.919 2.64-6.952 0-.953-.805-1.154-1.459-1.63-3.167 5.846-6.788 9.912-7.718 9.912-.277 0-.427-.1-.427-.301 0-.1.075-.251.276-.402 2.338-1.857 4.978-5.872 7.241-9.737-.226-.326-.428-.803-.428-1.455 0-1.13.73-1.907 1.283-1.907.452 0 .729.326.729.853 0 .727-.277 1.48-.679 2.334 1.232.677 2.187 1.104 2.187 2.51 0 2.258-2.64 4.165-2.64 6.925 0 1.205.956 1.757 1.987 1.757 2.137 0 4.801-2.208 7.341-6.023.1-.2.276-.276.377-.276.226 0 .377.2.377.402 0 .577-4.098 6.75-8.196 6.75zm9.352-2.886c0-2.81 2.716-6.625 5.708-9.862.15-.15.301-.2.452-.2.277 0 .528.15.528.45 0 .151-.075.352-.251.578-2.112 2.434-5.255 6.35-5.255 8.959 0 1.48.654 2.083 1.886 2.083 1.986 0 4.676-2.183 7.24-5.973.101-.2.252-.276.377-.276.227 0 .378.201.378.402 0 .577-4.098 6.75-8.171 6.75-1.785 0-2.866-.828-2.866-2.91h-.026zM198.64 7.227c.402 0 .604.151.604.527 0 .753-1.383 2.184-2.414 2.184-.302 0-.528-.201-.528-.502 0-.828 1.333-2.209 2.338-2.209zm8.85 18.797c-1.886 2.233-4.098 3.965-5.984 3.965-2.212 0-3.394-1.607-3.394-4.016 0-4.567 5.38-9.837 9.906-9.837 2.087 0 3.142.753 4.022 1.681.83-1.028 1.559-1.68 1.886-1.68.302 0 .327.15.327.45 0 1.03-3.017 5.27-5.28 7.755-.452.954-.528 1.682-.528 2.46 0 1.355.729 1.957 1.76 1.957 2.263 0 4.727-2.183 7.316-6.023.126-.2.277-.276.377-.276.227 0 .377.2.377.402 0 .577-4.098 6.75-8.17 6.75-1.434 0-2.691-.953-2.691-2.986 0-.2.051-.377.051-.602h.025zm-5.808 3.162c2.087 0 4.425-2.46 6.462-5.17.754-1.656 1.91-3.563 3.042-5.12-.327-1.104-1.308-2.158-3.143-2.158-4.073 0-8.825 5.346-8.825 9.135 0 2.083.78 3.287 2.439 3.287l.025.026zm20.867.426c-1.382 0-2.665-.953-2.665-2.986 0-3.664 4.702-10.088 7.241-13.702.101-.15.226-.301.302-.452-1.886 0-3.47 0-4.752.025-.754 0-1.156-.1-1.156-.326 0-.25.326-.401 1.056-.452 1.231-.075 3.117-.075 5.455-.075 2.187-3.011 3.771-4.818 4.45-4.818.151 0 .252.1.252.301 0 .527-1.207 2.384-2.64 4.567 1.684.025 3.494.1 5.43.176.729.05.981.1.981.351s-.428.301-1.056.301c-2.112 0-4.073-.025-5.833-.025-2.036 3.037-3.721 5.195-6.21 8.156-1.508 2.309-2.564 4.291-2.564 6.073 0 1.506.829 2.083 1.961 2.083 2.162-.05 4.601-2.233 7.215-6.073.101-.2.252-.276.377-.276.227 0 .352.15.352.377 0 .752-4.148 6.775-8.145 6.775h-.051zm9.252-2.886c0-2.81 2.716-6.625 5.707-9.862.151-.15.302-.2.453-.2.276 0 .528.15.528.45 0 .151-.076.352-.252.578-2.111 2.434-5.254 6.35-5.254 8.959 0 1.48.654 2.083 1.886 2.083 2.011 0 4.676-2.183 7.24-5.973.101-.2.252-.276.377-.276.227 0 .377.201.377.402 0 .577-4.098 6.75-8.17 6.75-1.785 0-2.867-.828-2.867-2.91h-.025zm13.124-19.499c.402 0 .603.151.603.527 0 .753-1.382 2.184-2.413 2.184-.302 0-.528-.201-.528-.502 0-.828 1.332-2.209 2.338-2.209zm12.797 14.882c-.905 3.488-5.129 7.854-9.428 7.854-1.986 0-3.947-1.204-3.947-4.065 0-4.843 6.109-9.862 10.358-9.862 2.036 0 3.042 1.33 3.042 2.51 0 .376-.05.752-.101 1.053.176.301.277.728.277 1.205v.326c2.062.326 5.33-.15 8.146-2.484a.619.619 0 01.402-.15c.151 0 .226.1.226.25 0 .602-3.444 3.338-8.07 3.338-.327 0-.603 0-.905-.025v.05zm-9.353 7.127c3.47 0 7.241-3.614 8.146-7.378-.729-.301-1.031-.828-1.031-1.556 0-.527.377-1.205 1.283-1.205h.05c.075-1.48-.729-2.334-2.288-2.334-3.671 0-9.026 4.894-9.026 9.11 0 2.259 1.257 3.363 2.866 3.363zm28.259.376c-1.785 0-3.092-1.029-3.092-3.061 0-2.962 2.991-6.876 4.525-9.035-1.961 1.054-3.872 3.313-5.657 5.42-2.765 3.263-5.103 6.676-6.813 6.676-.83 0-1.358-.527-1.358-1.43 0-2.384 2.741-6.4 5.808-9.938.277-.301.528-.427.754-.427.227 0 .377.151.377.377 0 .2-.075.427-.352.728-3.318 3.764-5.506 7.453-5.506 9.285 0 .376.151.577.503.577.956 0 3.394-3.212 5.984-6.324 2.539-3.011 5.254-5.872 6.763-5.872.503 0 .855.301.855.627 0 .15-.076.352-.176.502-1.333 1.782-4.526 5.872-4.526 8.834 0 1.43.88 2.258 2.012 2.258 2.187 0 4.776-2.284 7.341-6.098.1-.2.276-.276.377-.276.226 0 .377.2.377.402 0 .577-4.098 6.75-8.196 6.75v.025z"/></g><defs><clipPath id="clip0_221_3823"><path fill="#fff" d="M0 0h285v33H0z"/></clipPath></defs></svg>