<svg width="48" height="48" fill="none" xmlns="http://www.w3.org/2000/svg"><path fill="#fff" d="M0 0h48v48H0z"/><path d="M8.76 35.123c.904 3.48 2.792 6.727 5.497 6.727 3.95 0 6.788-6.027 7.422-13.28.014-.124-.07-.339-.304-.339h-9.739c-4.517 0-3.336 4.998-2.877 6.892zm31.48-22.251c-.904-3.484-2.786-6.728-5.491-6.728-3.954 0-6.792 6.027-7.426 13.277-.01.13.07.342.308.342h9.738c4.514 0 3.33-5 2.874-6.891h-.002zM24.81 34.724a.309.309 0 00-.572.003c-2.026 4.916-5.49 8.267-10.015 8.267C7.37 42.994 4.045 36.018 4 26.74c0-.034.028-.093.101-.093h.206l17.237.003c.234 0 .307-.21.307-.305.028-.565.04-1.142.04-1.718 0-10.68-3.5-17.953-8.195-17.953-3.266 0-6.393 2.257-8.442 8.773a.098.098 0 01-.093.065h-.98a.096.096 0 01-.094-.122C5.987 8.083 9.765 5 14.226 5c3.925 0 7.718 3.13 9.964 8.267a.31.31 0 00.572 0C26.788 8.351 30.254 5 34.777 5 41.633 5 44.955 11.976 45 21.25a.097.097 0 01-.101.098h-.206l-17.234-.002c-.234 0-.307.206-.31.299a42.47 42.47 0 00-.04 1.718c0 10.683 3.5 17.959 8.197 17.959 3.266 0 6.392-2.258 8.446-8.774.008-.028.033-.07.09-.07h.975c.079 0 .11.073.096.121C43.01 39.915 39.232 43 34.774 43c-3.925 0-7.718-3.133-9.964-8.273v-.003z" fill="#B49C56"/></svg>