<svg width="157" height="36" fill="none" xmlns="http://www.w3.org/2000/svg"><g clip-path="url(#clip0_221_3932)"><path d="M-.008 35.25L12.88.135l12.23 35.168H8.006l-.51-.869h13.176L11.065 7.1.855 35.25h-.863zm32.79-34l3.824.031v33.105h12.918v.825H32.888l-.106-33.96zM64.2 1.132c7.538 0 8.971 5.32 8.971 7.656 0 2.263-2.427 7.084-6.79 7.072 4.59 0 9.482 3.33 9.482 8.813 0 5.484-3.577 10.425-11.18 10.425-4.581 0-10.215.123-10.215.123V1.282s4.243-.15 9.732-.15zm-6.198 32.827s1.053.015 5.86.015c4.809 0 8.019-2.678 8.019-8.944 0-7.403-6.03-8.498-8.092-8.498-1.901 0-4.094-.07-4.094-.07l-.536-.725s1.196-.017 4.52-.017c3.325 0 5.512-2.822 5.512-7.336s-4.142-6-6.13-6H58.31l-.307 31.575zM84.658 1.065h3.67V35.1h-4.01l.34-34.035zM96.71 18.337c0-8.475 5.215-18.046 15.265-18.046 7.625 0 14.354 6.51 14.354 17.556 0 8.775-5.324 17.775-14.923 17.775-8.919.003-14.696-7.267-14.696-17.285zm4.069.316c0 9.574 4.796 16.304 10.115 16.304 6.758 0 11.453-6.551 11.453-17.91 0-11.284-6.509-16.063-10.317-16.063-6.282 0-11.251 5.84-11.251 17.669zm34.073-18.66l21.106 27.757v-27l1.047.09-.113 35.169L135.651 7.93v27.031h-1.087l.288-34.97z" fill="#fff"/></g><defs><clipPath id="clip0_221_3932"><path fill="#fff" d="M0 0h157v36H0z"/></clipPath></defs></svg>