<svg width="120" height="113" fill="none" xmlns="http://www.w3.org/2000/svg"><g clip-path="url(#clip0_174_324)" fill="#B49C56"><path fill-rule="evenodd" clip-rule="evenodd" d="M43.018 106.024h1.48c2.607 0 4.318-1.351 4.318-3.914s-1.325-3.996-4.319-3.996h-4.245v.466c1.206.128 1.402.297 1.402.931v11.755c0 .634-.196.8-1.402.931v.465h4.595v-.465c-1.635-.131-1.829-.297-1.829-.931v-5.245.003zm0-6.574c0-.446.389-.783 1.48-.783 1.96 0 2.96 1.266 2.96 3.384 0 2.41-1.053 3.426-3.472 3.426-.306 0-.654-.021-.968-.047v-5.98z"/><path d="M69.393 99.511c0-.634.194-.803 1.402-.931v-.466h-4.168v.466c1.208.128 1.402.297 1.402.931v11.755c0 .634-.194.8-1.402.931v.465h4.168v-.465c-1.208-.131-1.402-.297-1.402-.931V99.511zm9.466-1.397h-.307c-.225.453-.74.52-.86.4-.448-.494-1.385-.735-2.182-.735-2.043 0-3.415 1.694-3.415 3.635 0 5.308 6.37 3.682 6.37 7.698 0 1.478-.93 3.131-2.508 3.131-.68 0-1.701-.374-2.498-1.458-.541-.734-1.04-1.169-1.578-3.049h-.315l.675 4.929h.309c.176-.407.414-.803.623-.803.409 0 1.264 1.141 2.784 1.141 2.046 0 3.796-1.916 3.796-4.39 0-5.48-6.347-3.154-6.347-7.552 0-1.294.781-2.52 2.004-2.52 1.367 0 3.186.755 3.788 3.996h.333l-.675-4.418.003-.005zm-27.514 2.559l-1.714 6.321h3.583l-1.831-6.321h-.038zm7.427-1.274v5.581c.327.021.504.044.853.044 2.458 0 3.74-.911 3.74-3.318 0-1.842-.912-3.024-3.037-3.024-1.03 0-1.553.317-1.553.717h-.003zm-8.83 13.266h-3.58v-.466c1.105-.207 1.36-.399 1.672-1.522l3.484-12.898h.37l3.835 13.28c.237.8.232.997 1.021 1.117.892-.11.871-.332.871-.91V99.511c0-.634-.194-.803-1.402-.931v-.466h4.595c2.531 0 4.13 1.44 4.13 3.682 0 2.11-1.394 3.374-3.333 3.635.805 2.005 1.793 3.637 2.833 5.61.378.629 1.024 1.151 1.706 1.187l.038.434h-2.526c-1.328-2.453-2.158-4.658-3.527-7.101h-.177l-.973-.002v5.709c0 .635.194.801 1.423.931v.466H53v-.466c1.264-.102 1.382-.317 1.382-.741 0-.425-.215-.949-.976-3.786h-3.949l-.723 2.558c-.094.383-.194.829-.194 1.077 0 .639.291.811 1.402.892v.466zm-4.206-85.393c.82 3.152 2.531 6.091 4.983 6.091 3.581 0 6.153-5.456 6.728-12.023.013-.113-.064-.307-.276-.307h-8.827c-4.095 0-3.024 4.525-2.608 6.24zM74.272 7.127c-.82-3.154-2.526-6.091-4.979-6.091-3.583 0-6.155 5.457-6.73 12.02-.01.118.064.31.279.31h8.827c4.092 0 3.02-4.528 2.605-6.24h-.002zM60.285 26.912a.28.28 0 00-.519.002c-1.836 4.451-4.975 7.485-9.077 7.485-6.212 0-9.226-6.316-9.267-14.717 0-.03.025-.084.092-.084h.186l15.624.002c.212 0 .279-.189.279-.276.025-.512.036-1.033.036-1.555 0-9.67-3.173-16.255-7.428-16.255-2.96 0-5.796 2.044-7.652 7.943a.09.09 0 01-.085.06h-.889a.087.087 0 01-.084-.11C43.223 2.79 46.648 0 50.691 0c3.558 0 6.996 2.834 9.032 7.485a.28.28 0 00.518 0C62.078 3.034 65.22 0 69.32 0c6.215 0 9.226 6.316 9.267 14.712a.09.09 0 01-.092.09h-.187l-15.621-.003c-.212 0-.279.187-.281.27-.02.515-.036 1.034-.036 1.556 0 9.672 3.172 16.26 7.43 16.26 2.96 0 5.793-2.044 7.655-7.943.008-.026.03-.064.082-.064h.884c.071 0 .1.066.087.11-1.725 6.623-5.15 9.416-9.19 9.416-3.558 0-6.996-2.837-9.032-7.49v-.003zM19.078 68.716s-.016.008-.018.02l-.016.072-.064.271-.222.978-.697 3.031-1.178 5.14c-.01.045-.043.053-.058.053H.06c-.035 0-.061-.028-.061-.064v-.596c0-.03.026-.064.061-.064h.644c.96 0 1.762-.867 1.762-1.806V46.624c0-.939-.804-1.803-1.762-1.803H.061c-.035 0-.061-.028-.061-.067v-.596c0-.036.026-.064.061-.064h16.294c.028 0 .053.016.064.054l1.79 7.28c.008.046-.026.077-.059.077h-.577c-.026 0-.046-.018-.056-.038-.243-.658-.419-1.402-.68-2.15-.26-.751-.602-1.506-1.187-2.184-1.162-1.358-3.26-2.371-7.464-2.371-2.173 0-3.055.903-3.055 1.862V60.49c0 .036.031.064.072.064h6.212c2.265 0 3.872-1.57 3.872-4.172v-.647a.06.06 0 01.059-.06h.595c.038 0 .064.029.064.06V66.38a.062.062 0 01-.064.064h-.595c-.036 0-.059-.029-.059-.064v-.642c0-2.602-1.607-4.175-3.872-4.175H5.203c-.038 0-.072.03-.072.064v14.12c0 .96.54 1.806 3.07 1.806 4.608 0 6.915-1.55 8.187-3.448.63-.941 1.004-1.97 1.282-2.926.276-.955.452-1.84.697-2.507.01-.026.031-.044.057-.044h.587c.038 0 .067.039.059.077h.01l-.002.01zm.163 9.568c-.03 0-.058-.028-.058-.067v-.593c0-.03.028-.064.058-.064h.884c.996 0 1.52-.89 1.52-1.46V47.033c0-.57-.521-1.463-1.52-1.463h-.884a.06.06 0 01-.058-.06v-.6c0-.036.028-.06.058-.06h.335c1.85 0 2.973-.419 3.742-.754.38-.161.644-.304.817-.363.148-.049.159-.028.159.082v32.288c0 .573.52 1.461 1.514 1.461h.884c.036 0 .064.03.064.064v.593a.064.064 0 01-.064.067h-7.453l.002-.005zm100.026-6.36c-.035 0-.048.026-.056.049-1.297 4.116-3.277 5.54-5.346 5.54-2.973 0-5.188-4.594-5.188-11.35 0-.366.008-.731.021-1.09.005-.056.048-.184.202-.184h11.039c.043 0 .059-.038.059-.066-.028-5.866-2.133-10.274-6.47-10.274-4.585 0-7.456 5.441-7.607 11.62-.183 7.26 3.602 12.409 7.607 12.409 2.822 0 5.216-1.947 6.416-6.575.01-.028-.01-.076-.064-.076h-.615l.002-.003zm-5.757-16.648c1.719 0 2.904 2.051 3.481 4.249.289 1.2 1.04 4.359-1.826 4.359h-6.163c-.143 0-.202-.133-.189-.215.401-4.584 2.194-8.393 4.697-8.393zm-15.055-.726c3.64 0 6.117 3.143 6.117 5.438-.017 1.136-.893 1.617-1.614 1.617-.72 0-1.476-.56-1.476-1.589 0-.56.158-1.041.158-1.476a2.98 2.98 0 00-.462-1.611c-.605-.96-1.326-1.653-2.723-1.653-2.518 0-4.845 4.175-4.845 10.887 0 6.713 2.217 11.35 5.187 11.35 2.072 0 4.049-1.424 5.346-5.54.008-.026.026-.049.057-.049h.62c.049 0 .069.049.064.077-1.205 4.628-3.599 6.574-6.421 6.574-4.003 0-7.79-5.15-7.61-12.41.157-6.174 3.025-11.61 7.602-11.618v.002zm-66.374-.957c-.439-.02-.324-.328-.117-.402 1.775-.603 2.105-1.294 2.516-2.473.156-.446.595-1.052 1.364-1.106.955-.066 1.599.696 1.65 1.436.043.583-.3 1.143-.736 1.432-.827.555-2.935 1.182-4.677 1.113zm8.105 18.331a.054.054 0 00-.057.049c-1.297 4.116-3.284 5.54-5.348 5.54-2.978 0-5.193-4.594-5.193-11.35 0-.366.01-.731.026-1.09.002-.056.053-.184.196-.184h11.05c.043 0 .059-.038.059-.066-.028-5.866-2.133-10.274-6.478-10.274-4.585 0-7.453 5.441-7.609 11.62-.179 7.26 3.602 12.409 7.61 12.409 2.822 0 5.217-1.947 6.423-6.575.01-.028-.01-.076-.056-.076h-.623v-.003zm-5.763-16.648c1.712 0 2.904 2.051 3.482 4.249.288 1.2 1.04 4.359-1.827 4.359h-6.163c-.148 0-.202-.133-.194-.215.401-4.584 2.2-8.393 4.7-8.393h.002zm18.452 22.946c-2.018-.138-3.898-.076-5.326-.168-1.41-.093-2.439-.333-2.656-1.136-.355-1.348.994-2.037 2.603-2.594a.177.177 0 01.156.01c.694.379 1.43.578 2.184.578 3.48 0 6.625-4.33 6.625-10.524 0-2.479-.595-4.825-1.65-6.6a.223.223 0 01.008-.207c.043-.105.092-.225.15-.333a.547.547 0 01.271-.24c.25-.092.49.12.907.394.235.15.519.24.822.24.83 0 1.535-.716 1.535-1.55 0-.834-.704-1.545-1.535-1.545-.786 0-1.29.402-1.668.819-.191.212-.35.447-.498.68-.148.233-.28.466-.418.66a.202.202 0 01-.315.01c-1.106-1.348-2.546-2.172-4.234-2.172-3.99 0-6.626 4.605-6.626 9.839 0 4.121 1.394 7.431 3.359 9.173.094.087.1.272-.057.335-1.568.64-3.882 2.047-3.882 3.692 0 .939.595 1.62 1.783 2.075.156.056.174.289.01.363-1.798.818-3.392 2.1-3.392 3.53 0 2.085 3.387 3.077 7.607 3.233.395.013.791.02 1.198.02 5.085 0 9.034-1.227 9.506-3.87.445-2.509-1.346-4.361-6.47-4.714l.003.002zm-6.889-13.834c0-4.758 1.484-9.112 3.852-9.112s3.85 4.354 3.85 9.112c0 5.646-1.77 9.741-3.85 9.741s-3.852-4.093-3.852-9.74zm3.852 21.7c-7.216 0-8.046-4.174-4.046-6.006a.158.158 0 01.115-.015c1.07.202 2.386.304 3.929.322 5.13.072 7.953.548 7.953 2.581 0 1.49-2.485 3.121-7.953 3.121l.002-.002zM72.77 77.56h.881c1.001 0 1.517-.89 1.517-1.46V57.874c0-.568-.518-1.46-1.517-1.46h-.881a.067.067 0 01-.064-.065v-.703c0-.03.03-.064.064-.064h.334c1.85 0 3.08-.42 3.852-.752.378-.166.595-.307.764-.363.15-.049.207-.028.207.082v2.798c0 .077.056.1.11.059 1.596-1.2 3.734-2.75 5.55-2.75 1.627 0 4.838.217 4.86 6.119v15.32c.003.574.522 1.461 1.518 1.461h.881c.036 0 .064.031.064.064v.594a.065.065 0 01-.064.066h-7.555a.064.064 0 01-.064-.066v-.594c0-.03.028-.064.064-.064h.88c1 0 1.52-.89 1.52-1.46V60.845c0-2.944-.007-4.906-2.582-4.906-1.662 0-5.18 2.491-5.18 3.34v16.818c0 .573.519 1.46 1.52 1.46h.881c.039 0 .064.031.064.064v.594c0 .038-.025.066-.064.066h-7.558"/><path d="M65.935 65.063c-.736.5-1.55 1.108-2.31 1.85-1.514 1.496-2.809 3.553-2.809 6.434 0 1.972 1.1 3.855 3.121 3.855.917 0 3.944-1.162 3.944-3.955v-9.335c0-.066-.049-.094-.105-.056-.452.322-1.11.708-1.844 1.21l.003-.003zm6.835 13.22h-2.061c-.389 0-.757.008-1.099-.01-.337-.02-.64-.074-.894-.202-.498-.243-.832-.782-.832-2.018 0-.074-.064-.1-.118-.046-1.208 1.292-2.75 2.568-5.004 2.568-2.756 0-4.7-2.456-4.7-5.172 0-3.456 2.427-5.874 4.882-7.588 1.226-.857 2.452-1.537 3.371-2.08.9-.529 1.569-.956 1.569-1.317v-2.223c0-2.46-.087-4.916-2.06-4.916-1.45 0-3.212.434-3.475 3.005-.077.755.046 1.08.046 1.776 0 .695-.54 1.542-1.548 1.542-.917 0-1.525-.808-1.525-1.542 0-3.014 2.996-5.513 6.628-5.513 2.506 0 4.587 1.067 4.69 4.443v17.107c0 .573.52 1.46 1.52 1.46h.612"/></g><defs><clipPath id="clip0_174_324"><path fill="#fff" d="M0 0h120v113H0z"/></clipPath></defs></svg>