<svg width="359" height="57" fill="none" xmlns="http://www.w3.org/2000/svg"><g clip-path="url(#clip0_221_3814)" fill="#6A3906" stroke="#6A3906" stroke-width=".14" stroke-miterlimit="10"><path d="M37.22 56.689s-.356-.222-.356-.578c0-2.223 5.73-12.45 12.969-23.787h-25.85c-3.997 5.78-7.994 12.182-12.524 21.075-1.11 2.267-1.599 2.979-2.265 2.979-.178 0-.356-.223-.356-.578 0-2.624 5.686-13.472 12.259-23.387h-5.064c-.799 0-1.11-.356-1.11-.8 0-.4.489-.8 1.288-.8 1.377 0 3.465-.045 5.996-.045.489-.667.933-1.334 1.421-2.001 6.44-9.07 12.259-15.784 17.322-20.408-7.995.089-17.41-.178-24.828 1.29-7.95 1.467-13.768 5.335-13.768 10.981 0 2.535.8 3.869 2.398 4.936 1.288.889 2.976.755 2.976 1.69 0 .444-.4.666-1.021.666-2.71 0-6.396-2.49-6.396-6.936 0-7.47 6.484-11.204 15.19-13.072 8.35-1.778 18.964-1.378 27.492-1.378C48.012 2.312 52.275.4 55.607.4c1.732 0 3.464.845 3.464 2.579 0 2.668-3.065 3.913-7.773 4.668-2.043.356-4.619.49-7.24.534-5.995 5.38-12.435 13.339-17.587 20.675-.4.622-.888 1.2-1.288 1.823 7.328.044 17.188.133 25.582.178.4-.667.889-1.29 1.288-1.912C59.516 17.385 72.618.31 75.46.31c.4 0 .622.267.622.623 0 .267-.356 1.2-1.066 2-7.329 7.96-13.99 17.03-19.942 25.744-.533.711-.977 1.467-1.51 2.223 1.599.044 3.153.044 4.53.044.577 0 1.066.223 1.066.667 0 .356-.356.667-1.11.667h-5.375C47.124 40.46 42.327 47.93 39.53 53.665c-1.11 2.268-1.6 2.98-2.266 2.98l-.044.044zM46.012 6.49c1.821-.088 3.553-.133 4.974-.266 3.865-.4 6.352-1.29 6.352-3.202 0-1.022-.8-1.333-1.866-1.333-2.62 0-5.862 1.867-9.46 4.801zm44.593 31.258c-1.599 6.18-9.06 13.917-16.655 13.917-3.51 0-7.018-2.135-7.018-7.203 0-8.581 10.793-17.474 18.299-17.474 3.597 0 5.374 2.357 5.374 4.447 0 .666-.044 1.333-.178 1.867.356.533.489 1.29.489 2.134v.578c3.686.578 9.416-.267 14.39-4.402.267-.222.533-.266.755-.266.267 0 .4.177.4.444 0 1.067-6.085 5.914-14.257 5.914-.622 0-1.066 0-1.599-.045v.089zM74.083 50.375c6.129 0 12.791-6.402 14.39-13.072-1.288-.533-1.82-1.467-1.82-2.756 0-.934.665-2.134 2.264-2.134h.045c.133-2.624-1.244-4.135-4.087-4.135-6.44 0-15.9 8.67-15.9 16.14 0 4 2.177 5.957 5.064 5.957h.044zm67.82-13.65c-2.22 7.648-9.415 14.94-15.9 14.94-3.109 0-5.774-1.868-6.307-4.802-2.665 3.201-5.552 4.802-8.527 4.802-3.465 0-6.485-2.046-6.485-6.803 0-7.603 8.172-15.695 9.416-15.695.533 0 .8.178.8.578 0 .534-.578 1.334-1.288 2.134-4.842 5.647-7.107 9.515-7.107 13.25 0 3.468 1.777 5.157 4.93 5.157 2.932 0 5.374-1.867 8.261-5.602.4-2.89 2.132-6.224 4.531-9.648 1.82-2.668 4.263-5.158 4.929-5.158 1.466 0-.488 3.335-3.153 7.603-1.999 3.202-3.686 5.736-4.841 7.248.044 4.535 2.842 5.557 5.108 5.557 2.265 0 5.063-1.2 8.394-4.313 3.064-2.934 5.063-6.802 5.774-10.27-1.199-1.112-1.866-2.668-1.866-4.58 0-1.467.578-3.068 2.132-3.068 1.022 0 1.866 1.601 1.866 4.269 0 .978-.134 2-.311 2.979.799.578 2.22.889 3.73.889 2.799 0 6.796-.49 11.593-4.535a1.12 1.12 0 01.755-.267c.266 0 .399.178.399.445 0 1.067-5.996 5.735-12.924 5.735-1.466 0-2.798-.267-3.864-.845h-.045zm43.526 14.273c-2.442 0-4.708-1.69-4.708-5.291 0-6.492 8.306-17.874 12.792-24.276.222-.267.399-.534.533-.8-3.331 0-6.13 0-8.395.044-1.332 0-2.043-.178-2.043-.578 0-.445.578-.756 1.866-.8 2.22-.134 5.551-.134 9.638-.134 3.864-5.335 6.662-8.537 7.861-8.537.266 0 .444.178.444.534 0 .934-2.132 4.224-4.663 8.092 2.975.045 6.173.178 9.593.311 1.244.09 1.732.178 1.732.623 0 .444-.755.533-1.865.533-3.731 0-7.195-.044-10.349-.044-3.597 5.38-6.573 9.203-10.97 14.45-2.665 4.09-4.53 7.603-4.53 10.76 0 2.667 1.465 3.69 3.464 3.69 3.82-.089 8.128-3.957 12.747-10.76.178-.355.444-.489.666-.489.4 0 .622.267.622.667 0 1.334-7.328 12.005-14.39 12.005h-.045zm40.728-13.25c-1.599 6.18-9.06 13.917-16.655 13.917-3.509 0-7.018-2.135-7.018-7.203 0-8.581 10.793-17.474 18.299-17.474 3.598 0 5.374 2.357 5.374 4.447 0 .666-.044 1.333-.178 1.867.356.533.445 1.29.445 2.134v.578c3.686.578 9.415-.267 14.39-4.402.266-.222.533-.266.755-.266.266 0 .4.177.4.444 0 1.067-6.085 5.914-14.257 5.914-.578 0-1.066 0-1.599-.045l.044.089zm-16.522 12.627c6.129 0 12.791-6.402 14.39-13.072-1.288-.533-1.821-1.467-1.821-2.756 0-.934.666-2.134 2.265-2.134h.045c.133-2.624-1.288-4.135-4.086-4.135-6.44 0-15.901 8.67-15.901 16.14 0 4 2.221 5.957 5.064 5.957h.044zm73.816.623c-2.398 0-4.663-1.69-4.663-5.291v-.667c-2.887 3.468-6.44 5.869-9.638 5.869-2.798 0-5.196-1.779-5.196-5.336 0-4.713 3.997-10.937 7.106-14.45 1.332-1.556 1.954-1.956 2.754-1.956.533 0 .799.178.799.578 0 .533-.577 1.334-1.288 2.134-4.708 5.469-7.728 10.048-7.728 13.739 0 2.578 1.377 3.912 3.731 3.912 3.064 0 6.795-2.845 10.037-7.114.977-3.423 3.376-7.291 5.774-10.36 1.866-2.4 3.864-4.979 5.152-4.979.267 0 .356.133.356.4 0 .578-.756 2.046-1.999 3.913-1.688 2.534-4.264 6.091-7.328 10.004-.667 1.6-.844 2.668-.844 4.446 0 2.49 1.288 3.69 3.242 3.69 3.864 0 8.35-4.09 12.88-10.804.222-.356.444-.489.666-.489.4 0 .666.356.666.711 0 1.023-7.239 11.96-14.434 11.96l-.045.09zm22.341.8c-4.042 0-5.863-1.2-5.863-2.668 0-.8.933-1.556 1.688-1.556 1.688 0 1.821 1.29 3.686 2.668 2.621 0 5.641-2.49 5.641-7.025 0-3.513-1.599-6.492-2.31-10.137-5.285 9.159-10.881 15.339-12.391 15.339-.489 0-.755-.178-.755-.534 0-.177.133-.444.488-.755 3.998-3.202 8.439-9.916 12.392-16.54v-.667c0-2.801 1.332-5.247 3.02-5.247.799 0 1.11.4 1.11 1.067 0 1.379-.932 3.202-2.798 5.87 1.066 5.335 3.198 8.358 3.198 11.96 0 2.845-1.599 5.202-3.375 6.669 7.772-.934 11.592-5.825 15.456-11.471.177-.356.444-.49.666-.49.4 0 .666.178.666.623 0 .845-3.731 6.714-8.039 9.648-3.153 2.134-7.062 3.202-12.391 3.202l-.089.044zm34.51.133c-6.574 0-10.837-3.601-10.837-8.714 0-7.737 9.104-16.095 17.721-16.095 3.331 0 5.063 1.823 5.063 4.312 0 5.603-6.662 10.493-14.168 10.493-2.265 0-4.442-.266-6.129-1.289-.178.89-.356 1.734-.356 2.668 0 4.001 3.376 7.158 9.017 7.158 7.328 0 11.725-4.224 16.788-11.649.178-.356.489-.489.666-.489.444 0 .666.356.666.667 0 .444-.977 1.867-2.309 3.735-2.798 3.868-7.684 9.203-16.078 9.203h-.044zm-8.039-12.36c1.687.756 3.242 1.023 5.107 1.023 6.751 0 12.969-4.269 12.969-9.293 0-1.956-1.243-2.934-3.464-2.934-5.374 0-12.525 4.935-14.657 11.204h.045z"/></g><defs><clipPath id="clip0_221_3814"><path fill="#fff" d="M0 0h359v57H0z"/></clipPath></defs></svg>