<svg width="252" height="59" fill="none" xmlns="http://www.w3.org/2000/svg"><g clip-path="url(#clip0_1151_170)" fill="#6A3906"><path d="M20.4 44.64c-4.4 0-7.94-1.1-10.62-3.3-2.64-2.2-3.96-5.6-3.96-10.2 0-3.52.7-6.86 2.1-10.02 1.4-3.2 3.26-6.12 5.58-8.76 2.36-2.64 4.96-4.9 7.8-6.78-1.56-.2-3.14-.4-4.74-.6-1.6-.2-3.18-.3-4.74-.3-1.8 0-3.42.24-4.86.72-1.4.48-2.72 1.4-3.96 2.76-.36.4-.64.76-.84 1.08-.2.32-.3.76-.3 1.32 0 .92.16 1.58.48 1.98.32.4.7.66 1.14.78.44.12.86.2 1.26.24.4.04.66.16.78.36-.04.12-.18.22-.42.3-.24.04-.44.06-.6.06-.6 0-1.12-.14-1.56-.42-.4-.28-.76-.54-1.08-.78-.28-.28-.54-.42-.78-.42-.08 0-.16.04-.24.12-.04.08-.12.12-.24.12-.32 0-.5-.22-.54-.66-.04-.48-.06-.8-.06-.96 0-.44.18-.94.54-1.5.36-.56.68-1 .96-1.32 1.72-2.08 3.56-3.54 5.52-4.38 2-.84 4.32-1.26 6.96-1.26 1.72 0 3.42.12 5.1.36 1.68.2 3.36.44 5.04.72 1.96-1.08 4.04-1.88 6.24-2.4 2.2-.56 4.4-.84 6.6-.84 1.28 0 2.62.14 4.02.42 1.4.24 2.7.66 3.9 1.26 1.24.6 2.24 1.42 3 2.46.76 1.04 1.14 2.34 1.14 3.9 0 1.24-.22 2.46-.66 3.66 0 .16-.04.3-.12.42-.04.08-.1.18-.18.3-.28.52-.56 1-.84 1.44-.24.4-.72.6-1.44.6-.52 0-.78-.28-.78-.84v-.6c.04-.24.08-.44.12-.6-3.2-1.76-6.68-3.22-10.44-4.38-3.72-1.2-7.38-2.12-10.98-2.76-1.84 1.36-3.62 2.98-5.34 4.86a42.485 42.485 0 00-4.68 6.18c-1.36 2.2-2.44 4.5-3.24 6.9-.8 2.4-1.2 4.78-1.2 7.14 0 2.68.6 4.92 1.8 6.72 1.2 1.8 2.82 3.14 4.86 4.02 2.04.88 4.34 1.32 6.9 1.32 2.2 0 4.42-.34 6.66-1.02a28.81 28.81 0 006.48-2.7c2.04-1.2 3.82-2.58 5.34-4.14 1.08-1.12 2.18-2.44 3.3-3.96 1.16-1.52 2.04-3.02 2.64-4.5 0-.04.04-.16.12-.36.12-.2.2-.3.24-.3.08 0 .12.12.12.36.04.24.06.38.06.42 0 .2-.02.66-.06 1.38 0 .68-.04 1.12-.12 1.32-.56 1.76-1.64 3.44-3.24 5.04-1.56 1.56-3.38 2.98-5.46 4.26a40.818 40.818 0 01-6.3 3.24c-2.12.88-4.04 1.5-5.76 1.86-1.04.2-2.1.36-3.18.48s-2.16.18-3.24.18zm25.2-34.2c.04-.24.06-.48.06-.72.04-.24.06-.5.06-.78 0-1.8-.5-3.2-1.5-4.2-1-1.04-2.24-1.76-3.72-2.16-1.48-.44-2.98-.66-4.5-.66-1.6 0-3.26.2-4.98.6-1.72.36-3.3.94-4.74 1.74 3.32.64 6.6 1.48 9.84 2.52s6.4 2.26 9.48 3.66zm3.914 31.14c-.64 0-1.06-.24-1.26-.72a5.28 5.28 0 01-.24-1.56c0-1.88.36-3.9 1.08-6.06.72-2.16 1.66-4.22 2.82-6.18 1.16-2 2.42-3.64 3.78-4.92 1.44-1.32 3.14-1.98 5.1-1.98.8 0 1.58.1 2.34.3.8.16 1.58.4 2.34.72.68-.48 1.42-.9 2.22-1.26.8-.36 1.62-.54 2.46-.54.2 0 .36.12.48.36v.18c0 .12-.06.18-.18.18a.533.533 0 00-.24-.06c-.64 0-1.34.5-2.1 1.5-.76.96-1.52 2.2-2.28 3.72-.76 1.52-1.46 3.12-2.1 4.8-.6 1.68-1.1 3.22-1.5 4.62-.36 1.4-.54 2.46-.54 3.18 0 .28.04.6.12.96.12.36.36.54.72.54.2 0 .36-.04.48-.12l.48-.24c.88-.52 1.74-1.22 2.58-2.1.88-.92 1.68-1.9 2.4-2.94.76-1.08 1.38-2.06 1.86-2.94.04.04.06.12.06.24 0 .24-.14.6-.42 1.08-.28.44-.6.92-.96 1.44-.36.52-.7.98-1.02 1.38-.28.4-.42.64-.42.72-.04.28-.1.52-.18.72-.08.16-.2.38-.36.66-.52.52-1.18 1.12-1.98 1.8-.8.68-1.64 1.28-2.52 1.8-.84.48-1.66.72-2.46.72-1.24 0-1.86-.66-1.86-1.98 0-.8.16-1.72.48-2.76.36-1.08.76-2.14 1.2-3.18.48-1.08.9-1.98 1.26-2.7v-.18c0-.08-.02-.12-.06-.12-.04 0-.1.04-.18.12-.48.64-1.18 1.56-2.1 2.76-.92 1.2-1.94 2.42-3.06 3.66-1.08 1.2-2.18 2.24-3.3 3.12-1.12.84-2.1 1.26-2.94 1.26zm2.64-2.58c.44 0 .98-.28 1.62-.84.68-.6 1.38-1.3 2.1-2.1.76-.84 1.42-1.64 1.98-2.4.6-.76 1.02-1.32 1.26-1.68.48-.72 1.02-1.62 1.62-2.7.64-1.08 1.18-2.2 1.62-3.36.48-1.16.72-2.14.72-2.94 0-1.24-.62-1.86-1.86-1.86-.72 0-1.48.32-2.28.96-.8.64-1.44 1.22-1.92 1.74-.52.64-1.12 1.56-1.8 2.76-.64 1.2-1.24 2.5-1.8 3.9s-1.04 2.74-1.44 4.02c-.36 1.28-.54 2.34-.54 3.18 0 .24.04.52.12.84.08.32.28.48.6.48zm12.48-22.86c-.2 0-.38-.04-.54-.12-.16-.12-.1-.26.18-.42.56-.24 1.2-.64 1.92-1.2.72-.56 1.44-1.16 2.16-1.8.76-.64 1.42-1.22 1.98-1.74s.96-.86 1.2-1.02c.16-.12.42-.2.78-.24.36-.08.72-.12 1.08-.12.72 0 1.08.12 1.08.36-.04.2-.16.48-.36.84-.2.36-.78.84-1.74 1.44-.08.04-.48.26-1.2.66-.68.4-1.48.86-2.4 1.38-.88.48-1.7.92-2.46 1.32-.72.4-1.14.6-1.26.6-.08.04-.22.06-.42.06zm6.303 25.32c-.44 0-.82-.2-1.14-.6a4.9 4.9 0 01-.66-1.38c-.12-.52-.18-.96-.18-1.32 0-1.76.36-3.64 1.08-5.64.76-2.04 1.72-3.98 2.88-5.82 1.16-1.88 2.36-3.4 3.6-4.56.72-.68 1.54-1.18 2.46-1.5a9.06 9.06 0 012.88-.48c.64 0 1.32.08 2.04.24.76.16 1.4.44 1.92.84v.12c.04 0 .06.02.06.06 0 .08-.02.12-.06.12h-.06l-.42-.12c.12.36.18.72.18 1.08 0 .36-.1.9-.3 1.62-.2.68-.44 1.34-.72 1.98-.28.64-.58 1.06-.9 1.26h-.12c-.12 0-.18-.1-.18-.3 0-.08.04-.16.12-.24a.94.94 0 00.18-.24c.2-.44.34-.88.42-1.32.12-.44.18-.88.18-1.32 0-.68-.16-1.32-.48-1.92-.32-.6-.88-.9-1.68-.9-.72 0-1.48.32-2.28.96-.8.64-1.44 1.22-1.92 1.74-.8.92-1.62 2.18-2.46 3.78-.8 1.56-1.48 3.18-2.04 4.86-.56 1.68-.84 3.14-.84 4.38 0 .56.1 1.1.3 1.62.24.48.7.72 1.38.72 1 0 2.06-.34 3.18-1.02 1.12-.72 2.24-1.58 3.36-2.58a55.15 55.15 0 003.06-3.06c.96-1.04 1.74-1.9 2.34-2.58.64-.72 1-1.08 1.08-1.08.12 0 .18.1.18.3 0 .08-.02.16-.06.24 0 .08-.02.16-.06.24-1 1.32-2.08 2.68-3.24 4.08a33.636 33.636 0 01-3.72 3.84 17.85 17.85 0 01-4.32 2.82c-1.56.72-3.24 1.08-5.04 1.08zm12.236.78c-.08 0-.12-.02-.12-.06 0-.16.08-.32.24-.48.12-.12.22-.24.3-.36.32-.52.64-1.2.96-2.04.32-.88.62-1.76.9-2.64a372.885 372.885 0 003.12-9.42 150.322 150.322 0 014.32-11.88c.72-1.8 1.56-3.6 2.52-5.4.96-1.8 2.04-3.44 3.24-4.92 1.24-1.52 2.62-2.74 4.14-3.66 1.52-.92 3.2-1.38 5.04-1.38 2 0 3.32.36 3.96 1.08.68.72 1.02 1.46 1.02 2.22 0 .32-.12.52-.36.6-.2.08-.3-.02-.3-.3 0-.84-.34-1.52-1.02-2.04-.68-.56-1.48-.84-2.4-.84-.84 0-1.74.32-2.7.96-.92.6-1.8 1.32-2.64 2.16-.84.84-1.5 1.58-1.98 2.22-1.6 2.16-2.9 4.16-3.9 6-1 1.84-1.86 3.64-2.58 5.4-.68 1.76-1.34 3.62-1.98 5.58-.6 1.96-1.32 4.14-2.16 6.54v.24c0 .12.02.18.06.18l.18-.18c1.24-1.64 2.5-3.24 3.78-4.8 1.32-1.6 2.9-2.9 4.74-3.9.28-.16.6-.32.96-.48.36-.2.7-.3 1.02-.3.52 0 .82.24.9.72.12.44.18.86.18 1.26 0 .84-.28 1.94-.84 3.3a61.01 61.01 0 01-1.92 4.32 63.03 63.03 0 00-1.92 4.62c-.52 1.48-.78 2.82-.78 4.02 0 .16.02.36.06.6.08.2.24.3.48.3.4 0 .94-.32 1.62-.96.68-.68 1.32-1.4 1.92-2.16.6-.8.98-1.38 1.14-1.74.16.16.24.28.24.36 0 .36-.36.94-1.08 1.74-.68.76-1.5 1.56-2.46 2.4-.96.84-1.88 1.56-2.76 2.16-.88.6-1.5.9-1.86.9-.4 0-.68-.3-.84-.9-.12-.6-.18-1.04-.18-1.32 0-.76.16-1.72.48-2.88.36-1.16.78-2.38 1.26-3.66.52-1.28 1.02-2.5 1.5-3.66.52-1.16.94-2.12 1.26-2.88.12-.24.3-.66.54-1.26.24-.64.36-1.1.36-1.38 0-.2-.04-.42-.12-.66-.04-.24-.2-.36-.48-.36-.44 0-.98.26-1.62.78-.6.52-1.06.94-1.38 1.26-1.72 1.88-3.22 4.02-4.5 6.42a46.844 46.844 0 00-3.06 7.2c-.08.32-.14.54-.18.66-.04.12-.22.3-.54.54-.12.04-.5.24-1.14.6-.6.36-1.18.7-1.74 1.02-.56.36-.86.54-.9.54zm36.008-.3c-.76 0-1.6-.14-2.52-.42-.92-.28-1.6-.8-2.04-1.56v-.12c0-.2.26-.5.78-.9.48-.44 1-.86 1.56-1.26.56-.44.92-.76 1.08-.96l.42-.12.12.24c-.28.24-.42.5-.42.78 0 .6.22 1.1.66 1.5.48.4 1.02.7 1.62.9.64.2 1.2.3 1.68.3.56 0 1.26-.16 2.1-.48.88-.32 1.66-.76 2.34-1.32.68-.56 1.02-1.18 1.02-1.86 0-1.04-.32-1.94-.96-2.7-.64-.76-1.38-1.48-2.22-2.16-.84-.68-1.58-1.4-2.22-2.16-.64-.76-.96-1.64-.96-2.64 0-1.16.34-2.2 1.02-3.12.72-.96 1.62-1.76 2.7-2.4a13.28 13.28 0 013.48-1.5c1.2-.36 2.3-.54 3.3-.54.16 0 .52.04 1.08.12.56.04 1.08.14 1.56.3.52.12.78.3.78.54 0 .08-.02.12-.06.12h-.12l-.48-.12c.12.28.18.62.18 1.02 0 .36-.08.82-.24 1.38-.16.56-.34 1-.54 1.32-.04.08-.24.34-.6.78s-.72.86-1.08 1.26c-.36.4-.58.6-.66.6l-.06-.12c.08-.2.34-.54.78-1.02.44-.52.66-1.18.66-1.98 0-.84-.38-1.52-1.14-2.04-.76-.56-1.54-.84-2.34-.84-.76 0-1.56.24-2.4.72-.8.48-1.48 1.1-2.04 1.86-.52.76-.78 1.54-.78 2.34 0 .72.34 1.48 1.02 2.28.72.76 1.52 1.54 2.4 2.34.92.76 1.72 1.52 2.4 2.28.72.76 1.08 1.48 1.08 2.16v.18c0 1-.44 1.94-1.32 2.82-.88.84-1.98 1.58-3.3 2.22-1.32.64-2.66 1.14-4.02 1.5-1.32.32-2.42.48-3.3.48zm27.338-.3c-.72 0-1.2-.2-1.44-.6-.24-.44-.36-.98-.36-1.62 0-1.04.16-2.2.48-3.48.36-1.32.68-2.48.96-3.48-1.04 1.6-2.24 3.18-3.6 4.74-1.36 1.56-2.92 2.8-4.68 3.72-.28.16-.6.32-.96.48-.36.12-.7.18-1.02.18-.56 0-.94-.2-1.14-.6-.16-.4-.24-.82-.24-1.26v-.24c0-.64.12-1.28.36-1.92.24-.68.46-1.32.66-1.92.32-.92.7-2.06 1.14-3.42.48-1.4.9-2.8 1.26-4.2.4-1.4.6-2.54.6-3.42 0-.36-.06-.7-.18-1.02-.08-.32-.34-.5-.78-.54h-.12c-.04 0-.06-.02-.06-.06 0-.12.2-.24.6-.36.44-.16.96-.32 1.56-.48.6-.16 1.16-.28 1.68-.36.52-.12.86-.18 1.02-.18.08 0 .22.02.42.06.24.04.36.16.36.36 0 .08-.02.14-.06.18-.4.96-.86 2.1-1.38 3.42-.52 1.32-1.04 2.72-1.56 4.2-.48 1.44-.88 2.86-1.2 4.26-.32 1.36-.48 2.58-.48 3.66 0 .2.04.4.12.6.08.2.24.3.48.3.44 0 .98-.26 1.62-.78.68-.52 1.16-.92 1.44-1.2 1.48-1.56 2.82-3.46 4.02-5.7 1.2-2.24 2.12-4.38 2.76-6.42.2-.6.4-1.02.6-1.26.2-.28.56-.62 1.08-1.02.64-.44 1.34-.84 2.1-1.2.8-.36 1.6-.54 2.4-.54.08 0 .18.06.3.18.12.08.18.18.18.3 0 .08-.06.14-.18.18h-.24c-.52 0-1.06.32-1.62.96-.56.64-1.1 1.46-1.62 2.46s-1 2.04-1.44 3.12c-.4 1.08-.76 2.08-1.08 3-.28.88-.48 1.54-.6 1.98-.16.76-.34 1.52-.54 2.28-.16.76-.24 1.54-.24 2.34 0 .32.04.74.12 1.26.12.48.42.72.9.72.28 0 .56-.1.84-.3.88-.52 1.72-1.22 2.52-2.1.8-.92 1.54-1.9 2.22-2.94.68-1.08 1.22-2.06 1.62-2.94.08.04.12.12.12.24 0 .32-.22.84-.66 1.56-.4.68-.82 1.34-1.26 1.98-.4.6-.62.96-.66 1.08-.04.28-.1.52-.18.72-.04.16-.12.38-.24.66-.48.52-1.12 1.12-1.92 1.8-.76.68-1.56 1.28-2.4 1.8-.84.52-1.64.78-2.4.78zm6.9-19.44c-.8 0-1.16-.32-1.08-.96 1.44 0 2.46-.44 3.06-1.32.6-.88 1-2.12 1.2-3.72.04-.2.18-.36.42-.48.28-.12.56-.18.84-.18.28 0 .52.06.72.18.24.08.34.22.3.42-.2 1.6-.78 3.02-1.74 4.26-.92 1.2-2.16 1.8-3.72 1.8zm-4.44-6.12c-.2 0-.3-.12-.3-.36 0-.64.22-1.26.66-1.86.48-.64.98-1.2 1.5-1.68.92-.8 1.5-1.42 1.74-1.86.28-.44.42-.86.42-1.26 0-.72-.5-1.08-1.5-1.08-.96 0-1.72.16-2.28.48-.56.28-1 .42-1.32.42-.16 0-.24-.1-.24-.3 0-.32.44-.72 1.32-1.2.92-.48 2-.72 3.24-.72.84 0 1.6.16 2.28.48.72.28 1.08.88 1.08 1.8 0 .84-.38 1.6-1.14 2.28a15.2 15.2 0 01-2.28 1.68c-.92.56-1.56 1.06-1.92 1.5-.36.44-.6.8-.72 1.08-.16.4-.34.6-.54.6zm20.146 25.5c-.64 0-1.06-.24-1.26-.72a5.28 5.28 0 01-.24-1.56c0-1.88.36-3.9 1.08-6.06.72-2.16 1.66-4.22 2.82-6.18 1.16-2 2.42-3.64 3.78-4.92.8-.72 1.58-1.24 2.34-1.56.76-.36 1.7-.54 2.82-.54.64 0 1.28.04 1.92.12.64.08 1.28.18 1.92.3 2-4.44 3.86-8.94 5.58-13.5.36-.92.96-1.68 1.8-2.28.68-.44 1.52-.8 2.52-1.08s1.88-.42 2.64-.42c.08 0 .18.04.3.12.12.08.2.16.24.24v.18c-.04.12-.1.18-.18.18a.533.533 0 00-.24-.06c-.56 0-1.22.42-1.98 1.26-.72.84-1.5 1.94-2.34 3.3-.8 1.36-1.6 2.86-2.4 4.5-.8 1.6-1.56 3.18-2.28 4.74-.68 1.52-1.28 2.9-1.8 4.14-.48 1.2-.84 2.08-1.08 2.64-.28.76-.66 1.74-1.14 2.94-.48 1.2-.94 2.48-1.38 3.84-.44 1.36-.82 2.64-1.14 3.84-.32 1.2-.48 2.2-.48 3 0 .24.04.52.12.84.08.32.28.48.6.48.2 0 .36-.04.48-.12l.48-.24c.92-.52 1.8-1.22 2.64-2.1.88-.92 1.68-1.9 2.4-2.94.72-1.08 1.3-2.06 1.74-2.94.08.04.12.12.12.24 0 .28-.24.78-.72 1.5-.44.68-.9 1.34-1.38 1.98-.44.6-.68.98-.72 1.14-.04.28-.1.52-.18.72-.08.16-.2.38-.36.66-.52.52-1.18 1.12-1.98 1.8-.8.68-1.64 1.28-2.52 1.8-.84.48-1.66.72-2.46.72-1.24 0-1.86-.66-1.86-1.98 0-.8.16-1.72.48-2.76.36-1.04.76-2.08 1.2-3.12.48-1.04.9-1.92 1.26-2.64-.44.64-1.12 1.54-2.04 2.7-.88 1.16-1.88 2.34-3 3.54-1.08 1.2-2.16 2.22-3.24 3.06-1.08.8-2.04 1.2-2.88 1.2zm2.64-2.58c.44 0 .98-.28 1.62-.84.68-.56 1.38-1.24 2.1-2.04.76-.84 1.42-1.62 1.98-2.34.6-.76 1.02-1.32 1.26-1.68.48-.72 1.02-1.64 1.62-2.76.6-1.12 1.12-2.26 1.56-3.42.48-1.16.72-2.14.72-2.94 0-1.24-.6-1.86-1.8-1.86-.76 0-1.54.32-2.34.96-.76.64-1.38 1.22-1.86 1.74-.52.64-1.12 1.56-1.8 2.76-.64 1.2-1.24 2.5-1.8 3.9s-1.04 2.74-1.44 4.02c-.36 1.28-.54 2.34-.54 3.18 0 .24.04.52.12.84.08.32.28.48.6.48z"/><path d="M200.158 41.64c-.72 0-1.2-.2-1.44-.6-.24-.44-.36-.98-.36-1.62 0-1.04.16-2.2.48-3.48.36-1.32.68-2.48.96-3.48-1.04 1.6-2.24 3.18-3.6 4.74-1.36 1.56-2.92 2.8-4.68 3.72-.28.16-.6.32-.96.48-.36.12-.7.18-1.02.18-.56 0-.94-.2-1.14-.6-.16-.4-.24-.82-.24-1.26v-.24c0-.64.12-1.28.36-1.92.24-.68.46-1.32.66-1.92.32-.92.7-2.06 1.14-3.42.48-1.4.9-2.8 1.26-4.2.4-1.4.6-2.54.6-3.42 0-.36-.06-.7-.18-1.02-.08-.32-.34-.5-.78-.54h-.12c-.04 0-.06-.02-.06-.06 0-.12.2-.24.6-.36.44-.16.96-.32 1.56-.48.6-.16 1.16-.28 1.68-.36.52-.12.86-.18 1.02-.18.08 0 .22.02.42.06.24.04.36.16.36.36 0 .08-.02.14-.06.18-.4.96-.86 2.1-1.38 3.42-.52 1.32-1.04 2.72-1.56 4.2-.48 1.44-.88 2.86-1.2 4.26-.32 1.36-.48 2.58-.48 3.66 0 .2.04.4.12.6.08.2.24.3.48.3.44 0 .98-.26 1.62-.78.68-.52 1.16-.92 1.44-1.2 1.48-1.56 2.82-3.46 4.02-5.7 1.2-2.24 2.12-4.38 2.76-6.42.2-.6.4-1.02.6-1.26.2-.28.56-.62 1.08-1.02.64-.44 1.34-.84 2.1-1.2.8-.36 1.6-.54 2.4-.54.08 0 .18.06.3.18.12.08.18.18.18.3 0 .08-.06.14-.18.18h-.24c-.52 0-1.06.32-1.62.96-.56.64-1.1 1.46-1.62 2.46s-1 2.04-1.44 3.12c-.4 1.08-.76 2.08-1.08 3-.28.88-.48 1.54-.6 1.98-.16.76-.34 1.52-.54 2.28-.16.76-.24 1.54-.24 2.34 0 .32.04.74.12 1.26.12.48.42.72.9.72.28 0 .56-.1.84-.3.88-.52 1.72-1.22 2.52-2.1.8-.92 1.54-1.9 2.22-2.94.68-1.08 1.22-2.06 1.62-2.94.08.04.12.12.12.24 0 .32-.22.84-.66 1.56-.4.68-.82 1.34-1.26 1.98-.4.6-.62.96-.66 1.08-.04.28-.1.52-.18.72-.04.16-.12.38-.24.66-.48.52-1.12 1.12-1.92 1.8-.76.68-1.56 1.28-2.4 1.8-.84.52-1.64.78-2.4.78zm-10.5 8.64c-.28 0-.54-.06-.78-.18-.24-.08-.38-.2-.42-.36-.04-.12-.06-.3-.06-.54 0-.8.26-1.48.78-2.04.52-.52 1.06-.78 1.62-.78 1.04 0 1.56.38 1.56 1.14 0 .48-.22 1.06-.66 1.74-.2.36-.5.62-.9.78-.4.16-.78.24-1.14.24z"/><path d="M206.838 42.24c-.04 0-.06-.02-.06-.06 0-.16.08-.32.24-.48.12-.16.2-.28.24-.36.28-.44.62-1.18 1.02-2.22.36-1.08.72-2.28 1.08-3.6.4-1.36.76-2.72 1.08-4.08.36-1.4.68-2.68.96-3.84.28-1.16.48-2.04.6-2.64.08-.32.16-.74.24-1.26.08-.52.2-1.04.36-1.56.16-.52.34-.86.54-1.02.4-.32.94-.6 1.62-.84.72-.24 1.46-.42 2.22-.54.76-.16 1.38-.24 1.86-.24.08 0 .18.04.3.12.12.08.2.16.24.24v.18c0 .12-.04.18-.12.18a.533.533 0 00-.24-.06c-.88 0-1.66.5-2.34 1.5-.68.96-1.26 2.16-1.74 3.6-.48 1.4-.88 2.76-1.2 4.08-.32 1.32-.56 2.32-.72 3 1.28-2.2 2.74-4.3 4.38-6.3 1.68-2.04 3.64-3.68 5.88-4.92.28-.16.6-.32.96-.48.36-.2.68-.3.96-.3.52 0 .84.24.96.72.12.44.18.86.18 1.26 0 .52-.18 1.28-.54 2.28-.36 1-.78 2-1.26 3-.44.96-.78 1.72-1.02 2.28-.24.64-.52 1.46-.84 2.46-.32 1-.6 2-.84 3s-.36 1.84-.36 2.52c0 .28.04.6.12.96.08.36.3.54.66.54.2 0 .36-.04.48-.12l.48-.24c.92-.52 1.8-1.22 2.64-2.1.88-.92 1.68-1.9 2.4-2.94.72-1.08 1.32-2.06 1.8-2.94.04.04.06.12.06.24 0 .24-.14.6-.42 1.08-.28.44-.6.92-.96 1.44-.36.52-.7.98-1.02 1.38-.28.4-.42.64-.42.72-.04.28-.1.52-.18.72-.08.16-.18.38-.3.66-.48.48-1.18 1.08-2.1 1.8-.88.68-1.8 1.3-2.76 1.86-.92.52-1.74.78-2.46.78-.64 0-1.08-.24-1.32-.72-.2-.52-.3-1.06-.3-1.62 0-1.08.22-2.36.66-3.84.44-1.52.96-3.02 1.56-4.5.6-1.52 1.1-2.8 1.5-3.84.12-.32.3-.82.54-1.5.28-.68.42-1.16.42-1.44 0-.2-.04-.42-.12-.66-.04-.24-.22-.36-.54-.36-.4 0-.92.26-1.56.78-.6.52-1.06.94-1.38 1.26-1.72 1.92-3.2 4.06-4.44 6.42a47.742 47.742 0 00-3.12 7.2c-.12.32-.2.56-.24.72 0 .12-.16.28-.48.48-.12.08-.5.3-1.14.66-.6.36-1.18.7-1.74 1.02-.6.32-.92.48-.96.48z"/><path d="M221.806 58.14c-.24 0-.7-.1-1.38-.3-.68-.2-1.3-.46-1.86-.78-.6-.32-.9-.64-.9-.96 0-.08.08-.12.24-.12.24.08.42.12.54.12.04 0 .14-.04.3-.12a1.29 1.29 0 01-.24-.72c0-.2.06-.32.18-.36-.08-.24-.18-.48-.3-.72-.12-.2-.24-.42-.36-.66-.08-.16-.26-.42-.54-.78-.28-.32-.42-.56-.42-.72 0-.12.04-.3.12-.54.84 1.16 1.56 2.08 2.16 2.76.6.68 1.32 1.16 2.16 1.44.84.32 2.02.48 3.54.48 1.76 0 3.4-.64 4.92-1.92 1.56-1.28 2.96-2.94 4.2-4.98 1.28-2 2.4-4.16 3.36-6.48 1-2.32 1.84-4.54 2.52-6.66.72-2.16 1.26-3.94 1.62-5.34-.48.64-1.18 1.56-2.1 2.76-.92 1.2-1.94 2.42-3.06 3.66-1.12 1.2-2.24 2.24-3.36 3.12-1.08.84-2.04 1.26-2.88 1.26-.64 0-1.06-.24-1.26-.72a5.28 5.28 0 01-.24-1.56c0-1.84.36-3.84 1.08-6 .72-2.2 1.66-4.3 2.82-6.3s2.42-3.62 3.78-4.86c1.52-1.32 3.22-1.98 5.1-1.98.8 0 1.58.1 2.34.3.8.16 1.58.4 2.34.72.68-.48 1.42-.9 2.22-1.26.8-.36 1.62-.54 2.46-.54.2 0 .36.12.48.36v.18c-.04.12-.1.18-.18.18a.533.533 0 00-.24-.06c-.76 0-1.48.42-2.16 1.26-.64.84-1.22 1.88-1.74 3.12-.52 1.2-.96 2.36-1.32 3.48-.36 1.12-.62 1.96-.78 2.52-.88 3.16-1.98 6.38-3.3 9.66-1.28 3.24-2.96 6.18-5.04 8.82-.48.6-.98 1.18-1.5 1.74-.52.6-1.06 1.18-1.62 1.74-1.56 1.6-3.32 2.96-5.28 4.08-1.96 1.12-4.1 1.68-6.42 1.68zm11.1-19.14c.44 0 .98-.28 1.62-.84.68-.6 1.38-1.3 2.1-2.1.76-.84 1.42-1.64 1.98-2.4.6-.76 1.02-1.32 1.26-1.68.48-.72 1.02-1.62 1.62-2.7.64-1.08 1.18-2.2 1.62-3.36.48-1.16.72-2.14.72-2.94 0-1.24-.62-1.86-1.86-1.86-.72 0-1.48.32-2.28.96-.8.64-1.44 1.22-1.92 1.74-.52.64-1.12 1.56-1.8 2.76-.64 1.2-1.24 2.5-1.8 3.9s-1.04 2.74-1.44 4.02c-.36 1.28-.54 2.34-.54 3.18 0 .24.04.52.12.84.12.32.32.48.6.48z"/></g><defs><clipPath id="clip0_1151_170"><path fill="#fff" d="M0 0h251.386v58.14H0z"/></clipPath></defs></svg>