<svg width="566" height="60" fill="none" xmlns="http://www.w3.org/2000/svg"><path d="M0 0v46h223V0H0z" fill="#C62243"/><path d="M28.157 27.64c0 3.678.253 5.656 3.413 5.656 1.413 0 3.333-.411 4.72-2.708.079-.2.106-.226.199-.226.053 0 .133.027.2.053.107.053.16.106.16.2 0 .052-.027.106-.053.159-1 1.938-3 3.226-6.013 3.226-4.68 0-10.265-3.173-10.265-10.383 0-6.081 3.96-10.224 9.452-10.224 3.52 0 4.133 1.687 4.906 1.687.467 0 .56-.585.64-1.248.026-.226.08-.386.306-.386.227 0 .36.133.36.492 0 .133-.026.504-.026 2.483 0 1.248.106 4.66.106 4.727 0 .331-.2.358-.306.358-.134 0-.334-.027-.36-.358-.027-.943-.333-7.237-5.08-7.237-2.106 0-2.36 1.248-2.36 3.984v9.745zm29.436-3.943c0-6.134 4.36-10.304 10.012-10.304 5.653 0 10.013 4.17 10.013 10.304S73.298 34 67.605 34c-5.692 0-10.012-4.17-10.012-10.303zm12.399-6.798c0-1.713 0-2.988-2.387-2.988-2.386 0-2.36 1.275-2.36 2.988V30.48c0 1.713 0 2.988 2.36 2.988s2.387-1.275 2.387-2.988V16.9zm37.662 15.57c4.879 0 5.493-3.014 6.186-6.758.053-.332.107-.438.28-.438.253 0 .253.159.253.411-.026.77-.253 3.147-.253 4.94V33c-.227-.053-1.027-.08-10.399-.08-1.72 0-4.853.08-5.08.08-.133 0-.253-.027-.253-.279 0-.225.107-.252.307-.252h1.587V13.72h-1.587c-.2 0-.307-.026-.307-.279 0-.225.107-.252.307-.252.92.027 3.96.053 5.213.053 1.52 0 4.599-.053 4.826-.053.107 0 .253.027.253.252 0 .226-.106.28-.28.28h-1.586v18.747h.533zm27.61-8.772c0-6.134 4.36-10.304 10.012-10.304 5.653 0 10.012 4.17 10.012 10.304S150.969 34 145.276 34c-5.692 0-10.012-4.17-10.012-10.303zm12.399-6.798c0-1.713 0-2.988-2.387-2.988-2.386 0-2.36 1.275-2.36 2.988V30.48c0 1.713 0 2.988 2.36 2.988s2.387-1.275 2.387-2.988V16.9zm38.662 15.278c.2 0 .28.053.28.252 0 .252-.08.279-.28.279-.92-.027-3.96-.08-5.186-.08-1.52 0-4.653.08-4.906.08-.134 0-.254-.027-.254-.279 0-.226.107-.252.307-.252h1.586V13.403h-1.586c-.2 0-.307-.027-.307-.28 0-.225.107-.252.36-.252.387 0 2.387.08 3.906.08 1.254 0 5.88-.053 6.266-.053 4.88 0 9.346.584 9.346 5.39 0 3.532-2.36 4.86-5.626 5.418 3.933 1.022 4.293 1.819 4.933 5.683.253 1.434.36 2.23 1.026 2.23.52 0 .694-.518.694-1.022 0-.332.053-.638.279-.638.227 0 .307.2.307.638 0 1.938-1.466 2.403-4.159 2.403-4.547 0-5.746-1.301-5.773-4.66-.027-2.789-.053-4.369-2.826-4.369v8.206h1.613zm-1.613-8.724c.466 0 .973 0 1.439-.08 1.467-.278 1.8-1.247 1.8-4.885 0-4.342-.44-5.032-3.239-5.032v9.997zM229 16v44h337V16H229z" fill="#681418"/><path d="M240.158 29.93c-.44-1.488-1.253-1.66-2.053-1.66h-.386c-.2 0-.307-.027-.307-.28 0-.225.107-.251.307-.251 1.306.026 2.359.08 6.039.08 4.546 0 5.439-.08 5.826-.08.227 0 .333.026.333.252 0 .252-.106.279-.306.279-1.107.026-1.88.053-1.88.969 0 .332.106.744.16.943l3.079 10.25 2.187-7.794c.306-1.102.56-2.124.56-2.815 0-1.38-.92-1.54-2.253-1.54-.2 0-.307 0-.307-.279 0-.252.133-.252.333-.252.334 0 1.467.08 2.88.08 1.413 0 2.08-.08 2.493-.08.2 0 .333.027.333.252 0 .226-.106.279-.306.279-1.773.08-2.053.412-2.827 3.173l-4.599 16.265c-.053.2-.28.279-.56.279-.387 0-.92-.106-1.493-.106-.573 0-1.133.106-1.44.106-.253 0-.387-.08-.467-.279l-5.346-17.778v-.014zm52.421 17.539c.2 0 .307.026.307.252 0 .252-.107.279-.307.279-1.307-.027-2.36-.08-6.039-.08-4.52 0-5.44.08-5.826.08-.227 0-.307-.027-.307-.279 0-.225.08-.252.28-.252h.107c1.226 0 1.773-.2 1.773-.996a3.46 3.46 0 00-.134-.916l-.52-1.766h-4.959c-.253.943-.44 1.766-.44 2.23 0 .89.72 1.435 1.973 1.435h.254c.159 0 .279 0 .279.252 0 .279-.106.279-.306.279-.333 0-1.387-.08-2.773-.08-1.387 0-2.08.08-2.467.08-.226 0-.359-.027-.359-.28 0-.198.106-.251.306-.251h.107c1.64 0 2-.558 2.613-2.709l4.626-16.345c.133-.411.253-.438 1.72-.438 2.053 0 2.306.053 2.466.558l5.213 17.287c.44 1.46 1.28 1.66 2.053 1.66h.387-.027zm-13.225-12.175l-2.24 7.98h4.626l-2.386-7.98zm44.155 11.883c.2 0 .28.053.28.252 0 .252-.08.279-.28.279-.92-.027-3.96-.08-5.187-.08-1.519 0-4.652.08-4.906.08-.133 0-.253-.027-.253-.279 0-.226.107-.252.307-.252h1.586V28.403h-1.586c-.2 0-.307-.027-.307-.28 0-.225.107-.252.36-.252.387 0 2.386.08 3.906.08 1.253 0 5.88-.053 6.266-.053 4.88 0 9.346.584 9.346 5.39 0 3.532-2.36 4.86-5.626 5.418 3.933 1.022 4.293 1.819 4.932 5.682.254 1.434.36 2.231 1.027 2.231.533 0 .693-.518.693-1.022 0-.332.054-.638.28-.638.227 0 .307.2.307.638 0 1.938-1.467 2.403-4.16 2.403-4.546 0-5.746-1.301-5.772-4.66-.027-2.789-.054-4.369-2.827-4.369v8.206h1.614zm-1.614-8.724c.467 0 .974 0 1.44-.08 1.467-.278 1.8-1.247 1.8-4.885 0-4.342-.44-5.032-3.24-5.032v9.997zm43.849 9.016c.2 0 .28.053.28.252 0 .252-.08.279-.28.279-.92-.027-3.96-.08-5.186-.08-1.52 0-4.653.08-4.906.08-.134 0-.254-.027-.254-.279 0-.225.107-.252.307-.252h1.586V28.695h-1.586c-.2 0-.307-.027-.307-.28 0-.225.107-.252.307-.252.92.027 3.959.08 5.213.08 1.519 0 4.626-.08 4.852-.08.134 0 .254.027.254.253s-.08.279-.28.279h-1.613v18.774h1.613zm40.128 0c.2 0 .307.026.307.252 0 .252-.107.279-.307.279-1.306-.027-2.359-.08-6.039-.08-4.519 0-5.439.08-5.826.08-.227 0-.307-.027-.307-.279 0-.225.08-.252.28-.252h.107c1.227 0 1.773-.2 1.773-.996a3.46 3.46 0 00-.133-.916l-.533-1.766h-4.96c-.253.943-.44 1.766-.44 2.23 0 .89.72 1.435 1.973 1.435h.254c.16 0 .28 0 .28.252 0 .279-.107.279-.307.279-.333 0-1.387-.08-2.773-.08-1.387 0-2.08.08-2.466.08-.227 0-.36-.027-.36-.28 0-.198.106-.251.306-.251h.107c1.64 0 2-.558 2.613-2.709l4.626-16.345c.133-.411.253-.438 1.72-.438 2.053 0 2.306.053 2.466.558l5.213 17.287c.44 1.46 1.28 1.66 2.053 1.66h.387-.014zm-13.225-12.175l-2.24 7.98h4.627l-2.387-7.98zm45.448 12.175c.2 0 .307.053.307.252 0 .252-.107.279-.307.279-.92-.027-3.933-.08-5.186-.08-1.52 0-4.653.08-4.906.08-.133 0-.227-.027-.227-.279 0-.225.08-.252.28-.252h1.587V28.934c-3.547.995-4.133 3.425-4.413 6.04 0 .306-.027.439-.28.439s-.253-.16-.253-.438l.333-6.825c1.28.053 2.186.08 8.119.08s6.653-.027 7.932-.08l.334 6.825c0 .279 0 .438-.254.438-.226 0-.253-.133-.28-.438-.28-2.536-.799-5.032-4.412-6.041v18.535h1.626zm34.516 0c.2 0 .28.053.28.252 0 .252-.08.279-.28.279-.92-.027-3.96-.08-5.186-.08-1.52 0-4.653.08-4.906.08-.134 0-.253-.027-.253-.279 0-.225.106-.252.306-.252h1.587V28.695h-1.587c-.2 0-.306-.027-.306-.28 0-.225.106-.252.306-.252.92.027 3.96.08 5.213.08 1.52 0 4.626-.08 4.853-.08.133 0 .253.027.253.253s-.08.279-.28.279h-1.613v18.774h1.613zm20.931-8.772c0-6.134 4.359-10.304 10.012-10.304 5.653 0 10.012 4.17 10.012 10.304S509.247 49 503.554 49c-5.693 0-10.012-4.17-10.012-10.303zm12.398-6.798c0-1.713 0-2.988-2.386-2.988s-2.36 1.275-2.36 2.988V45.48c0 1.713 0 2.988 2.36 2.988s2.386-1.275 2.386-2.988V31.9zm30.81-1.611v13.37c0 2.842 0 3.81 1.52 3.81h.253c.16 0 .28.08.28.253 0 .2-.106.279-.28.279-.173 0-1.28-.08-2.026-.08-.747 0-1.613.08-1.973.08-.2 0-.307-.027-.307-.279 0-.225.107-.252.28-.252h.253c1.16 0 1.467-.97 1.467-3.094V29.598c-.467-.85-.773-.917-1.133-.917h-.44c-.2 0-.307-.026-.307-.279 0-.252.133-.252.307-.252 1.053.027 1.919.08 3.359.08 1.747 0 5.08-.08 5.826-.08l6.013 12.348v-8.723c0-2.124-.307-3.094-1.467-3.094h-.253c-.16 0-.28-.026-.28-.279 0-.225.107-.252.307-.252.386 0 1.253.08 2 .08.746 0 1.919-.08 2.053-.08.08 0 .226.08.226.253 0 .199-.106.278-.28.278h-.253c-1.52 0-1.52.97-1.52 3.784v15.11c0 .2-.027.385-.613.385-.307 0-.587-.053-1.72-.053s-1.64.053-2 .053c-.44 0-.586-.08-.693-.385l-8.599-17.287z" fill="#fff"/></svg>