<svg width="123" height="226" fill="none" xmlns="http://www.w3.org/2000/svg"><path d="M44.025 170.202c.215 1.399.819 2.755 1.874 2.862 1.551.151 2.908-2.087 3.447-4.885 0-.043 0-.129-.108-.151l-3.813-.387c-1.766-.194-1.508 1.808-1.4 2.582v-.021zm13.248-7.425c-.215-1.399-.818-2.733-1.874-2.862-1.55-.151-2.908 2.087-3.447 4.885 0 .043 0 .129.108.151l3.813.387c1.766.194 1.508-1.829 1.4-2.582v.021zm-6.936 7.92s-.173-.129-.216-.022c-.99 1.83-2.498 3.013-4.265 2.82-2.693-.28-3.705-3.142-3.36-6.78 0 0 0-.043.043-.043h.086l6.764.711c.086 0 .13-.065.13-.108.042-.215.064-.452.085-.667.431-4.175-.646-7.167-2.477-7.36-1.27-.13-2.606.624-3.662 3.077 0 0 0 .022-.043.022l-.388-.043s-.043-.043-.021-.043c1.034-2.777 2.65-3.831 4.394-3.659 1.551.151 2.908 1.528 3.576 3.637.022.108.172.129.216.022.99-1.83 2.498-3.013 4.265-2.82 2.692.28 3.705 3.142 3.36 6.779 0 0 0 .043-.043.043h-.086l-6.764-.71c-.086 0-.13.065-.13.108-.043.215-.064.452-.086.667-.43 4.175.647 7.167 2.478 7.36 1.27.129 2.606-.624 3.662-3.077 0 0 0-.022.043-.022l.388.043.043.043c-1.034 2.777-2.65 3.831-4.395 3.659-1.55-.151-2.908-1.55-3.576-3.637h-.021z" fill="#E5004B"/><path d="M62.615 148.832c-.021 1.011.237 2.044.991 2.26 1.077.301 2.327-1.12 3.06-3.056 0-.043 0-.108-.065-.108l-2.672-.753c-1.227-.345-1.292 1.097-1.314 1.657zm10.362-3.637c.022-1.033-.237-2.045-.991-2.26-1.077-.301-2.326 1.119-3.059 3.056 0 .043 0 .108.065.108l2.67.753c1.229.344 1.293-1.098 1.315-1.657zm-5.924 4.777s-.108-.107-.15-.043c-.949 1.184-2.155 1.83-3.383 1.485-1.874-.538-2.24-2.69-1.55-5.229 0 0 0-.022.042 0h.065l4.718 1.356c.064 0 .107-.043.107-.065.043-.151.108-.301.151-.473.84-2.927.43-5.187-.862-5.553-.904-.258-1.938.129-2.994 1.743h-.022l-.258-.086s-.022-.021 0-.043c1.099-1.851 2.37-2.389 3.597-2.044 1.078.301 1.875 1.463 2.09 3.034 0 .086.108.108.15.043.927-1.183 2.155-1.829 3.383-1.485 1.874.538 2.24 2.69 1.55 5.23 0 0 0 .021-.042 0h-.065l-4.718-1.356c-.064 0-.107.043-.107.065-.043.15-.108.301-.151.473-.84 2.927-.43 5.187.862 5.553.904.258 1.917-.13 2.994-1.744h.022l.258.086s.022.022 0 .043c-1.099 1.851-2.37 2.389-3.597 2.045-1.078-.301-1.875-1.463-2.09-3.035z" fill="#EB5F5B"/><path d="M52.383 123.781c.625.818 1.487 1.442 2.197 1.14 1.035-.43 1.12-2.324.474-4.304 0-.043-.064-.086-.107-.064l-2.564 1.076c-1.185.495-.323 1.678 0 2.13v.022zm5.795-9.319c-.625-.818-1.486-1.442-2.197-1.14-1.034.43-1.12 2.324-.474 4.304 0 .043.064.086.129.064l2.563-1.076c1.185-.495.324-1.678 0-2.13l-.021-.022zm-1.616 7.425s-.15 0-.15.065c0 1.506-.517 2.776-1.702 3.271-1.788.753-3.447-.689-4.48-3.121v-.043h.064l4.523-1.937c.065-.021.065-.086.044-.107-.065-.151-.108-.302-.173-.452-1.185-2.798-2.908-4.305-4.136-3.788-.861.366-1.422 1.291-1.25 3.228v.022l-.258.107h-.043c-.323-2.13.345-3.357 1.508-3.852 1.034-.43 2.37-.043 3.533 1.055.064.064.15 0 .15-.065 0-1.507.518-2.776 1.703-3.271 1.809-.753 3.446.688 4.48 3.12v.043h-.065l-4.523 1.937c-.065.022-.065.086-.043.108.064.151.107.301.172.452 1.185 2.798 2.908 4.304 4.136 3.788.862-.366 1.422-1.292 1.25-3.229v-.021l.258-.108h.043c.323 2.131-.345 3.358-1.508 3.853-1.034.43-2.37.043-3.533-1.055z" fill="#EF8C98"/><path d="M71.232 91.607c.237 1.464.883 2.862 2.004 2.97 1.637.15 3.037-2.217 3.575-5.165 0-.043 0-.15-.107-.15l-4.007-.367c-1.853-.172-1.573 1.916-1.443 2.712h-.022zm13.83-7.92c-.237-1.463-.883-2.862-2.004-2.97-1.637-.15-3.037 2.217-3.576 5.165 0 .044 0 .151.108.151l4.007.366c1.853.172 1.573-1.915 1.443-2.712h.022zm-7.195 8.372c-.043-.108-.172-.129-.237 0-1.034 1.937-2.585 3.185-4.438 3.013-2.822-.258-3.92-3.25-3.597-7.059 0 0 0-.043.043-.043h.086l7.109.667c.086 0 .13-.064.13-.107.042-.237.064-.474.085-.71.41-4.39-.754-7.511-2.692-7.684-1.336-.129-2.715.689-3.813 3.272 0 0 0 .021-.043.021l-.41-.043-.043-.043c1.056-2.927 2.736-4.046 4.567-3.874 1.616.15 3.059 1.571 3.791 3.788.043.108.173.13.237.021 1.013-1.936 2.585-3.185 4.438-3.013 2.822.259 3.92 3.25 3.597 7.06 0 0 0 .043-.043.043h-.086L79.44 86.7c-.086 0-.129.065-.129.108-.021.237-.064.473-.086.71-.41 4.39.754 7.511 2.693 7.683 1.335.13 2.714-.688 3.813-3.271 0 0 0-.022.043-.022l.409.043.043.044c-1.055 2.926-2.736 4.045-4.567 3.873-1.615-.15-3.059-1.592-3.791-3.787v-.022z" fill="#E5004B"/><path d="M49.884 69.354c1.314 2.044 3.232 3.745 4.977 3.163 2.563-.839 3.123-5.337 1.981-10.136 0-.086-.107-.194-.258-.15l-6.312 2.065c-2.93.969-1.099 3.939-.41 5.058h.022zm15.661-21.048c-1.335-2.044-3.231-3.745-4.976-3.163-2.563.839-3.123 5.337-1.982 10.136 0 .086.108.215.28.15l6.312-2.065c2.93-.969 1.099-3.939.388-5.058h-.022zm-5.342 17.368c-.13-.15-.345-.065-.366.129-.259 3.594-1.81 6.5-4.718 7.468-4.438 1.463-8.056-2.346-10.06-8.308 0-.021 0-.064.043-.086l.13-.043 11.158-3.658c.15-.043.15-.194.13-.259-.109-.365-.216-.753-.345-1.119-2.262-6.886-6.075-10.825-9.112-9.835-2.112.689-3.663 2.82-3.598 7.447 0 0 0 .043-.043.064l-.625.215s-.086-.021-.086-.064c-.323-5.122 1.465-7.92 4.352-8.867 2.541-.84 5.665.387 8.207 3.207.129.15.344.064.366-.13.258-3.593 1.81-6.499 4.718-7.467 4.437-1.464 8.056 2.346 10.06 8.307 0 .021 0 .065-.044.086l-.129.043-11.158 3.659c-.151.043-.151.193-.13.258.108.366.216.753.345 1.119 2.262 6.887 6.075 10.847 9.112 9.835 2.111-.688 3.662-2.82 3.598-7.446 0 0 0-.043.043-.065l.624-.215s.087.022.087.065c.323 5.122-1.465 7.92-4.352 8.866-2.542.84-5.665-.387-8.207-3.206z" fill="#BB124F"/><path d="M30.799 206.444c-9.457.431-18.57-5.036-22.964-13.386-4.717-8.931-4.114-20.208 1.336-28.666.065-.086.065-.194 0-.259-5.967-3.981-9.09-11.621-7.927-18.68 1.378-8.329 8.94-14.914 17.491-14.355.151 0 .582-.258.41-.452-8.272-8.5-4.804-24.491 7.82-26.255.172-.022.56-.474.236-.495-9.564-.366-19.732-5.144-23.437-14.506-3.21-8.092-.41-20.208 8.789-22.92.108-.043.366-.236.301-.387-4.394-10.18-8.918-22.899-2.261-33.143 3.317-5.1 8.336-7.812 14.39-6.607 3.295.646 5.859.495 7.647-2.582.861-1.485 1.292-3.164 1.96-4.735a24.865 24.865 0 014.2-6.628C42 8.75 46.2 6.102 50.683 4.273 59.169.788 69.465-.59 78.535 1.003c5.557.968 10.9 3.55 14.066 8.372 3.167 4.82 4.244 11.19 1.185 16.313-.064.086-.086.258.065.28 10.081.602 18.999 7.403 22.898 16.635 4.223 10.008 2.305 22.232-4.631 30.539-.065.086-.151.237-.022.323 8.208 4.971 10.944 15.624 9.457 24.62-1.852 11.191-10.038 20.079-18.719 26.772-.13.086-.259.345-.044.388 10.965 2.69 10.125 20.574-1.938 20.552-.13 0-.603.28-.41.452 7.088 5.725 10.491 15.539 8.768 24.47-2.025 10.373-11.223 18.766-21.972 18.745-.194 0-.453.172-.431.409 1.507 9.34-6.097 17.002-14.843 18.594-3.985.732-8.078.452-12.041-.151-3.533-.538-7.303-1.872-10.9-.903-2.887.774-5.256 2.905-7.561 4.691-3.36 2.561-6.721 5.144-10.082 7.705-1.68 1.291-3.36 2.561-5.04 3.852-.517.409-1.358 1.571-2.025 1.055-.216-.173.344-2.303.43-2.734.84-4.476 2.456-8.737 4.697-12.697.215-.366-.324-.301-.453-.043-2.908 5.143-4.674 10.739-5.3 16.614-.02.237.302.129.389.043 4.89-3.744 9.801-7.489 14.691-11.234 2.37-1.808 4.718-3.895 7.281-5.423 3.533-2.109 6.98-1.593 10.792-.882 8.768 1.657 18.892 2.066 25.656-4.757 2.65-2.668 4.589-6.198 5.02-9.964.086-.839-.194-2.023 0-2.841.28-1.054.086-.753 1.335-.861a21.662 21.662 0 006.247-1.485c7.109-2.883 12.623-9.275 14.433-16.722 2.24-9.318-1.077-19.799-8.552-25.847l-.409.452c5.127 0 9.672-3.959 10.577-8.995.538-2.992-.302-6.155-2.111-8.587a11.18 11.18 0 00-2.93-2.755c-1.81-1.141-3.188-.624-1.034-2.389 10.663-8.694 19.581-21.349 16.953-35.747-.56-3.099-1.659-6.112-3.339-8.78a19.195 19.195 0 00-3.08-3.766c-.97-.904-2.779-1.615-2.348-2.906.409-1.227 1.831-2.582 2.477-3.766a29.193 29.193 0 002.133-4.907 31.582 31.582 0 001.637-10.588c-.108-7.06-2.715-13.882-7.54-19.068a27.866 27.866 0 00-7.992-5.983 24.96 24.96 0 00-4.566-1.743c-.82-.215-3.921-.259-4.481-.797s.646-2.517.818-3.163c.388-1.399.517-2.862.431-4.326-.15-3.206-1.292-6.37-3.059-9.039C89.025 2.875 81.658.508 74.593.1 62.27-.611 47.666 2.423 38.94 11.763a25.529 25.529 0 00-4.825 7.404c-.646 1.528-1.012 3.594-2.09 4.885-1.292 1.571-3.877 2.389-5.837 2.044-1.099-.193-2.176-.516-3.296-.602-5.601-.43-10.405 3.573-13.14 8.113C5.746 40.344 6.24 48.414 8.33 55.71a72.526 72.526 0 002.283 6.607c.366.925.84 1.829 1.142 2.754.41 1.292.13 1.141-.926 1.636-2.09.947-3.835 2.497-5.192 4.326C2.3 75.53 1.201 81.75 2.45 87.195c1.486 6.435 6.462 11.536 12.279 14.333 2.886 1.399 6.01 2.282 9.176 2.69.84.108 1.702.087 2.391 0 .539-.043-.56-.043-.603-.043-.237 0-.56.151-.797.216-1.486.43-2.886 1.14-4.157 2.001-5.02 3.487-7.497 9.556-6.592 15.56a16.548 16.548 0 004.502 9.103l.41-.452c-6.054-.387-11.805 2.669-15.295 7.576-3.985 5.638-4.244 13.128-1.25 19.261a18.699 18.699 0 002.65 4.046c.819.947 3.124 2.26 3.124 3.551 0 .603-.927 1.614-1.207 2.196a27.58 27.58 0 00-1.012 2.302c-.711 1.83-1.206 3.745-1.53 5.66-1.249 7.533.367 15.603 5.041 21.715 4.976 6.521 12.86 10.417 21.068 10.029.237 0 .56-.516.194-.495h-.043z" fill="#E50814" opacity=".8"/></svg>