<svg width="73" height="71" fill="none" xmlns="http://www.w3.org/2000/svg"><path d="M42.786 52.6c0-.483-.395-.988-.527-1.185a8.315 8.315 0 01-1.01-2.13c-.286-.945-.572-1.89-.924-2.768v-.044c-.373-1.34-1.164-2.481-2.241-2.437-1.01.044-1.89 1.098-2.857 1.625a.776.776 0 01-.197.088.21.21 0 01-.198-.044c-.44-.483-.637-1.427-.989-2.042-.462-.835-1.12-1.164-1.89-1.186-.703-.022-1.428.549-2.087 1.208l-.022.021c-.594.462-1.165 1.01-1.736 1.538-.462.417-.923.856-1.407 1.186-.505.35-.989.549-1.494.856-.176.11-.352.22-.505.461-.066.11-.088.33-.088.461.044.879.835 4.656 2.307 7.818.088.198.176.374.286.571.505.967 1.076 1.867 1.758 2.57 1.977 2.042 4.636 1.515 7.23-.176.175-.11.35-.22.527-.351 2.856-1.999 5.471-4.941 5.955-5.666a.729.729 0 00.11-.351V52.6z" fill="#8B2138"/><path d="M58.63 35.602s-.176-.11-.22-.131c0 .175.286.132.22.132zm.066 1.713l-.066-.043.154.285-.088-.242zm-.44 1.473c.418 0 .154-.527.352-.77h.088l-.264-.219c0 .33 0 .813-.176.989zm-1.076.482c.154 0 .066.198.11-.153h-.044c0 .022-.022.066-.066.132v.021zm.066-.153c-.154.044.044-.154 0 0zm-.176.724l-.044-.241s-.176.175-.22.087c0 .22.088.22.264.154zm.198.286v-.132s-.088.022 0 .132z" fill="#681418"/><path d="M57.224 39.753v.264s.22.044.022-.11c.11.066 0-.022-.022-.154zm.088-.109c.11-.088.22-.198.263.044.088-.395-.176-.44-.264-.044zm1.274-.659l.154-.11-.066-.176s-.198.264-.088.286zm-2.219 1.932s.22.022.33.066v-.175s-.22.153-.33.11zm.329.066v.264c.132-.176.088-.242 0-.264zm.945-.659l-.132-.461.11.527.022-.066zm-1.648 1.362l-.132-.198.154.352-.022-.154zm-.242.549c-.087-.154-.307 0-.33-.154-.065.132 0 .33.045.483 0-.132.088-.241.307-.33h-.022z" fill="#681418"/><path d="M55.51 42.806s-.022-.154-.044-.264c0 .066 0 .154.044.264zm1.01-1.23s-.175-.044-.285.066h.242l.044-.066zm-.043.088s-.088.154-.088.176c0 0 .044-.066.11-.176h-.022zm.725-.856c.066.175.066.483.351.329-.11-.154-.263-.066-.351-.33zm-.374.79l.154-.198s-.154 0-.176-.11v.308h.022zm.022.132l-.022-.132-.044.066.066.065zm-.945.834c.022.132-.022.242-.088.352.11-.088.22-.198.286-.33-.044-.044-.132-.175-.198-.044v.022zm-.747 1.45h.044l-.022-.022-.022.022zm1.011-1.406s.088-.153.044-.241c0 .088-.044.153-.088.241.022.022.044.044.044 0zm-.747.549s.132-.044.198-.088c-.088 0-.242.044-.198.088zm.725-.988l.066.198v-.198h-.066zm.022 3.031c-.154-.132-.176-.506.154-.571 0-.308-.681-.55-1.121-.593.066.066.154.11.11.395.132 0 .505-.307.571-.022-.088.351-.198.198-.373.264.307.043.066.548.417.724l.066-.307s.066.175.154.131l.022-.021z" fill="#681418"/><path d="M55.466 43.64v-.087s-.176.11-.396.132c0 .197.044.263.11.329l.286-.395v.044-.022zm.264-.483c.153.176.11.44.395.461.154-.263-.066-.285-.044-.483-.198.44-.044-.175-.33.044a.4.4 0 01.088-.242.79.79 0 01-.22.154h.023l.065.066c-.11.088-.066 0-.066-.066h-.021v-.022l-.132.461s.132-.175.241-.373zm2.175-1.581h-.066c0 .044.022.066.066 0zm-.22.11s-.088-.11 0-.198c.11-.066.11.044.176.066-.022-.088-.044-.285-.242-.132v.044c-.154.154-.527.242-.527.198.22.044.373.066.615.022h-.022zm-.901.834c-.022.132-.044.285-.088.417l.286-.088-.11-.043c.154-.176 0-.22-.088-.286zm-1.736 1.472l-.176-.176.154.373.022-.197zm-.263.439l-.176-.154.022.176.154-.022zm-25.952 8.323l.066-.087s-.088.065-.066.087zm16.085-1.252c-.22-.154-.483-.395-.395-.176l.11.22s.197-.066.285-.044zm-8.614 2.108l.044.066s.11-.154.154-.22l-.198.132v.022zm-.242.945l-.22-.176s.11.132.22.176zm-12.481-4.831l-.264.088c.176.153.176 0 .264-.088zM51.29 48.23a.6.6 0 00-.351.11c.22 0 .44.065.352-.11zm-21.864 2.064s-.132.044-.154.088c.088 0 .132-.022.154-.088zm21.184-1.691h.087c.066-.087.11-.197.22-.263-.154 0-.308.044-.33.263h.022zM15.934 33.297s0-.022.022-.044c-.022 0-.044 0-.022.044zm2.703-4.963v.197c.022-.044.022-.088 0-.197zm35.84 17.81s0 .065.066.11c-.044-.045-.066-.088-.066-.11zm-.857-.242s-.11.022-.154.044c.022 0 .066 0 .154-.044zm-.088-.065l.066-.066c-.022-.044-.044-.044-.066.066zm-.198.219s.088-.088.132-.11h-.044c0 .022-.044.066-.088.11zm-34.456-3.47v-.022c-.131-.066-.11-.022 0 .022zm23.689 11.947l.022-.022h-.022v.022zm-.396.241c.154-.307.242-.285.396-.263l-.242-.637-.154.9z" fill="#681418"/><path d="M26.02 51.304l.154.33c-.505.11-.66-.154-.593.264.417-.593 1.098.548 1.494-.066l.11.241s-.066 0-.132-.044c.176.505.505-.307.9.022.133.132.199.264.045.308h.44s0 .175-.089.11l.572.197c.132-.044.373-.132.483-.154.088.154-.11.044-.11.132h.374c.044.198-.264.264-.462.132 0 .79.308-.044.77.593-.11 0-.22 0-.33-.022.022.483.33.395.571.768-.044-.153-.44-.856-.022-.9.066.088.198.154.418.088-.088.242.11.242.33.307l-.133.33c.286 0 .308-.176.506-.286.264.132.22.396.22.637.417.198-.176-.505.351-.395.33.22.638.154 1.12.066.22.175-.087.197-.021.307l.286-.197v.131c.22-.044.087-.33.417-.351.154-.33.505.68.967.33.066.11-.088.197-.088.329.571-.198.483-.132.967-.44l.33.286c-.22-.307.153-.527.461-.769a1.64 1.64 0 01-.176-.307l.484-.154s0 .176-.11.308l.088-.066c.154.132.044.33-.088.505l-.154-.22c-.132.198-.286.418-.286.615a.442.442 0 01.176-.088c-.044.044-.066.11-.044.132 0 .044.066-.044.154-.11l.066.396.044-.154.615.285c.484-.373.901-.856 1.582-1.032-.175.286-.044.461-.066.79-.175-.35-.549.155-.922.045.197.044.131.197.087.263.22-.088.44-.175.682-.285 0 .263.131.197.307.307-.132-.549.484-.373.747-.527 0 .176-.044.373-.373.33.373.395.461-.637.813-.286-.088 0-.132-.022-.154.066.176-.154.637-.044.527.11h-.088c.528.022 1.605-.132 1.627-.593v.659c.263-.527.483-1.076.68-1.647 0 .395.44 1.273.045 1.58.132.023.307.067.55-.109-.089-.044-.309-.527-.199-.571.396.373.264.198.726.483-.154-.066-.132-.68.065-.703 0 .088.154.593.088.681l.374-.68c-.088.131.088.505.242.658-.088-.11.44-.11.549-.197l-.242-.066c.572-.066.308-.989.857-1.098-.022.131.066.79.374.768.044-.33.088-1.58.417-1.976l.154.132.264-.33c-.022.505-.286 1.691-.528 2.152.242.066.132.198.418.066.154.11-.088.308-.176.352a7.36 7.36 0 00.747-.176c-.154-.33.418-.55.264-.835l-.637.66c-.154-.33.066-1.143.571-1.274.176.087.154.636.22.746 0-.132.373-.417.461-.351l-.132.263c.33 0 .264-.615.726-.46.11-.045.527.24.461.043-.374-.264-.967-1.405-.989-1.735.044 0 .703.066.923.198.33.197.11.812.396.988-.044-.088 0-.242 0-.307.153 0 .11.285.33.131-.133-.351.505-.241-.045-.329.176-.22.308-.066.55-.264-.198-.153-.198-.834-.022-1.076.044.088.154.154.197.198.462-.264.813-.285 1.231-.593.088.044.352-.022.352.154 0-.11 0-.242.11-.352.439.044-.242.264.175.418-.11-.176.132-.505.22-.747-.264-.22-.44.285-.527.527-.286-.351-.286-.988-.022-1.471.241-.352.33.11.33 0 .659-.417-.045-1.01.614-1.208.374.022.418.395.594.505-.154.33-.484.242-.637.417l.285-.11c0 .154-.11.374-.263.374.351.066.966-.9 1.56-1.164 0-.154.066-.351-.088-.351l-.11.153c-.286-.044 0-.461-.242-.373.066-.286 0-.68.33-.857l.308.154s-.286.066-.286.198c-.022-.198.681-.154.44-.55l-.33.045c.022-.308-.066-.747.197-.923-.351-.087 0 .088-.439 0 .483.132-.483.593.088.66-.483-.11-.374.175-.835.153.088.066.22.066.022.22a.24.24 0 00.044.11h.198c.131.263-.176.548-.176.746-.154.066-.044-.132-.198-.154v.286c-.198-.154-.571 0-.44-.352l-.22.22c-.219.044-.439.176-.483.373-.131.066-.066.462-.11.242-.087.154-.175.285-.263.44l-.044-.045c-.396.286-.528.966-1.23.966-.11.132-.199.286-.462.396l-.154-.154c-.132.176-.637.176-.593.395-.462-.33-.923.417-1.297.483l.11.242c-.242.11-.417.285-.637.527l.132.22c-.154.329-.725.131-1.121.307 0-.088.11-.11.198-.088-.681-.33-.857.813-1.473.55-.087.109-.175.109-.285.087h.022-.044l-.198-.066c.066.044.132.066.176.088-.088.022-.198.088-.33.198l-.132-.242h-.022c-.153-.066-.066.154.044.308-.044.065-.11.131-.131.197-.22-.373-.308.242-.572-.154-.022.242-.637.286-.615.77 0-.067-.066-.089 0-.089-.154-.022-.33-.044-.44.11l-.131-.307-.264.505c-.242-.154-.33-.264-.176-.55-.417.484-.351.22-.725.638v-.22c-.154.022-.352.33-.462.154-.197-.176-.593-.154-1.076-.132-.484 0-1.011 0-1.429-.198.154.637-.395-.285-.44.198-.043-.154-.153-.242 0-.352-.439.11-.614-.285-.944.11-.044-.153.11-.22.066-.307-.044.022-.154.11-.176.022-.044-.088.066-.11.154-.176-.44 0-.527.44-.593.857-.198-.22-.308-.198-.528.066-.066-.154-.175-.308.11-.33-.154-.044-.9-.351-.967 0-.044-.088-.22-.066-.263-.022-.352-.088-.374-.11-.704-.132l.088.066c-.22.396-.307.022-.593 0v-.044c-.527-.46-.286.066-.813-.417l-.044.264c-.198.505-.462-.44-.857-.374l.088.176c-.242.11-.286-.9-.44-1.032-.022-.066.088-.044.154-.066-.373-.483-.176.307-.571.242 0-.198.242-.396 0-.527-.066-.176-.923.307-1.099-.176 0 .154.022.33-.176.351-.285-.066-.44-.79-.857-.505v-.11c-.241.022-.703-.132-.922 0 .263-.878-1.363-.285-.945-.988-.198-.088-.374-.22-.55-.33l.066-.065c-.308-.286-.527-.198-.769-.132-.044-.11.066-.132.088-.154-.396-.483-.462-.46-1.099-.483l.132-.241c-.198.022-.373-.879-1.033-1.033.022 0 .066-.043.132-.043-.703-.264-.527-1.626-1.428-1.164-.176-.044-.308-.11-.462-.176.286.505-.373.197-.351.505-.198-.154-.132-.659.066-.461v.066c.44-.242-.308-.681-.022-.879-.748-.856-1.033-1.954-1.517-2.855l-.285.286-.132-.352c.044-.131.22-.263.308 0 .131-.22-.352-.307-.44-.285-.088-.527.506-.022.44-.176l-.11-.175v.066c-.242-.088-.396-.022-.528-.308 0-.22.176-.198.154-.263.022 0 .022-.044-.044-.11a1.459 1.459 0 01-.132-.44l-.22.286c-.22-.132-.131-.417-.395-.088.418-.505-.417-1.69-.286-1.932-.285-.22-.351-.505-.395-.835-.044.11-.374.242-.396-.066.726-.066.176-.615.638-.944-.308.285-.22-.834-.638-.417.022-.264.264-.066.418-.286-.33-.549-.044-1.317-.132-2.042-.088 0-.242.132-.374-.022l.462-.417c-.044-.132-.55-.11-.22-.396-.088.044-.198.11-.22 0 .176-.724.11-1.47.154-2.218 0-.746.066-1.515.637-2.174-.22.176-.22.044-.197-.11-.066.088-.242-.043-.352-.043l.462-.55c-.33-.175.088-.658-.242-.79v.198c-.33-.352-.923.197-1.407.066.396.373-.813.702-.241 1.295-.132.088-.154-.11-.286-.066.198.154.22.308.066.593l-.044-.044c0 .813-.264 1.142-.461 2.065l.263-.066c-.044.197-.132.241-.198.33.374.24.066-.55.484-.33-.571.241-.066 1.383-.637 1.559 0 .307.285-.088.307.22l-.154.087.198.066c-.022.198-.22.308-.351.33 0-.044-.044-.132-.044-.198-.176.264.088.747.022.834l.088-.307c.131.835.153 1.889.549 2.635l.11-.087c.285.57-.066.505.198 1.163h-.044c.154.088.241.242.285.44-.175-.132-.197.373-.395.197.395.593.264.286.79.593l-.175.154c.198.088.308.088.462.373-.264-.197-.22.286-.55.066-.176.813.77.857.286 1.384.637.11.088-.681.242-.55.11-.197.483.11.505.33.088.198-.571.637-.286 1.142-.022-.044-.066-.044-.088-.088-.044.264.352.308.264.637.374 0 .132.33.527.176l-.307-.418c.242.22.791.242.791.791a.773.773 0 01-.352-.132c-.044.176.198.198.154.395-.395.154-.351-.527-.79-.68-.089.22.549.417.065.483.637-.066.176.57.77.68l-.243.11s.242.088.286.176h-.395c.417.11.11.637.417.835-.351-.55.176-.286.198-.615.703.483-.33.746.242 1.427-.088-.088-.11-.461.087-.373.044.176.088.417.044.57.396.44.154-.219.44-.109-.132.351.285.154.505.285l-.198.154c.286.637.528-.197.748.395h-.44l.264.22-.264.132c.396.132.396.263.572.549a.38.38 0 01.593-.088c.022.242-.264.088.044.351-.176.044-.418.11-.352-.197-.066.044-.176.044-.264.088 0 .285.352.417.462.527a.237.237 0 01-.066-.154l.681.198c0 .131-.11.131-.22.131.11.066.242.044.396.154-.176.11-.33.286-.571.154l.571.263s.044.374-.066.396c.176.307.879.22 1.099.614h.198c.263.308.395.725.966.77v.46c.352.154 0-.593.572-.351.417.154-.044.351 0 .527.285-.044.79-.132.989.33-.154 0-.22-.11-.33-.154l-.088.087zm4.131 1.911s-.33.11-.33-.044c.198-.241.22-.088.33.044zm6.746.944s-.175.022-.263-.087c.088 0 .175 0 .263.087zm15.866-7.247c-.198.066-.132.044 0 0zm.33-.175s-.023-.066-.067-.088c.022.066-.021.132-.11.176.067.021.133.021.177-.088zM19.91 40.742v.087c-.176-.11-.088-.11 0-.087z" fill="#681418"/><path d="M36.106 54.445v-.154c-.044.044-.044.088 0 .154zm-12.481-4.722v-.022l-.044.022h.044zm26.062 2.372s-.154 0-.198-.044c.022.066.088.088.198.044zm4.35-7.093l-.087.22s.131-.088.197-.11c-.044-.044-.154-.044-.11-.11zm2.505-.747s.044-.066.023-.11l-.11-.066c-.066.132-.044.286.087.176zm-1.692 1.12c.176.11.22-.044.286-.198-.22-.198-.242 0-.264.198h-.022zm.308-.242s.044-.088.088-.131c-.088-.088-.066.043-.088.131zm-1.824 1.187s-.176-.22-.066-.198c-.154-.241-.11.593.066.198zm2.176-.615l-.264-.11.132.197.132-.087zm-.99.944l.22-.176s-.043-.066-.021-.11c-.11.132-.264.242-.198.286z" fill="#681418"/><path d="M54.719 46.364s.11-.132.11-.198c-.023.044-.089.132-.11.198zm.615-.308l-.088.022-.132.154.22-.176zm-2.967 2.614l-.175.241s.131.088.197 0c0-.088.066-.198 0-.242h-.022zm1.187-.045s-.132 0-.242-.066l.22.242v-.198l.022.022zm-.637.637s-.176.505.11.22c-.044-.088.153-.352-.11-.22zm-4.087 2.24l.065-.022-.263-.483.198.505zm-3.385 2.768c.396 0 0-.352.374-.286.044-.153-.308-.044-.264-.175-.175.197-.307.153-.11.483v-.022zm.11-.484s.066-.066.088-.11c-.044.044-.066.088-.088.11zM19.076 27.587l.132-.197-.198.11.066.087zm-.329-.505h.351l-.285-.175c0 .044 0 .154-.066.175zm11.8 27.012l.044-.066s-.066-.131-.154-.175l.11.241zm-2.989-1.582l.044.044.066-.33-.11.286zm-2.637-1.142s.242.11.33.176c-.242-.11-.132-.527-.33-.175zm31.336-18.204s-.198.044-.242.066c.044 0 .286-.088.242-.066zm.549-.001l-.088.022.22-.044-.132.022zm.044.154c.374-.132-.066-.044.044-.11h.088l-.308.044c.066 0 .264 0 .176.044v.022zm-.791.307c.132-.044.132 0 .044-.022h-.044v.022zm.11.022h-.132s-.088.066-.154.088a.662.662 0 00.286-.088zm.286-.044h-.066s-.044.022.066 0z" fill="#681418"/><path d="M56.257 33.605h.132s.175-.066-.044 0c.11-.022 0 0-.088 0zm.066-.023s.132-.066.263-.088c-.066-.022-.33.066-.263.088zm.901-.372l.11-.044h-.132s-.088.087.022.044zm-1.209.636s.198-.066.308-.088h-.088s-.088.066-.22.088zm.308-.11h.132s-.066-.022-.132 0zm.527-.263l-.286.044.308-.022-.022-.022zm-.813.461l-.198.022.286-.044-.088.022zm.044.043c-.154.045-.264.066-.352.11.022 0 .154 0 .286-.044-.066 0-.066 0 .066-.066z" fill="#681418"/><path d="M56.19 34s-.109 0-.175.022c.044 0 .088 0 .176-.022zm.243-.22s-.176.044-.22.088l.22-.066v-.022zm.241-.176c.132-.021.264-.044.44-.11-.154.045-.264.089-.44.11zm.044.066l.044-.044s-.154.044-.198.066h.154v-.022z" fill="#681418"/><path d="M56.784 33.67h-.066l-.022.022.088-.022zm-.395.242h.131c.044-.022.066-.044.066-.066-.066 0-.197.044-.175.066h-.022zM56.3 34s.089-.044.11-.044c-.065.022-.175.066-.11.044zm.089-.132s.087 0 .131-.022h-.153l.022.022zm1.604-.198c-.198.066-.396.088-.198 0-.154 0-.835.22-1.209.352.088-.022.176-.044.308-.066.11-.044.242-.132.44-.154.11 0-.066.044-.176.088.242-.088.373-.066.769-.176h-.132s.154-.022.198-.044zm-1.385.286h-.022s-.11.044-.263.11c.11 0 .175-.022.241-.044v-.066h.044z" fill="#681418"/><path d="M56.564 33.912c.22-.066.33-.066.572-.154-.022-.022-.198.044-.286.044.066.022-.132.022-.242.088h-.066a.167.167 0 00-.087.044h.022l.087-.022c-.044.022-.066 0-.087 0h-.044.131v-.022.022zm.923-.483s-.132.022-.11 0c.066-.022.11-.022.176-.044a.662.662 0 00-.263.066h.022s-.352.131-.374.153l.527-.175h.022zm-.417.241h.11l.197-.066-.11.044s-.11 0-.197.044v-.022zm-.637.395l-.22.066.33-.066h-.11zm.044.045l-.198.043.132-.022.066-.022zm.329 1.185c-.198.066-.483.154-.264.088l.22-.066.022-.044.022.022zm-.11-.702s-.11.065-.132.065c.132-.043.308-.11.132-.065zm-.11.109h.044-.066c-.087.044-.153.066 0 .044l.022-.044zm.726-.659s.065 0 .11-.021c-.066 0-.088 0-.11.021zm-.77.242s-.044.022-.066.022c0 0 .044 0 .066-.022zm-.087.065v-.021h-.044l.044.022zm2.966.682c-.286.044-.264.022-.198 0l-.659.154.857-.154z" fill="#681418"/><path d="M59.795 36.635l.197-.066c.352 0 .242.022.528-.044-.725.11-.088-.11-.813 0l.154-.044h.022c.351-.087-.528.066-.44 0a.677.677 0 01.242-.044h-.176s.132-.043.132-.021l-.066-.044H59.2c.11-.022.088 0 .176-.022H59.2c.176-.044.374-.044.352-.022.725-.132-.176 0 .22-.132h.087c.418-.066.264-.066.506-.132-.132.022-.637.176-.813.154.044 0 .088-.044-.066-.022.264-.044.198-.044.176-.066l.351-.044s-.285 0-.44.022c.023-.022.287-.088.506-.132.044-.044-.417.11-.483.066.132-.066 0-.066-.22-.066.11-.044.22-.022.308-.066h-.286.132c-.11 0-.33.066-.44.044-.373.066.528-.153.11-.11.088 0 .198-.043.33-.065h-.593l.22-.066c-.242.066-.55.088-.814.11-.132.022-.22.066-.285.066h-.198s.176-.044.308-.066h-.088c.131-.022.33-.066.505-.088l-.198.044c.198-.022.44-.066.638-.088h-.088c.066 0 .11 0 .131-.022h-.131l.373-.088h-.154l.22-.088c-.396.022-.945.088-1.12.066.285-.044.46-.088.79-.154-.351.088.154.022.088.066.044-.022.198-.044.242-.066h-.33c.264-.044.198-.066.308-.087-.527.11-.351.022-.527.022.175-.044.351-.066.33-.023.395-.11-.638.088-.308 0h.066c-.154 0-.044-.043.11-.065 0 0-.023-.154-.484-.066.066 0 .55-.11.637-.132l-1.538.242c.396-.066 1.297-.308 1.516-.308.044-.022.11-.044-.022-.044-.044 0-.549.132-.593.132.418-.132.22-.066.571-.198-.087.022-.68.154-.68.132.087 0 .593-.132.658-.132l-.593.088s.506-.11.66-.154c-.11.022 0-.043-.067-.043l-.131.043s-.836.132-.836.088c.132-.022.748-.153.814-.197-.308.066-1.473.285-1.714.307l.175-.044h-.197c.461-.066 1.428-.241 1.802-.285.131-.044.197-.044.175-.088.154-.044.242-.044.264-.044l.088-.088c-.352.088-.374.022-.66.11h.396c-.351.066-1.01.176-.967.132.132-.044.638-.154.748-.176-.132.022-.242 0-.154 0h.197c.132-.088-.483.044-.153-.066 0 0 .44-.154.241-.088-.395.11-1.648.44-1.933.483.021 0 .373-.131.57-.22.308-.087.748-.153 1.034-.24-.088 0-.22.043-.264.043.088-.022.308-.066.242-.088-.352.088 0-.066-.308.066-.11 0 .066-.044.044-.066-.22.066-.791.176-.9.176.087-.022.197-.066.263-.066 0-.066.176-.132.154-.176.087-.022.175-.087.33-.11-.067 0-.199.044-.199.023.308-.11.066 0 .418-.11-.198.044-.286.044-.44.044-.307.087-.043.066.088.044-.44.11-.9.197-1.12.197-.11 0 .285-.088.22-.088.065-.087-.792.154-.484 0 .264-.11.55-.153.747-.22.11 0-.154.089-.154.11l.132-.065h.088c.242-.088 0-.132.22-.264a.862.862 0 00-.308.066h.044c-.22.088-.33.066-.417.11-.176 0-.418.066-.308 0l.308-.088s-.176.066-.088.066c-.154.022.417-.176 0-.066l-.22.088c-.176 0-.506.088-.418.022-.307.11.044 0-.33.11.462-.154 0 .087.484-.088-.417.132-.176.088-.527.22.11-.023.198-.067.154-.023h.088c.043 0 .11-.044.153-.065.242-.044.242 0 .374-.044-.044.022-.132.022-.242.065h.198c-.242.044-.374.11-.527.11v.044c-.132.044-.176.088-.066.088-.044.022.263-.044.088 0h.153l-.066.022c0 .044.418 0 0 .154.066 0 .132 0 .088.044l-.197.066s-.198.11.022.065c-.55.154-.088.132-.176.176l.264-.066s.065.022.175.044l.242-.066c.198 0-.154.11-.11.154-.088 0-.066 0 0 0-.527.176.418 0 .044.154.088 0 .066 0 0 .022-.044 0-.088.022-.132.044.066 0 .11-.044.132-.044h.11l-.242.066s.132 0 .308-.066h.154c-.418.11.153 0-.286.11.22-.044.176.021.615-.066h-.088c-.044.022-.088.044.044.044l-.33.087.44-.066a3.368 3.368 0 01-.55.132c.396-.022.155 0 .55-.044l-.22.044s.286-.022.132 0c-.395.11 0 .176-.373.33.615-.132-.264.087.22 0-.154.044-.22.066-.352.066.154 0-.22.11.198.065-.154.022-.22.044-.308.044h.044c-.088 0-.132 0-.198.022.022.044.484-.044.901-.11-.198.066-.176.066.11.023-.132.021-.286.065-.33.043 0 0-.175.132.154.066-.088 0 0 .022 0 .022 0 .044-.044.044 0 .066h.044c.418-.066.088 0 .154 0h-.044c-.286.11.154 0-.176.132l.264-.044c.55-.088-.308.11-.11.11l.154-.044c.198 0-.747.175-.813.197h-.11c-.308.11.33-.043.417-.022-.175.044-.46.066-.483.088-.154.044.593 0 .264.066.132-.022.285-.066.373-.066.044 0-.505.154-.066.11h-.11c.11.022.198.066.44.044-.879.154.44.066-.373.176l.043.066h-.088s.154.044.352.022c-.044 0-.132 0-.176.022-.154.087-.132.087.286.087l-.264.044c.154 0-.395.132-.088.154h-.11c.33.022-.703.264.264.154h.242s.417-.044.571-.088c.066 0-.285.088-.33.066h.045c-.506.044-.176.088-.506.132.044.11-.22.241-.242.351l.396-.066v.044s-.33.044-.308.022c-.22.044.198 0 .286 0-.154.066-.461.044-.461.044h.065c.154 0 .33-.022.308 0a1.618 1.618 0 01-.264.044c-.043 0-.021 0 0 0v.044l.286-.066c.154 0 0 .044.33 0-.528.11-.176.198-.33.241.22 0 .22.022.198.066.066 0 .417-.066.373-.022-.725.088-.307.088-.813.176.33-.066.088.066.572 0-.044.022-.264.044-.44.066.286.022-.154.154-.066.22.088 0 .242-.044.374-.044l-.462.087s.55-.043.22 0c.088 0 .198-.043.22-.021-.44.197.417.241-.44.505.176-.044.198-.022.198 0 .044 0 .242-.022.352-.044l-.352.11c.352-.044.022.065.374.021h-.066c.395-.044.879-.153 1.406-.22-.461.023.66-.153 0-.131.11-.022.176 0 .286-.022-.22 0-.264 0-.176-.022h.044s.154-.132.286-.241l-.242.044s.11-.044.176-.044c-.396.022 0 .044-.44.087.506-.087 0-.131.572-.22 0-.021-.286.045-.286 0h.154-.198c.022-.021.22-.065.373-.065h.044c.176-.044-.065-.066 0-.066l-.087.044c-.154-.066.044-.176-.286-.22h-.11c-.22 0 .132-.044 0-.087h.022c-.132 0-.176 0-.176-.023.132 0 .264-.065.418-.065-.242-.022-.198 0-.637 0l.197-.044h-.33c.176 0 .308-.066.528-.066.418-.11-.461-.044.176-.154-.55.044-.308.088-.418.088-.175.044-.417.022-.351 0 0-.022.703-.132.68-.176h.045c.132-.022-.198 0 .022-.066-.33.022 0-.043-.418 0l.11.044c-.11 0-.615.022-.373-.044h.263c.132-.022-.088 0 .044-.043.418-.044.11.043.418.043.176-.043-.308 0 .154-.066-.594.044.066-.065-.374-.043h.264s-.154-.022-.154-.044h.33c-.286 0 .241-.11.087-.11 0 .066-.307.044-.483.11-.352-.022.66-.132.527-.198.044 0-.153.066-.263.066a1.11 1.11 0 01.285-.088c-.066-.044-.263.044-.417.044.307-.066-.132 0-.242 0l.264-.044c.154-.088-.55.044-.352-.022h.352l-.088-.044h.286c-.22-.044-.176-.044-.088-.088-.176.022-.462.066-.484.022.154-.044.242 0 .198-.066.154 0 .374-.021.132 0h.242c.175-.066.044-.087.022-.087l-.066.022h-.374s.176-.044.242-.044h-.176c.22-.022.418-.044.527-.044h-.241s.241-.088.33-.088c.11-.044-.418 0-.264-.088h-.11c.044-.044.285-.11 0-.11l.373-.088s-.461.11-.615.066c-.132-.022.308-.066.418-.088-.198 0-.594.022-.286-.066.066 0 0 0 .044.023l.176.175zm-.22-.417h.066c-.286.044-.154 0-.066 0zm-.725-.55s.044 0-.044.045c-.022 0 0 0 .044-.044zm-2.044-1.36h-.11s.066 0 .066.021c.066 0 .11-.044.044-.022zm.813 3.798z" fill="#681418"/><path d="M59.047 34.329s-.087.022-.131.044c.066 0 .11-.022.132-.044zm-2.747-.066h.067s.044-.022.066-.044a.434.434 0 00-.154.044h.022zm1.495-.636h-.044l-.11.043s.11 0 .154-.044zm-.681.373c.22-.066.132-.066.088-.066-.286.087-.198.066-.088.066zm.088-.066c-.11.022-.022 0 0 0zm-.572.373l-.175.044c-.264.066.33-.044.175-.044zm1.187-.505l-.264.066.22-.044.044-.022zm-.154.175l.066-.043h-.088s-.044.044.022.022v.021zm.242-.175l-.066.022v.022l.066-.044zm-.22.461h.088s.154-.044.11-.044c-.066 0-.11 0-.198.044zm.681-.263s-.11.043-.197.065l.33-.087h-.133v.021zm.11.043s.264-.021.242-.066c-.088 0-.176 0-.242.066zm-.307.55l-.528.131.528-.131zm1.384.087c.11-.065-.33.066-.176 0-.132 0-.132.066-.242.066.132 0 .066 0 .418-.065zm-2.088 4.832l-.11.044.198-.044h-.088zm.418 0l-.352.044h.308s-.044-.044.022-.044h.022zm2.373-3.449h-.088s-.088.044-.11.044l.198-.044zm-.22.353h.022l-.33.043.308-.044zm.44.197s-.066 0-.044-.022c.066 0-.352.088.044.022zM13.319 29.08l.11.22c0-.044-.132-.263-.11-.22zm-.088-.527l.022.088-.066-.22.044.132zm.132-.043c-.154-.352-.022.087-.11-.044l-.044-.088.11.285s-.022-.263.044-.175v.022zm.373.746c-.043-.132-.022-.132-.022-.044v.044h.022zm.022-.11v.132s.088.088.088.154c0-.066-.044-.154-.088-.285zm-.065-.264v.066s.021.044 0-.066z" fill="#681418"/><path d="M13.714 29.059v-.11s-.087-.176 0 .044c-.043-.11 0 0 0 .066zm-.044-.044s-.065-.11-.087-.264c-.022.066.066.307.088.264zm-.439-.9l-.066-.11v.132s.11.087.066-.022zm.703 1.185s-.066-.198-.088-.307v.088s.066.087.088.22zm-.11-.307v-.132s-.022.066 0 .132zm-.264-.527l.045.307-.044-.307zm.462.812l.044.198L14 29.19l.022.088zm.066-.044c.044.154.066.264.088.352 0-.022 0-.176-.022-.286 0 .066 0 .066-.066-.066zm-.22-.352s.044.176.088.22l-.066-.22h-.022zm-.175-.242c-.022-.13-.022-.263-.11-.438.044.153.088.263.11.439zm.087-.042l-.043-.044.065.197v-.153h-.022z" fill="#681418"/><path d="M13.78 28.531v.066l.022.022-.021-.088zm.242.396v-.132c-.022-.044-.044-.066-.066-.066 0 .066.044.198.066.176v.022zm.11.088s-.044-.088-.044-.11c.022.066.066.175.044.11zm-.22-1.713c.044.22.044.417-.044.197 0 .154.198.835.308 1.23 0-.088-.044-.175-.044-.307-.044-.11-.132-.242-.154-.44 0-.11.044.066.088.176-.066-.263-.022-.395-.132-.768v.153s-.022-.153-.044-.22l.022-.021zm.198 1.405s.044.132.11.308c0-.11 0-.176-.044-.264h-.066v-.044zm-.044.044c-.044-.22-.044-.33-.11-.57-.044.021 0 .197.022.307.044-.066 0 .131.088.241v.066c0 .022.022.066.044.088v-.11c.022.044 0 .066 0 .088v.044-.132h-.022l-.022-.022zm-.549-.922s.022.131 0 .11c-.022-.067-.022-.11-.044-.176 0 .066 0 .175.066.263 0 0 .154.308.154.33l-.176-.527zm.263.417v-.131l-.066-.198v.11s.044.11.066.197v.022zm.44.637l.044.241-.044-.351v.11zm.044-.045l.044.198v-.132l-.044-.066zm1.67-.328c.066.197.132.483.088.263l-.044-.22s-.022 0-.044-.021v-.022zm2.043-3.448l-.065-.22s.022.11.066.22zm-3.054 3.558l.066.131c-.044-.132-.11-.33-.066-.132zm3.297-.769s0-.088-.023-.132c0 .044 0 .088.022.132zm-3.165.879v-.044c0 .044 0 .065-.044.065.044.088.066.154.066 0l-.022-.021zm-.549.043s.021.044.021.066c0 0 0-.044-.021-.066zm.066.087h-.022v.045l.021-.044zm1.318-2.81l.022.022-.022-.022zm.022-.176c.022.286 0 .264 0 .198l.132.659-.11-.857h-.022z" fill="#681418"/><path d="M17.758 25.347l-.088-.197c-.066-.33 0-.242-.132-.505.22.702-.088.11.132.812l-.066-.131c-.154-.352.132.483.044.395a.4.4 0 01-.088-.242v.176s-.044-.132-.022-.132l-.044.066s.044.264.066.351c-.044-.088 0-.088-.044-.153v.175c-.044-.175-.066-.373-.044-.351-.242-.703 0 .176-.154-.198v-.11c-.132-.395-.11-.241-.22-.483.044.132.242.615.264.79-.022-.043-.044-.065-.022.089-.066-.242-.066-.176-.088-.154l-.087-.33s.043.264.065.418c-.044-.022-.11-.286-.175-.505-.066-.044.131.417.087.483-.065-.11-.065.022-.065.241-.066-.11-.044-.197-.088-.307l.044.264s-.022-.088-.044-.132c0 .11.088.33.066.439.066.373-.198-.527-.154-.088a4.28 4.28 0 01-.066-.33c0 .286 0 .22.022.594l-.088-.22c.088.242.11.55.132.813.044.11.066.22.088.263v.198s-.066-.176-.088-.308v.088c-.044-.11-.066-.307-.088-.505l.066.198a6.427 6.427 0 00-.11-.637v.088c0-.066 0-.11-.022-.132v.132l-.088-.374v.154l-.088-.22c.022.396.088.967.044 1.12-.044-.285-.088-.46-.154-.79.088.351.044-.154.088-.11a.778.778 0 01-.066-.241v.329c-.066-.264-.066-.198-.11-.307.11.527 0 .373 0 .527-.044-.176-.066-.352 0-.33-.11-.395.066.637-.044.308v-.066c0 .154-.066.044-.088-.11 0 0-.197.022-.131.483 0-.066-.088-.549-.11-.637l.154 1.538c-.066-.396-.264-1.296-.242-1.538-.022-.044-.066-.11-.066.022 0 .044.132.55.11.593-.11-.417-.066-.22-.176-.593.022.088.11.703.088.681 0-.088-.11-.593-.11-.659l.044.615c0-.11-.088-.505-.132-.68.022.11-.066 0-.066.065l.044.132s.066.856 0 .834c0-.131-.11-.768-.154-.834.044.307.176 1.493.154 1.735l-.044-.176v.198a68.973 68.973 0 01-.153-1.845c-.045-.132-.045-.198-.088-.176-.044-.153 0-.241 0-.263l-.11-.088c.066.351 0 .373.044.659l.044-.395c.066.35.11 1.032.043.966-.043-.132-.087-.637-.11-.747 0 .132-.021.242-.043.154v-.198c-.066-.131 0 .483-.088.154 0 0-.132-.461-.088-.242.088.396.308 1.67.351 1.977 0-.022-.153-.373-.197-.571-.088-.308-.088-.769-.154-1.032 0 .11 0 .22.022.263-.022-.088-.044-.307-.066-.263.066.373-.088 0 .044.307 0 .11-.044-.066-.088-.044.044.242.11.813.088.923a.767.767 0 00-.066-.264c-.066 0-.132-.176-.198-.176 0-.087-.066-.197-.088-.351v.198c-.088-.308.044-.066-.066-.418.044.22 0 .308 0 .44.066.329.088.044.088-.088.088.439.11.922.088 1.142-.044.11-.066-.286-.066-.22-.11-.066.066.79-.088.483-.088-.285-.11-.57-.153-.768.021-.11.11.175.131.153l-.066-.131s0-.176.044-.088c-.066-.242-.175 0-.307-.242 0 .088 0 .198.044.308v-.044c.088.22.044.33.088.417 0 .176 0 .417-.044.307l-.066-.329s.066.198.066.088c0 .154-.154-.417-.088 0l.088.22c0 .175.044.527-.022.417.088.307 0-.044.11.33-.132-.462.11 0-.044-.484.11.44.088.176.197.527-.022-.11-.043-.198 0-.154v-.088a.409.409 0 00-.043-.153c-.044-.242 0-.242 0-.374.021.044 0 .132.043.242v-.198c.044.242.11.396.11.527h.044c.044.132.088.176.088.066.022.044 0-.263 0-.088l.044-.153v.066s.088-.418.22 0c0-.066 0-.132.066-.088l.044.197s.131.198.088-.022c.131.55.153.088.22.198l-.045-.264s.066-.065.088-.197l-.044-.242c0-.197.132.154.176.11 0 .088 0 .066-.022 0 .154.527.088-.417.22-.044 0-.088 0-.066.044 0 0 .044.022.088.044.132 0-.066-.044-.11-.044-.132 0 0 .022-.044.044-.11l.044.264s0-.132-.044-.33v-.153c.088.417.022-.154.132.285-.022-.22.066-.175 0-.637v.088c.022.044.066.088.066-.044l.066.33v-.44c.021.198.065.308.087.572 0-.396.022-.154 0-.55l.044.22s0-.307.044-.132c.11.396.242 0 .44.352-.154-.615.11.263 0-.22.044.154.066.22.066.352.022-.154.132.22.11-.198.021.154.043.22.065.307v-.044c.023.088 0 .132 0 .198.066-.044-.021-.483-.11-.9.067.197.088.153.045-.11.043.132.087.285.065.33.023 0 .176.175.11-.154.022.087.044 0 .044-.022.044 0 .066.044.11 0v-.044c-.11-.418 0-.11 0-.154v.044c.176.263 0-.154.176.154l-.066-.242c-.132-.549.154.307.154.088l-.044-.132c0-.198.264.703.308.769v.11c.153.307-.066-.33-.044-.418.066.176.11.461.153.483.066.132-.043-.614.11-.285-.044-.132-.11-.264-.11-.373.022-.066.264.483.176.044l.044.11c0-.11.044-.22 0-.44.308.835.044-.461.308.308l.088-.066v.088s.066-.176 0-.352c.022.044.044.132.066.154.153.132.153.088.066-.33l.11.242c-.044-.154.285.351.263 0 0 .022.022.088.044.11-.022-.308.55.57.176-.33l-.044-.241s-.176-.396-.264-.527c0-.066.198.22.198.285v-.044c.176.462.154.11.308.418.153-.088.44.066.615 0l-.22-.33h.066s.176.242.132.242c.132.175-.044-.198-.088-.264.154.088.22.395.242.395v-.087c-.066-.154-.154-.286-.11-.308.066.044.154.198.176.198 0 .022.022.022.022 0h.088l-.198-.264c-.066-.153.066-.022-.154-.285.352.417.352 0 .461.11-.11-.198-.066-.242 0-.242-.044-.044-.285-.307-.22-.307.462.549.264.175.66.527-.264-.22.044-.154-.33-.483.066 0 .198.197.33.285-.11-.264.286-.044.308-.22-.066-.066-.198-.131-.286-.263l.395.263s-.417-.373-.131-.197c-.066-.044-.176-.11-.176-.154.55.066-.022-.593.857-.395-.176-.044-.176-.088-.176-.11-.044 0-.198-.11-.33-.176l.374.066c-.308-.175.044-.11-.264-.263l.044.044c-.351-.198-.835-.33-1.296-.571.395.241-.638-.242-.088.11-.088-.044-.132-.088-.242-.132.198.11.22.153.11.131h-.044s-.198 0-.352-.043l.22.131s-.11-.044-.176-.088c.308.242.044-.022.396.242-.44-.285-.11.11-.571-.242 0 0 .241.176.22.198l-.133-.088.154.132s-.198-.132-.307-.22c0 0-.022-.022-.022-.044-.154-.11 0 .088-.044.044l.088.044c.066.154-.132.088.044.352l.087.087c.11.198-.131-.065-.11.044 0 0 .088.132.066.132-.087-.11-.197-.197-.285-.33.11.22.11.154.351.528l-.131-.154c.11.154.153.22.153.286-.088-.154-.197-.22-.33-.418-.307-.307.177.418-.219-.087.286.46.242.22.286.329.132.132.22.351.154.33-.022 0-.44-.55-.484-.528v-.044s.066.176-.088 0c.176.286-.044 0 .198.374v-.11s.264.549.088.373c-.044-.088-.088-.175-.11-.241-.088-.088 0 .088-.066 0-.22-.374 0-.11-.154-.396-.11-.153.11.286-.11-.11.286.506-.088-.043.132.374l-.132-.22s.066.154.044.154l-.154-.285c.11.263-.175-.176-.11-.044.045-.044.154.263.286.417.11.351-.373-.571-.373-.417 0-.044.11.11.154.22-.044-.045-.11-.11-.176-.242-.022.066.132.22.176.373-.154-.264.044.132.044.22l-.11-.242c-.132-.11.22.483.088.33l-.132-.33v.088l-.11-.264c.066.22.022.176-.022.11.088.154.198.44.176.461-.088-.131-.088-.22-.11-.175-.066-.154-.132-.352 0-.132l-.088-.22c-.088-.154-.066 0-.066 0l.044.044.088.351s-.066-.153-.088-.241c0 .022.044.154.022.176a2.802 2.802 0 01-.176-.505l.044.241s-.132-.22-.154-.307c-.066-.11.088.417 0 .263 0 .044.022.088.022.11-.066-.022-.176-.264-.132.022l-.154-.351s.198.439.176.593c0 .131-.131-.308-.175-.396.044.198.131.571 0 .286 0-.066 0 0 .021-.044l-.22.197zm-.44.308s-.022-.22 0-.088c.066.285.022.154 0 .088zm-.637.79s0-.044.044.044c0 .022 0 0-.044-.044zm-2.088 2.087v.044c0-.066-.021-.11-.043-.044h.043zm5.626-1.757l-.044-.044.044.044z" fill="#681418"/><path d="M16.703 26.072l.044.131s0-.087-.044-.131zm-1.736.154s.022.088.044.132c0-.066-.022-.11-.044-.132zm-.527 2.789v-.066s0-.044-.022-.088a.78.78 0 00.022.154zm-.616-1.494v.154s.044-.11 0-.154zm.396.659c-.044-.22-.044-.132-.066-.088.066.308.066.198.066.088zm-.066-.088c0 .022.022.11 0 0zm.396.593s.043.285.021.198c.044.285 0-.352-.021-.198zm-.506-1.208l.066.264-.022-.22-.044-.044zm.22.153l-.044-.065v.088c.022 0 .066.044.044-.022zm-.044.045s-.022 0 0 .044v-.044zm-.132-.285l.022.066h.022l-.044-.066zm.33-.484s.044.11.066.198l-.066-.33v.132zm.088-.087s0-.264-.044-.242c0 .088 0 .176.044.242zm.681.307l.088.549-.088-.549zm.307-1.384c-.066-.132.044.33-.021.176 0 .132.065.132.065.242 0-.132.044-.066-.044-.418zm6.549-.637l.132.022-.198-.066.066.044zm-.33-.241l.33.132-.286-.154s.022.044-.044 0v.022zm-4.637.11v.088s.066.088.066.11l-.066-.176v-.022zm.396.154l.11.307-.11-.307zm.154-.462v.044c0-.066.154.308 0-.044zm18.766.286h-.198c.044.044.242 0 .198 0zm.483.527h-.066l.198.066-.132-.066zm.088.549c.286-.11-.088-.197 0-.307h.066l-.242-.022c.066.11.242.241.176.33zm1.495-.9s-.11.044 0 .066v-.022l-.023-.044h.023zm-.176-.066l.11-.044s0-.11.066-.132c-.088 0-.132.066-.176.154v.022zm-.198.109h.066s0-.043-.066 0z" fill="#681418"/><path d="M38.26 25.15h-.11s-.11.131.044 0c-.066.065 0 0 .066 0zm-.022.066s0 .132-.132.153c.11.066.242-.11.132-.153zm-.968.79l.089-.066-.11-.044s-.066.132.022.11zm.902-1.317s-.132.11-.198.175h.088s.022-.11.11-.175zm-.176.175h-.132s.088.044.132 0zm-.176.527l.264-.066-.286.066h.022zm.242-.879l.132-.066-.22.066h.088zm-.11-.132c.11-.043.154-.131.242-.153-.044-.022-.154 0-.242 0 .066 0 .066.044 0 .132v.022zm-.132.397s.11-.088.132-.154l-.132.132v.022zm-.022-.023l-.022-.066v.066h.022zm.022.396s-.241.021-.307.197c.11-.044.154-.154.307-.198zm-.154-.22v.088s.088-.088.154-.088h-.154z" fill="#681418"/><path d="M37.6 24.952l.066-.022v-.022l-.065.044zm.11-.506s-.11 0-.131-.044v.132c.044-.022.153-.066.132-.088zm-.307-.372l-.044.022.044-.022zm.154.505s.044.043.087.022c-.021 0-.043-.022-.065-.044-.022 0-.044 0-.022.022zm.109-.352s-.043.066-.065.088c.044-.044.11-.11.066-.088z" fill="#681418"/><path d="M37.754 24.579s-.066 0-.11.022h.088l.044-.044-.022.022zm-1.494-.176c.154-.044.33-.022.22.131.154.022.637-.263.9-.439-.065.022-.131.066-.263.022-.088.066-.132.242-.285.242-.132-.066 0-.11.087-.198-.175.132-.33 0-.615.11l.132.066s-.132 0-.154.066h-.022zm1.165-.176s.066-.088.175-.176a.68.68 0 00-.22.022l.045.154zm.088.133c-.176.065-.286.021-.44.153.044.088.176 0 .264 0-.11-.11.11 0 .154-.154.044 0 .066.022.088.044 0-.022 0-.066.044-.11l-.066.022c0-.044.044-.022.066-.022h.022l-.154-.087s0 .066.066.131l-.044.022zm-.352 1.163s0-.023.022-.023c-.022 0-.044 0-.022.023zm.022-.133s.088-.043.11 0c-.022.067-.066.045-.11.089.044 0 .154 0 .176-.132h-.022s.154-.286.176-.286c-.132.11-.22.198-.308.33h-.022zm.088-.504l-.132-.066-.11.132.088-.044h.176l-.022-.022zm.198-.856l.197-.066-.285.044.088.022zm-.066-.154l.154-.044h-.11l-.044.044zm-3.538.154l-.066-.045s.044.044.066.044zm1.231-3.602c-.11.11-.308.264-.154.154l.154-.11s-.022-.022 0-.066v.022zm1.01 2.526h.066s-.11-.066-.154-.088l.088.088zm.704.286l-.154.043s.088 0 .154-.044zm-2.945-1.429l-.154-.11s.066.088.154.11zm3.098.483s.088-.088.11-.131c-.11.066-.264.131-.11.131zm.088-.284s-.022 0-.044.021c.044.022.066.066.044.11.066-.044.11-.11 0-.132zm.154 1.317s.044-.044.044-.066c0 0-.022.022-.044.066zm.088-.022v.044c.022 0 .044 0 0-.044zm-.023-.088v.066h.023v-.044l-.022-.022zm.089-2.35c-.242-.066-.22-.11-.176-.176l-.527.132.703.044z" fill="#681418"/><path d="M33.777 23.04l-.176.133c-.264-.176-.154-.308-.395-.176.571.044.044.57.637.57l-.11.089s-.022-.022-.022-.044c-.264.198.418.088.374.307-.022.088-.11.154-.176.11l.176.154s-.11.066-.11 0c.022.088.088.175.11.241 0 0 .263.044.33.066-.067.088-.067 0-.133.022l.176.088c-.11.11-.307.066-.307-.044-.506.351.175.066 0 .483l-.132-.11c-.132.11-.154.198-.154.264v.286l2.68.11-2.658-.11v-.023l.044-.087s.066-.132.11-.176c.088-.11.198-.198.307-.176 0 .044 0 .11.066.132l1.802.68-.22-.614v-.066c.176.11.176.022.22-.044l.22.154c0-.132-.132-.198-.198-.308.088-.065.264 0 .44.088.132-.132-.352-.066-.286-.285.176-.066.11-.22.044-.44.132-.043.132.088.22.11l-.154-.175s.066 0 .11.044c-.044-.11-.242-.132-.264-.264-.264-.154.505 0 .242-.285.088 0 .154.087.241.11-.131-.264-.087-.22-.307-.484l.22-.066c-.22 0-.418-.175-.572-.351h-.241l-.088-.198s.131.044.241.11l-.044-.044c.11 0 .264.044.396.154h-.176c.154.088.308.198.462.242-.022 0-.044-.044-.044-.088.044.022.066.044.11.044.022 0 0-.044-.088-.088l.307.066-.11-.044.264-.176c-.242-.263-.637-.505-.725-.768.198.11.352.087.615.131-.285 0 .066.22 0 .352.044-.066.176 0 .198 0l-.198-.308c.22.044.176 0 .264-.066-.44-.022-.242-.241-.352-.351.132 0 .286.066.242.176.352-.088-.483-.242-.176-.352 0 .022-.022.044.044.066-.11-.088 0-.241.11-.198.066-.175 0-.636-.352-.614h.506a6.197 6.197 0 00-1.253-.198c.308 0 1.033-.286 1.23-.132.045-.066.067-.132-.043-.241-.044.043-.418.175-.462.131.308-.197.154-.131.396-.373-.044.066-.527.154-.55.066.067 0 .462-.154.506-.132-.176-.022-.352-.044-.527-.044.11 0 .395-.132.483-.241-.088.066-.066-.198-.132-.22l-.066.132c-.044-.264-.703.11-.79-.066.087-.044.439-.22.505-.373l.066-.154-1.407.505s-.022 0-.044.022c.242.066 1.165.285 1.34.461h-.131l.154.154c-.374-.088-1.143-.373-1.429-.527-.11.066-.175 0-.153.132-.132.021-.198-.066-.198-.11l-.11.263c.286 0 .286.22.527.22l-.285-.308c.285 0 .813.198.747.396-.11.044-.506-.066-.615-.066.087.022.175.175.11.198l-.155-.088c-.11.11.374.175.088.307 0 .044-.373.132-.197.132.33-.066 1.34-.066 1.582 0 0 0-.33.198-.484.263-.263.066-.615-.11-.835-.044.088 0 .176.044.198.066-.066.044-.242 0-.198.088.286 0-.022.198.242.044.088.088-.066.11-.044.22.198-.044.637.088.725.175a.65.65 0 00-.22.044c0 .198-.153.308-.131.483-.066.022-.154.11-.286.088.044 0 .154.044.176.088-.242.132-.044-.132-.352 0 .176 0 .242.132.374.198.264-.066.022-.176-.088-.264.352-.022.747.066.945.22.11.132-.22.088-.176.11-.022.285.66.11.44.373-.22.132-.44.088-.616.132-.11-.11.11-.198.088-.286l-.088.11s-.154-.088-.088-.154c-.198.11.044.462-.088.703.088 0 .176.066.264 0l-.044-.066c.176-.11.286.066.352-.044.154.044.373.088.307.22l-.241.088s.132-.11.044-.132c.131 0-.286.285.066.22l.153-.132c.154.044.44.044.396.154.22-.132-.044 0 .22-.176-.33.175-.066-.22-.418 0 .308-.176.11-.154.374-.33-.088.022-.154.066-.132 0h-.088c-.022.022-.066.044-.11.066-.198 0-.22-.11-.33-.132.022-.065.11 0 .176-.043h-.175c.175-.088.285-.22.417-.132v-.11s.11-.176 0-.198c.022-.043-.242-.087-.066-.066l-.132-.153h.044c0-.176-.351-.308-.022-.527-.044-.044-.11-.11-.066-.198h.176s.154-.241 0-.263c.44-.088.088-.352.176-.484h-.22s-.044-.175-.132-.285h-.197c-.154-.11.153-.242.131-.395.066 0 .044.044 0 .087.44-.153-.285-.417.022-.549-.044-.043-.044-.065-.022-.087l-1.67.46v.023l-.066.088s.066-.066.066-.088c0 0 .044.022.11.022l-.176.11s.088-.022.22-.11c.044 0 .088 0 .132-.022-.286.175.132.044-.176.22.176-.044.176.087.527 0-.043 0-.065.021-.065 0-.022.065-.066.11.065.11l-.241.065h.351c-.153.11-.241.154-.44.132.33.088.133.088.44.175h-.175s.241.11.11.154c-.33.088-.045.505-.418.725.505.044-.242.066.132.154-.11 0-.198 0-.286-.066.088.154-.22.132.066.307-.11 0-.154-.066-.22-.088 0 0 .088.066 0 .066-.066 0-.088-.044-.131-.088 0 .132.33.264.637.374-.176 0-.176.066.022.197-.11 0-.242 0-.242-.11-.044.044-.264.22 0 .33-.066 0-.044.066-.022.088-.066.11-.088.11-.11.22h.044c.286.175.022.11 0 .22h-.022c-.307.065.066.109-.285.175l.175.088c.374.241-.33.044-.242.22h.132c.088.175-.615-.133-.68-.11-.045 0-.045-.045-.045-.088-.307 0 .22.175.198.307-.066-.022-.132-.088-.198-.132-.022 0-.066-.044-.088-.044h-.044l1.978.088c.11-.066-.483.066-.264-.11-.11.066-.197.11-.285.11-.066-.066.351-.285 0-.263.022 0 .066-.022.088-.022-.088-.044-.176-.154-.374-.176.703-.088-.352-.395.308-.395v-.176h.044c.066-.11-.088-.176-.242-.242h.132c.154-.153.154-.153-.132-.417l.198.044c-.11-.088.395-.154.241-.395 0 0 .066.022.088.044-.132-.308.725-.176.088-.593l-.088-.22c-.154.132-.263-.198-.417-.198 0-.087.307-.043.285.044h-.043c.33.242.241-.131.483 0 .198-.307.593-.439.813-.636l-.242-.198.088-.066s.198.154.132.198c.154.088 0-.198-.044-.264.198 0 .198.308.242.286v-.066c-.044-.132-.132-.242-.044-.286.088 0 .154.132.176.132h.044l.131-.066-.197-.175c0-.132.11-.066-.088-.264.088.066.154.11.22.088l-.88-.176c0 .198.22.33.132.417.198 0 .22.088.242.198.044-.044.308-.154.308-.044-.55.132-.198.242-.594.395.264-.11.11.242.484.066-.022.088-.22.044-.33.11.242.154-.11.395-.044.637.066 0 .198-.044.308 0l-.374.132s.44.066.176.131c.066 0 .154-.021.176 0-.396.506.22 1.076-.44 1.67.154-.088.154-.023.176.021.044-.044.176 0 .286 0l-.264.264c.286.022.044.264.308.264l-.066-.066c.33.066.703-.198 1.099-.22-.374-.088.527-.264 0-.417.088-.044.132.022.22 0-.176-.044-.22-.088-.132-.176h.044c-.044-.242.131-.351.263-.659h-.198s.088-.066.154-.088c-.307-.087-.022.198-.351.088.417-.066.022-.483.505-.527 0-.11-.242.022-.22-.088h.132l-.154-.066c.022-.065.198-.11.308-.11 0 0 .022.045.044.067.154-.088-.044-.264 0-.308l-.088.11c-.11-.308.044-.725-.264-1.032l-.087.044c-.22-.22.087-.22-.066-.461h.022s-.176-.088-.176-.154c.132.044.154-.198.307-.154-.285-.198-.197-.088-.593-.132l.132-.11c-.154 0-.22.023-.308-.065.176.044.176-.198.396-.154.154-.373-.352-.264-.242-.461l-1.055-.22s-.066-.044-.11-.088c.066.198.132.242.198.22l.77-.198.087.374s.088.131.022.131c-.066.088-.22.088-.285.044l-.33-.197-.066.11s-.022.043-.044.043c-.066.044-.44-.373-.615-.241v-.044c-.132-.044-.022.22-.22.154.132.241-.11.087.11.329l.11-.198c-.022.154.154.505-.088.483a.423.423 0 01-.066-.22c-.11-.043-.022.11-.132.089-.22-.264.11-.22.044-.505-.154-.066 0 .329-.22.022.264.395-.198.11-.066.483l-.132-.154s.044.132 0 .176l-.131-.242c.066.242-.308.044-.308.22.154-.198.22.11.396.131 0 .396-.528-.22-.66.132 0-.066.198-.066.242.044a.48.48 0 01-.308 0c-.11.22.198.088.242.242-.242-.088 0 .153.022.263l-.176-.11c-.241.132.33.286.066.396l-.197-.242v.132l-.198-.154c.066.198 0 .22-.11.286.132.044.308.197.264.285-.154 0-.154-.132-.198.022-.088-.088-.22-.198 0-.175l-.154-.132c-.154 0-.132.175-.154.22 0 0 .044-.045.066-.045l.154.33s-.132-.044-.176-.11c0 .044.066.132.066.198-.154-.088-.308-.154-.33-.286l.066.286s-.22.044-.285 0c-.132.088.197.417 0 .549.022 0 .044.044.066.087-.066.154-.33.242-.132.484l-.308.066c.044.175.396-.088.462.197.066.198-.264.022-.352.088.132.132.44.307.176.461-.044-.066 0-.11-.022-.154l-.22.308zm.527 1.977s-.22-.044-.11-.11c.242-.065.154 0 .11.11zm2.264-2.152s0 .066-.066.088c0-.044 0-.066.066-.088zm.417.22h.088c-.044 0-.066-.022-.044-.066-.044 0-.088.044-.022.066h-.022zm.396-2.921h-.044s.022-.044.044 0z" fill="#681418"/><path d="M36.743 23.217s-.065 0-.11-.022c.023.022.067.044.11.022zm-2.856-1.383l-.022-.023.022.023zm1.164-.681s.066-.044.11-.066c-.044 0-.087 0-.11.066zm2.418 2.416l-.066-.044s0 .066-.044.088c.044 0 .11-.044.11-.022v-.022zm-.945 1.097s0 .022.044.022l.088-.044s-.11-.044-.132 0v.022zm.307-.812c-.153.065-.087.087-.044.131.242-.088.132-.11.044-.131zm-.021.131s.021.022.021.044c.088-.022 0-.022-.022-.044zm.307-.79s.22-.044.154 0c.22-.022-.308-.088-.154 0zm-.813.878l.198-.088-.176.022-.022.066zm.022-.505v.11h.044c0-.066 0-.132-.044-.11zm.044.11s0 .066.066.066c0 0-.022-.044-.066-.066zm-.154.285l.022-.044v-.066l-.022.11zm-.044-1.405l-.066-.087s-.11.022-.088.066c.044 0 .088.044.154.021zm-.527.418s.088-.044.154-.066l-.264.044.11.043v-.021zm-.11-.33s-.242-.132-.198 0c.066 0 .154.11.198 0zm.242-1.647v.022h.44l-.44-.022zm1.253-1.647c0-.22-.242.11-.22-.11-.11.022 0 .176-.11.176.153.022.131.11.351-.066h-.022zm-.418 4.524l-.088.088.154-.066-.066-.022z" fill="#681418"/><path d="M36.941 24.008l-.263.044h.263s-.044-.022 0-.044zm-.483 1.405l-.044-.044h-.11.176l-.022.044zM33.58 23.92v.022l.241-.066-.242.044zm-.308-1.318s.022.11 0 .176c-.044-.131.307-.131 0-.175zm14.437 5.468s.132-.087.175-.11c-.065 0-.197.133-.175.11zm-.616-.176l.066-.022-.197.044.131-.022zm-.285-.417c-.242.198.132.132.088.264l-.044.044.22-.11s-.308-.11-.264-.22v.023zm.462-.549s-.11 0 0 .066v-.066zm-.155-.11h.132s.044-.087.11-.087c-.088-.022-.132 0-.22.087h-.022zm-.043.066h-.11s-.132.066.044 0c-.088.044 0 0 .066 0zm-.022.066s-.066.133-.176.11c.088.088.285-.021.175-.11zm-.528.659l-.044.087h.11s0-.153-.066-.087zm.571-1.229s-.153.087-.22.131h.089s.044-.088.131-.132zm-.219.13h-.132s.066.023.132 0zm-.286.484h.264l-.286-.022.022.022zm.418-.856l.153-.022-.241.022h.088zm-.088-.154c.132 0 .175-.11.263-.11-.044-.044-.153-.044-.241-.044.066 0 .066.066 0 .154h-.022zm-.198.374s.132-.066.154-.132l-.154.088v.044zm-.066.395c-.11 0-.242-.044-.352.11.132 0 .198-.11.352-.11zm-.132-.263v.087s.088-.066.154-.066h-.154v-.022zm-.066-.023l.066.022v-.044l-.066.022zm.198-.461s-.11-.044-.132-.066c0 .044-.022.11 0 .154.066 0 .154-.022.132-.066v-.022zm-.242-.483l-.022.022h.022v-.022zm.066.571s.022.044.088.044c-.022 0-.044-.044-.066-.066h-.022v.022zm.176-.352l-.088.088c.044-.044.132-.088.088-.088zm.044.395h-.11s.044.022.066.022h.044v-.022zm-1.45-.461c.175-.022.351.022.197.154.154.044.66-.154.945-.286-.066 0-.132.044-.263 0-.088.044-.154.22-.33.198-.11-.088.044-.11.11-.176-.198.088-.33-.066-.637.022l.131.066s-.131 0-.175.044l.022-.022zm1.164.022h.022s.088-.065.198-.131a.372.372 0 00-.22 0v.154-.023z" fill="#681418"/><path d="M46.478 25.852c-.176.022-.285-.021-.461.088.044.088.175 0 .263.044-.087-.132.11 0 .176-.132.044 0 .066.044.066.066 0-.022.022-.066.066-.087H46.5c.022-.044.044 0 .066 0h.022l-.132-.11s0 .066.044.131h-.022zm-.593 1.077s.022 0 .044-.022c-.022 0-.044 0-.044.022zm.088-.11s.11 0 .11.021c-.044.044-.088.044-.132.066.066 0 .154.022.198-.087h-.022s.22-.264.241-.242c-.154.088-.241.132-.373.242h-.022zm.176-.484l-.132-.087-.132.11.088-.045s.088.022.176 0v.022zm.351-.835l.198-.044h-.286l.088.044zm-.066-.153l.176-.044-.11-.022-.066.066zm-2.966-.681l-.044-.065s.022.044.044.066zm1.186-1.186c-.154.066-.373.154-.197.11l.175-.044s-.022-.044 0-.087l.022.021zm.506 2.833l.044.022-.132-.131.088.11zm-1.143-3.667l-.132-.154s.044.11.132.154zm2.176 1.054s.11-.088.11-.11c-.11.044-.264.088-.11.11zm-.792 1.384s-.066-.044-.11-.044a.168.168 0 00.11.044zm.901-1.626h-.044c.023.044.044.066.044.11.088-.044.132-.088 0-.132v.022zm.022 1.296l.044-.044-.044.044zm.088-.022v.022c.022 0 .044 0 0-.022zm-.022-.087v.065h.022v-.044l-.022-.021zm.352-.089c-.22-.087-.198-.131-.132-.175h-.527l.68.175h-.021z" fill="#681418"/><path d="M43.644 23.766l-.198.066c-.22-.242-.088-.33-.352-.285.527.197-.11.526.462.68l-.132.044v-.066c-.308.088.373.22.263.374-.043.066-.153.087-.197.044l.11.175s-.11 0-.088-.022v.242c.087.044.22.132.285.175-.088.044-.066-.021-.131-.021l.131.131c-.153.044-.285-.066-.263-.153-.594.087.132.11-.198.373l-.088-.132c-.33.088-.198.198-.396.374.11-.044.506-.33.66-.176-.044.044-.066.11.066.176-.198 0-.154.087-.132.175h-.264c.088.132.22.088.352.154 0 .11-.22.176-.396.241 0 .198.308-.197.396.022-.066.176.066.264.263.396-.044.131-.175.022-.22.088h.242s-.066.065-.088.065c.11.044.264-.087.374 0 .154-.043.066.066 0 .176l-.044.066 1.165.132c.132 0 .241 0 .175-.154.088 0 .11.132.198.176-.044-.308 0-.242-.154-.55h.22c-.22-.043-.352-.285-.461-.482-.11-.022-.198-.044-.22-.066l-.044-.198s.132.066.198.154l-.044-.066c.11 0 .242.11.351.22l-.175-.044c.11.131.263.263.395.329 0-.022-.022-.066-.022-.088.022.044.066.066.088.066.022 0 0-.044-.066-.11l.286.132-.088-.066.286-.132c-.176-.307-.528-.614-.572-.878.176.132.33.154.572.242-.286-.044.021.241-.088.35.066-.043.175 0 .197.045l-.131-.352c.197.088.175 0 .285-.021-.417-.11-.197-.286-.307-.418.132.044.263.11.197.22.352-.044-.417-.33-.132-.373 0 .021-.021.043.044.065-.11-.11.044-.241.154-.175.11-.154.11-.593-.241-.66.043 0 .44.067.505.089a12.847 12.847 0 00-1.187-.44c.308.044 1.055-.043 1.23.132.045-.044.11-.11 0-.22-.043.045-.46.066-.482.023.351-.11.197-.066.483-.242-.066.044-.55 0-.55-.066.067 0 .484-.022.528 0l-.484-.175s.418 0 .55-.066c-.088.022 0-.176-.066-.22l-.11.088c.044-.242-.703-.132-.703-.308.11 0 .615-.044.66-.175-.243 0-1.21.044-1.43 0l.133-.066-.198-.044c.373-.066 1.187-.066 1.516 0 .088-.11.154-.066.11-.176.11-.088.22 0 .242.066v-.33c-.264.088-.352-.131-.572-.043.132.066.264.131.396.22-.264.087-.835.043-.857-.132.088-.088.483-.154.571-.176-.11 0-.242-.11-.197-.154h.175c.044-.132-.417 0-.241-.241l.087-.132.088-.11-1.846.351s-.197.044-.087.066c.33 0 1.34.198 1.56.286-.022 0-.352.132-.506.153-.263.023-.593-.197-.813-.197.088 0 .176.066.198.088-.066.044-.242-.066-.22.044.286.066-.044.197.242.088.066.11-.066.087-.066.197.198 0 .615.176.703.264h-.22c-.043.175-.175.263-.197.46-.066 0-.154.089-.286.067.044.022.154.044.154.11-.264.11-.044-.132-.352-.044.176 0 .242.153.33.22.264-.023.044-.177-.044-.264.352 0 .747.153.901.307.088.132-.242.066-.176.088-.044.264.638.176.396.395-.22.11-.462.044-.615.066-.11-.11.131-.197.11-.263l-.11.11s-.132-.11-.067-.154c-.197.087 0 .46-.175.68.088.022.175.088.263.044l-.044-.066c.176-.087.264.088.352 0 .132.066.352.132.264.264l-.264.066s.132-.11.066-.132c.132.022-.33.242.022.242l.154-.11c.154.066.44.088.373.198.242-.088-.044 0 .242-.154-.352.132-.044-.242-.396-.066.33-.132.132-.154.418-.286-.088 0-.154.066-.132-.021h-.088l-.132.065c-.197 0-.22-.153-.33-.175.045-.044.11 0 .199-.022l-.154-.044c.198-.022.307-.154.417-.066v-.11s.132-.154.044-.197c.044-.044-.22-.11-.066-.066l-.131-.154h.043c0-.154-.33-.33.022-.505-.044-.044-.11-.11-.044-.198h.176s.176-.175 0-.22c.462 0 .132-.285.242-.395l-.22-.044s0-.131-.044-.197l-2 .263h.066l.176-.066c.176 0-.044.242 0 .352-.066 0-.066 0-.022-.044-.351.263.396.197.132.417.066 0 .066.044 0 .088l-.088.066s.088-.044.088-.066c0 .022.044.066.088.088l-.198.044s.11.022.242 0c.044 0 .088.022.132.044-.33.065.132.087-.22.175.176 0 .132.176.506.198h-.066c-.044.044-.088.088 0 .132h-.264l.351.131c-.153.066-.263.066-.46 0 .307.154.109.11.395.286h-.176s.22.132.066.132c-.33.044-.154.505-.528.637.484.131-.241 0 .11.175-.11-.022-.197-.022-.264-.11.066.154-.241.066 0 .308-.11-.044-.131-.11-.22-.132 0 0 .067.088 0 .066-.065-.022-.087-.066-.11-.11-.021.11.265.308.55.483-.175-.022-.175 0 0 .176-.11-.044-.22-.066-.22-.154-.043.044-.285.132-.087.308-.066-.022-.066.044-.044.066a.304.304 0 00-.088.066h-.022v.087l.945.176-.923-.176h.022s.066.088.066.11l.659.11c-.132 0 0-.088-.044-.154h.022c.176-.263-.154-.066.066-.307l-.198.066c-.44.087.198-.22.022-.308l-.11.066c-.154-.044.572-.264.616-.307.043 0 .065 0 .087.022.242-.154-.263 0-.351-.088.154-.022.373 0 .395-.066.11-.022-.483-.198-.197-.286-.11 0-.22.044-.308-.022-.044-.087.44-.175.088-.285h.088c-.088-.066-.132-.22-.286-.308.703.11-.22-.483.396-.307 0-.066 0-.132.022-.198h.066s-.044-.153-.154-.263c.044 0 .088.044.132.044.197-.11.175-.11-.023-.418l.198.088s.396-.022.33-.307l.066.066c-.066-.33.703.088.22-.505v-.22c-.198.066-.22-.285-.352-.33.044-.087.308.045.242.154h-.044c.22.308.264-.043.417.198.11-.11.286-.132.418-.154l-1.033-.373c0 .132-.022.264 0 .395l.308-.088v.11s-.242.066-.242 0c-.176.044.154.088.22.088-.11.154-.374 0-.374.022v.044h.066c.132.022.264.022.264.11-.066.066-.198.044-.198.066-.022 0-.022 0 0 .044v.131l.22-.044c.11.066 0 .132.263.066-.417.066-.197.527-.351.593.154.11.154.22.11.33.066 0 .33 0 .285.11-.549-.154-.285.131-.703.131.286 0 0 .308.396.286-.066.066-.22-.044-.352 0 .176.263-.242.417-.242.68.066.023.198 0 .286.088l-.395.044s.417.154.131.176c.066 0 .154 0 .176.044-.483.417 0 1.098-.747 1.56.154-.067.154 0 .154.065.044-.044.176.022.286.044l-.308.22c.264.065 0 .285.264.329l-.044-.088c.307.11.725-.088 1.12-.022-.351-.132.572-.176.066-.395.088 0 .132.044.22.044-.176-.066-.198-.132-.088-.198h.044c0-.242.198-.307.374-.57h-.198s.11-.089.154-.089c-.286-.153-.066.176-.374.022.418 0 .11-.439.593-.373.022-.088-.241-.022-.197-.132h.131l-.153-.066c.044-.066.197-.044.307-.022v.066c.176-.044 0-.241.066-.263l-.11.066c-.044-.308.198-.593.022-.923h-.088c-.131-.241.154-.132.11-.395 0 0-.11-.132-.088-.176.088.088.242-.066.352.022-.132-.263-.132-.154-.44-.351h.154c-.132-.088-.197-.11-.22-.22.11.11.242-.044.418.088.374-.22-.308-.417.22-.505-.418-.154-.264.22-.352.132-.154.044-.307-.132-.263-.198 0-.066.57-.11.549-.351 0 .022.022.022.022.044.11-.088-.154-.154 0-.286-.264-.044 0-.154-.33-.132l.088.198c-.11-.11-.483-.176-.33-.373.066 0 .176.044.22.066.088-.066-.088-.088 0-.176.352-.044.132.241.374.351.132-.088-.264-.22.11-.197-.462-.022 0-.264-.374-.352l.198-.044s-.132-.044-.154-.11h.286c-.242-.065.088-.329-.088-.439.132.308-.198.154-.286.33-.198-.132-.066-.22.066-.352l-1.274-.46s-.22-.22-.374-.089c.044-.044.22 0 .198.132a.483.483 0 01-.286-.088c-.198.154.132.154.11.33-.198-.176-.044.153-.088.263l-.11-.176c-.307.044.176.396-.088.396l-.087-.286-.067.132-.131-.198c0 .22-.066.22-.22.264.132.088.242.285.154.373-.132-.044-.11-.175-.198-.044-.066-.11-.154-.263.044-.175l-.11-.176c-.154-.044-.176.132-.22.176.022 0 .044-.022.088 0l.044.373s-.11-.088-.132-.154c0 .044.044.132 0 .198-.11-.132-.241-.22-.241-.373v.307s-.242-.022-.286-.088c-.176.044.066.461-.132.527a.168.168 0 01.044.11c-.11.11-.373.154-.264.44h-.307c0 .153.395 0 .395.263 0 .197-.263-.044-.373 0 .088.154.351.395.066.46-.044-.065 0-.087 0-.153l.11.066zm-.154 1.845s-.176-.11-.066-.132c.242.044.132.066.066.132zm2.131.703s0 .065-.088.065c0-.044.022-.066.088-.066zm.484-1.845h.088c-.044 0-.066-.022-.044-.066-.044 0-.088.022-.044.066zm-.132-1.494z" fill="#681418"/><path d="M45.71 26.709s-.067-.022-.11-.044a.168.168 0 00.11.044zm-1.67-4.041h.021l-.044-.022.022.022zm.417-.308s.066-.043.11-.043c-.044 0-.088 0-.11.044zm2.087 2.657l-.066-.065s-.022.044-.066.087c.044 0 .11-.043.11 0l.022-.022zm-1.077.967s0 .022.044.022h.088s-.11-.088-.132-.022zm.418-.768c-.176.044-.11.088-.066.132.242-.044.154-.088.066-.132zm-.045.154v.043c.089 0 0-.022 0-.044zm.396-.77h.154c.22 0-.285-.132-.154 0zm-.9.791l.197-.066h-.175l-.022.066zm.065-.505l-.044.11h.066c0-.066.022-.132-.022-.11zm.044.132s0 .066.044.066c0 0 0-.044-.044-.066zm-.197.242l.044-.023v-.088l-.044.11zm.132-1.385l-.066-.11s-.11 0-.088.066c.044.023.088.066.154.044zm-.572.352s.088-.043.154-.065h-.264l.11.066zm-.088-.329s-.22-.154-.197 0c.065 0 .131.132.197 0zm.484-1.581v.022l.417.088-.417-.11zm1.648.9c.066-.175-.264 0-.176-.153-.11 0-.088.131-.176.11.132.065.066.131.352.043zm-.352-.044s-.044 0-.066-.044c.022 0 .044.022.066.044zm-1.648 4.48l-.11.11.154-.066-.044-.044zm.308.197h-.286l.242.088s-.022-.066.022-.087h.022zm-2.242-1.91h.066s.066-.044.088-.088l-.154.088zm.286-1.45v.022h.264l-.264-.022zm.066-1.25s0 .11-.022.153c0-.11.33-.044.022-.154zm7.625 44.228c-.11.022 0 .175 0 .22.176-.11 0-.264 0-.22zm1.648-1.164v.087l.176-.285-.176.198zm1.627-.812c-.308-.198-.572.35-.902.395l-.088-.044v.285c.308-.22.703-.593.99-.636zm1.186.131c-.11-.066.132-.198-.22.088h.044c.044 0 .088-.044.176-.088z" fill="#681418"/><path d="M55.18 65.71c-.176.11.154.022 0 0zm.747-.504l-.176.22s.286-.067.242 0c.198-.177.11-.22-.066-.242v.022zm.088-.33l-.088.11s.066 0 .088-.11zm-.285.33l.197-.22s-.11-.11-.088.088c-.022-.087-.022 0-.11.132zm-.154.044c-.154 0-.33.065-.176-.154-.396.285-.242.439.176.153zm-1.473-.089h-.22l-.087.176c.044-.088.373-.088.307-.176zm3.274-.658s-.175-.11-.22-.154l-.11.176s.287-.088.352 0l-.022-.022zm-.219-.176l.175-.263c-.22.131-.22.197-.175.263zm-1.275.22l-.285.44.351-.484-.066.044zm2.417-.659l-.044.22.088-.352-.044.132zm.572-.417c0 .176.263.066.197.22.154-.132.22-.33.286-.506-.088.132-.242.242-.483.286zm.593-.55s-.088.176-.11.264a.732.732 0 00.11-.264zm-1.714.923s.132.088.286.044l-.198-.088-.088.066v-.022zm.088-.065s.176-.11.198-.132c-.022 0-.088.044-.22.132h.022zm-.109.065h.021s-.022-.022-.022 0zm-1.122.483c.088-.176.308-.461-.066-.417-.022.175.176.154.066.417zm.857-.593l-.263.132s.11.066.088.154l.197-.286h-.022zm.088-.132l-.088.132.11-.044-.022-.088zm1.407-.527c.066-.153.153-.241.285-.35-.154.065-.307.175-.44.263 0 .066 0 .197.155.066v.021zm1.516-1.295l-.044-.022.022.044.022-.022zm-1.736 1.207c-.132.044-.154.132-.176.22.066-.066.132-.154.22-.22 0-.022 0-.044-.044 0zm1.033-.417s-.154.022-.242.044c.088 0 .242 0 .242-.044zm-1.275.835s.066-.132.066-.198c-.044.066-.11.11-.132.176h.066v.022z" fill="#681418"/><path d="M60.058 60.55c.088.154-.044.483-.395.527-.132.286.373.615.769.703-.044-.066-.088-.11.066-.395-.132 0-.637.263-.55-.022.242-.33.286-.154.484-.22-.264-.066.176-.57-.11-.746l-.176.307s0-.176-.088-.154zm-.066 1.56l-.087.087c.131-.066.241-.066.483-.066.11-.197.088-.285.066-.33-.154.133-.33.242-.484.352v-.044h.022zm-.527.417c-.044-.198.132-.44-.132-.505-.264.22-.11.285-.22.46.44-.395-.066.176.33 0-.066.089-.154.154-.22.22.088-.044.198-.088.286-.11 0 0 0-.065-.022-.087.154-.066.044.022.022.066v.021l.395-.439c-.11.044-.241.154-.439.33v.044zm-2.879.878s.022 0 .044.022c0-.044 0-.066-.044-.022z" fill="#681418"/><path d="M56.828 63.36s0 .133-.132.176c-.131 0-.044-.065-.088-.131-.043.088-.153.263.11.197v-.043c.242-.066.616-.044.594 0a1.09 1.09 0 00-.484-.22v.022zm1.319-.416c.11-.11.22-.241.33-.351h-.286l.065.088c-.241.131-.131.197-.11.263zm2.439-1.142l.066.197.044-.395-.11.198zm.461-.417l.088.154.066-.198-.154.044zm9.251-31.492l-.066-.132.066.132zm.154.944h.088s-.088-.043-.088 0zm-.308 18.25c.242-.132.55-.242.374-.286h-.198a.51.51 0 01-.153.286h-.023zm1.516-10.278l-.065.044.154.153a.864.864 0 00-.11-.197h.022zm-.768-.22l.154-.242s-.11.132-.154.242zm-2.154-13.703l-.242-.066c.088.22.132.088.242.066zm-3.274 31.843c.176-.088.286-.176.374-.286-.22.11-.462.132-.374.286zm6.922-26.814s-.088-.11-.132-.088c.044.088.088.132.132.088z" fill="#681418"/><path d="M66.145 56.048s-.066.022-.088.044c-.066.132-.11.242-.22.352.154-.066.308-.198.33-.396h-.022zM53.906 4.99l.22.11a.615.615 0 00-.22-.11zm8.064 54.638s0-.066-.022-.11a.198.198 0 01.022.11zm.791.175s.11-.044.154-.088c-.022 0-.088.022-.154.088zm.066.045s-.066.044-.088.066c0 .044.044.044.088-.066zm.263-.264s-.11.11-.175.131h.044l.132-.132zm2.088-42.868v-.021c-.132-.066-.087 0 0 .021zm4.307 28.066c.176.264.11.352.022.483h.572l-.594-.483z" fill="#681418"/><path d="M69.749 27.654l-.088.35c-.351-.307-.351-.57-.505-.24.593-.11.307 1.163.9 1.075l-.087.22s-.044-.066-.044-.11c-.198.461.483.198.505.725 0 .198-.066.33-.154.22l.22.373c0 .11-.11.11-.11 0l.132.615s.264.241.352.33c-.066.175-.066-.067-.132 0l.198.329c-.132.153-.33-.11-.33-.352-.55.395.176.264-.066.988l-.11-.307c-.307.241-.154.483-.33.856.11-.087.44-.768.638-.417-.022.11-.044.242.11.44-.22 0-.132.219-.11.46h-.286c.088.264.242.22.374.374 0 .285-.22.373-.418.44-.022.46.33-.352.418.219-.088.395.044.659.22 1.142-.088.285-.176-.044-.242.044l.242.241s-.066.044-.11.022c.088.198.285 0 .351.351.308.088-.483.66-.154 1.076-.087.088-.175-.065-.285-.022.198.55.154.484.44.945l-.198.373c.22-.263.46.11.615.461.11-.087.22-.175.263-.22l.088.528s-.153 0-.241-.11l.044.11c-.132.175-.286.066-.418-.088l.198-.176c-.154-.153-.33-.285-.484-.263.022.044.044.11.044.175-.044-.044-.087-.066-.11-.044-.022 0 .023.066.088.154l-.33.088.11.044-.285.637c.242.505.681.988.681 1.779-.198-.22-.351-.11-.637-.154.33-.154-.044-.593.066-.966-.066.197-.176.131-.22.066l.176.724c-.22-.044-.198.11-.33.286.462-.066.176.57.264.856-.154 0-.286-.11-.176-.439-.395.307.396.593.044.9 0-.087.044-.131 0-.175.088.22-.11.68-.22.527v-.088c-.153.527-.44 1.647-.087 1.823-.044 0-.418-.198-.484-.242.308.44.637.9.923 1.34-.286-.176-1.12-.11-1.143-.593-.088.11-.197.241-.175.549.065-.066.505-.066.505.066-.462.22-.264.175-.681.46.11-.109.527.198.44.418-.067-.066-.484-.154-.506-.242l.285.681c-.044-.154-.373-.175-.549-.11.11 0-.176.418-.198.571l.198-.175c-.308.527.396.812.132 1.361-.066-.11-.505-.417-.681-.175.175.22.879 1.076.769 1.669h-.176l-.044.483c-.22-.417-.593-1.406-.725-1.889-.198.154-.176 0-.308.307-.175.044-.11-.241-.066-.35-.131.219-.285.438-.417.658.286.11 0 .659.22.747l.11-.9c.285.087.527.812.22 1.295-.177.066-.418-.351-.506-.373.066.11-.066.57-.154.57v-.285c-.264.22.088.637-.352.813-.088.11-.527.131-.395.241.395 0 1.318.483 1.472.725-.044.022-.637.44-.857.483-.33.044-.373-.615-.66-.57.067.043.089.197.089.263-.132.087-.176-.176-.308.087.242.198-.33.505.132.264-.088.285-.22.22-.395.505.22 0 .373.615.263.922-.044-.066-.176-.066-.22-.066-.373.484-.659.681-1.01 1.099-.088 0-.33.153-.352 0 0 .087.022.22-.066.35-.417.11.198-.328-.198-.328.132.131-.088.505-.153.746.263.11.395-.417.461-.68.286.219.33.812.088 1.383-.22.44-.308 0-.33.11-.637.615-.022.988-.725 1.361-.373.066-.352-.307-.527-.373.197-.351.505-.33.68-.527l-.307.154c.022-.154.154-.374.286-.44-.33.022-1.01 1.098-1.648 1.428-.022.132-.132.351 0 .351l.132-.175c.285 0-.11.46.153.35-.11.308-.197.682-.57.901l-.242-.132s.307-.065.33-.22c-.045.198-.682.177-.594.55l.33-.066c-.132.308-.22.747-.55.922.308.088.044-.088.44 0-.44-.131.725-.614.175-.659.44.066.44-.22.901-.241-.066-.066-.197-.044.044-.22v-.11c-.088.023-.154.023-.197 0-.023-.263.33-.592.373-.79.154-.088 0 .132.154.132l.066-.286c.154.132.571-.132.351.264l.286-.286c.242-.087.483-.307.55-.505.153-.11.153-.483.153-.263l.33-.527h.044c.417-.418.527-1.142 1.252-1.472.088-.197.176-.395.418-.637l.176.044c.11-.241.593-.549.505-.746.55.022.813-1.01 1.099-1.362l-.176-.132c.176-.263.286-.57.395-.944l-.175-.088c.044-.351.549-.68.769-1.186.044.066-.022.176-.11.242.681-.373.352-1.34.857-1.735 0-.154.066-.241.132-.33a1.15 1.15 0 00.176-.131c-.066.044-.132.066-.154.11.044-.11.088-.264.11-.44h.22c.131-.11-.045-.153-.22-.131 0-.088 0-.176-.022-.242.373 0 .066-.44.461-.461-.132-.176.154-.834-.176-1.032.044 0 .088-.022.066.066.11-.154.198-.308.154-.505h.286l-.22-.483c.242-.176.352-.242.483.043-.131-.658 0-.483-.131-1.054l.153.066c.044-.176-.11-.505.066-.57.462-.286.506-1.89 1.011-2.834-.527.11.308-.417-.088-.527.132-.044.22-.175.286 0-.044-.527.286-.746 0-1.164.132-.044.154.132.242.088 0-.044-.088-.175 0-.22.087-.043.087.088.132.176.043-.549-.308-.637-.66-.703.198-.241.198-.395 0-.592.132-.088.264-.22.264.11.066-.176.242-1.12-.044-1.164.066-.044.022-.264 0-.308.044-.417.066-.44.044-.856l-.044.11c-.33-.176-.066-.33-.088-.66h.044c.264-.746-.11-.307.132-1.054l-.22.044c-.461-.066.242-.659.044-1.098l-.11.154c-.176-.22.593-.703.638-.944.043-.066.065.088.11.153.241-.658-.264-.065-.374-.527.132-.11.395.066.373-.241.11-.176-.593-.857-.373-1.318-.11.11-.198.22-.308 0-.088-.307.33-.966-.088-1.186.022-.044.044-.066.066-.066-.154-.241-.33-.768-.55-.878.66-.395-.68-1.45 0-1.603-.065-.242-.175-.483-.24-.747h.065c-.11-.483-.308-.615-.505-.724 0-.132.088-.066.131-.066-.087-.725-.131-.813-.637-1.274l.176-.132c-.176-.11-.066-1.098-.571-1.669.022 0 .066 0 .11.044-.506-.659-.242-2.02-1.077-1.932l-.418-.374c.242.637-.351.066-.351.374-.154-.22-.088-.725.088-.44v.066c.417-.088-.264-.812 0-.944-.726-1.12-1.143-2.416-1.89-3.426l-.176.308-.242-.374c0-.132.11-.263.286 0 .044-.241-.44-.351-.483-.307-.242-.571.439-.022.33-.176l-.177-.197v.065c-.22-.088-.351-.022-.549-.33-.088-.24.088-.219.044-.306 0 0 0-.044-.088-.11l-.33-.44-.066.33c-.263-.11-.33-.417-.373-.022.11-.55-1.187-1.691-1.253-1.933-.373-.11-.615-.373-.879-.68.044.11-.132.351-.351.066.505-.33-.286-.66-.176-1.164 0 .373-.791-.66-.77-.088-.197-.242.133-.176.067-.418-.703-.307-1.077-1.163-1.824-1.669-.066.044 0 .242-.242.22l-.132-.593c-.175-.066-.395.264-.505-.154 0 .088 0 .198-.11.154-1.164-1.383-3.054-1.757-4.24-3.228.13.242 0 .176-.177.11.088.088-.088.175-.132.263l-.505-.593c-.242.198-.703-.351-.9-.131l.219.065c-.418.154.044.857-.176 1.208.483-.175.527.9 1.275.681.066.132-.154.066-.154.176.197-.088.395-.066.615.175h-.044c.77.462.989.813 1.758 1.428l.066-.22c.154.132.154.22.22.308.373-.132-.484-.33-.11-.505 0 .483 1.208.878 1.076 1.383.264.198.067-.241.33-.044v.154l.154-.088a.394.394 0 01.088.44c-.044-.045-.132-.067-.176-.089.132.286.66.418.703.506l-.197-.242c.79.44 1.45 1.318 2.285 1.669v-.11c.637.286.33.44.879.879h-.044c.176.022.33.131.461.285-.22-.044.088.395-.175.308.637.373.351.153.944.241l-.044.198c.22 0 .308-.044.55.22-.286-.132-.044.35-.396.219.22.813.99.637.813 1.23.572 0-.22-.66-.022-.571 0-.22.44 0 .572.22.154.197-.176.68.197 1.141-.043-.044-.066-.022-.11-.088.044.242.374.264.396.593.308-.044.198.308.505.132l-.395-.417c.264.198.747.198.9.747-.087 0-.24-.066-.35-.132 0 .176.22.198.22.395-.309.154-.462-.505-.858-.615-.022.22.571.374.176.461.527-.087.285.506.835.637l-.198.088s.22.088.286.198h-.352c.396.11.176.615.44.812-.352-.57.131-.263.131-.593.66.55-.22.703.33 1.428-.088-.088-.132-.461.044-.352.044.176.11.418.066.55.352.483.132-.176.374-.022-.11.307.241.197.44.395l-.177.11c.198.68.484-.044.616.593l-.374-.11.22.263-.242.044c.308.242.33.352.418.68.11-.13.373-.13.505.155 0 .241-.242 0 0 .351-.154-.022-.352-.066-.264-.307-.066 0-.154-.022-.241 0-.022.263.22.505.285.658 0-.066-.044-.131-.022-.175.176.153.374.285.528.439-.044.132-.132.066-.22.022.066.11.198.154.264.307-.176.022-.33.11-.506-.11l.396.484s-.088.351-.176.307c.022.33.615.615.637 1.076.044 0 .088.044.154.11.11.395 0 .813.374 1.208l-.22.351c.176.352.264-.461.571.11.22.395-.198.242-.242.417.198.176.66.461.484.923-.088-.11-.066-.242-.11-.352l-.066-.153zm.967 4.611s-.22-.241-.11-.33c.264.067.154.177.11.33zm.44 7.203s0-.175.087-.285c0 .088 0 .175-.088.285zm-7.318 19.106c.132-.088.198-.11 0 0zm-.374.264s0 .065.044.087c0-.066.044-.131.132-.22-.066 0-.132 0-.176.133zm2.044-44.075v.11c-.154-.11-.088-.11 0-.11z" fill="#681418"/><path d="M71.002 38.611s.088-.022.11-.022c-.022-.044-.066-.044-.11.022zm-2.22-13.703v-.022h-.044l.044.022zm-2.571 27.495s.132-.088.176-.088c-.044-.022-.11 0-.176.088zm-4.175 8.367l.176-.242s-.154.11-.242.132c.044.022.132.044.066.11zm-2.746.592s-.067.044-.089.11l.066.066c.132-.11.176-.241 0-.176h.022zm2.065-.944c-.132-.11-.22.044-.352.198h.022c.11.197.22 0 .33-.198zm-.395.22l-.133.132c.044.087.066-.045.132-.132zm2.197-1.318s.11.197.022.197c.088.242.263-.636-.022-.197zm-2.307.769l.197.11-.044-.198-.154.088zm1.23-.944l-.264.175v.11c.154-.132.33-.242.286-.285h-.022zm-.264.285s-.132.132-.154.198c.044-.044.11-.132.154-.198zm-.703.33l.11-.023.176-.154-.286.176zm3.297-3.053l.153-.307s-.132-.022-.176.088c0 .087-.066.22 0 .22h.022zm-1.122.373h.22l-.198-.198v.198h-.022zm.594-.79s.132-.528-.11-.176c.044.065-.132.373.11.175zm3.23-3.953l-.044.088.396.22-.352-.308zm1.055-4.437c-.264.308.22.198-.044.462.066.131.22-.22.264-.11 0-.264.11-.352-.22-.374v.022zM53.158 4.309l-.197-.198.087.22.11-.022zm-.593.065l.066-.285-.264.154s.176.044.176.131h.022zM70.233 32.99h.065s.066-.088.066-.198l-.132.198zm-.264-3.36v.065l.22-.154-.22.088zm-.989-2.657c.022.11.11.22.132.329-.11-.22.154-.461-.132-.33zM52.455 3.958s.11-.132.132-.154c-.132 0-.154.198-.132.154zm-1.252-.11l.044-.066-.22.088.176-.022zm-1.011-.44c-.022.33.395.11.527.286v.088l.176-.198c-.242-.066-.593 0-.703-.154v-.022zm-.308-.833c0 .131-.154.044.11.088v-.044c-.022 0-.044 0-.11-.044zm.11.043c-.044-.132.11.044 0 0zm-.527-.132l.175-.044s-.131-.131-.066-.175c-.175 0-.153.087-.131.22h.022zm-.22.154h.088s0-.066-.088 0z" fill="#681418"/><path d="M49.533 2.596h-.198s-.022.176.088.022c-.044.088 0 0 .11-.022zm.066.088s.153.175-.044.22c.285.065.33-.155.044-.22zm.417 1.01l.066.131.132-.066s-.176-.153-.198-.065zM48.61 2.003s0 .176-.022.263l.132-.043s-.132-.132-.11-.242v.022zm-.044.264l-.198.044c.132.065.176 0 .198-.044zm.527.703l.352-.132-.396.11.044.022zm-1.121-1.187l.154-.11-.241.176.087-.066zm-.417-.087s-.022-.242.066-.286c-.11 0-.242.066-.374.132.11-.022.198 0 .308.154z" fill="#681418"/><path d="M47.072 1.63s.11-.044.197-.088c-.066 0-.11.044-.197.088zm1.032.57s0-.153-.066-.219v.198l.066.022zm-.066-.02s-.11-.045-.131-.067c0 0 .066.022.131.066zm.704.482c-.132.066-.352.11-.22.33.11-.088.022-.22.22-.33zm-.616-.198l.154.088s0-.132.066-.154l-.22.066zm-.088.022l.088-.022-.044-.044-.044.066zm-.725-.615s-.176.044-.285 0c.087.066.175.11.285.154.022-.044.11-.132 0-.176v.022zm-1.186-.241v.044l.022-.022-.022-.022zm1.208.461s.132.022.176 0c-.066 0-.132 0-.198-.022v.044l.022-.022zm-.549-.461s.066.088.11.131c0-.065-.066-.175-.11-.131zm.857.351s-.088.044-.132.088h.132V1.98z" fill="#681418"/><path d="M45.533 2.727c.066-.175.286-.263.418-.043.198-.088.242-.66.176-1.01-.022.065-.044.131-.242.197.044.11.33.307.132.44-.242.021-.176-.11-.264-.22.044.241-.373.241-.395.549l.22-.066s-.11.11-.067.175l.022-.022zm.923-.943h.066s-.11-.132-.176-.286c-.131.044-.175.11-.197.154l.351.11h-.022l-.022.022zm.396.087c-.11.176-.308.198-.242.417.198.044.198-.11.33-.153-.352-.044.132-.066-.088-.242h.198c-.044-.044-.11-.088-.154-.132v.022l-.044.066c-.088-.066 0-.044.044-.066v-.022h-.374s.154.066.308.088l.022.022zM48.214 3.3v-.045c-.022 0-.044.022 0 .044zm-.11-.155s.066-.088.154-.044c.044.066-.022.088-.044.154.066-.022.198-.066.088-.22h-.022s-.198-.373-.176-.395v.505zm-.637-.593h-.308l.088.198v-.088c.176.088.176-.044.22-.11zm-1.34-1.01l.087-.176-.241.22.154-.044zm-.374-.066l.044-.176-.11.088.066.088zM25.36 4.133l-.065.066.066-.066zm.55-.176V3.87s-.022.087 0 .087zM36.546.29c-.132-.153-.264-.417-.242-.22l.044.198s.154 0 .22.022h-.022zm-6.153 1.581l.044.044s.044-.132.044-.198l-.088.132v.022zm.044.792l-.176-.088s.088.066.176.088zM22.46 5.429v.22c.132-.067.022-.132 0-.22zM41.93.773s-.176-.131-.242-.153c.11.131.198.307.241.153zM24.965 2.135s-.044.088-.044.132c.044-.044.066-.088.044-.132zM41.38.576s.022.044.044.044c.088 0 .154-.044.264 0-.088-.088-.176-.154-.308-.044zM9.012 12.698s.044-.088.088-.11c-.022 0-.066.044-.088.11zM44.5 1.85s-.043.043-.043.087c0-.044.044-.066.044-.088zm-.11-.703s-.043-.066-.087-.088l.088.088zm0-.087s.045.021.066.043c0-.022 0-.044-.065-.044zm-.22-.045s.089.022.133.044v-.044h-.132zM17.384 7.362h-.022s0 .066.022 0zm16.92-4.92c.11-.242.176-.22.264-.176l-.11-.549-.154.725z" fill="#681418"/><path d="M24.042 4.617l.242.11c-.132.329-.307.307-.066.46-.176-.57.681-.285.506-.856l.153.088s-.022.044-.066.044c.33.197.023-.461.352-.483.11 0 .22.066.176.153l.198-.22s.088.089 0 .11l.33-.153s.087-.264.131-.352c.11.044-.022.066 0 .132l.154-.197c.132.131 0 .307-.132.329.352.505.132-.198.615.044l-.175.132c.22.285.33.131.593.285-.088-.088-.572-.395-.396-.593.066.022.154.022.242-.11.066.198.154.132.308.066l.066.264c.131-.11.087-.264.153-.395.176 0 .264.175.352.35.286-.021-.264-.285.044-.416.264.044.396-.132.637-.33.176.066 0 .176.088.242l.088-.242s.044.066.044.11c.11-.11-.044-.285.132-.395 0-.308.483.373.66-.022.065.066 0 .176.043.285.286-.285.242-.22.462-.57l.263.131c-.198-.176-.022-.461.132-.703-.088-.087-.154-.175-.176-.197l.286-.198s.022.132 0 .264l.044-.066c.132.088.088.263.044.417l-.132-.154c-.044.176-.088.374-.044.55 0-.045.044-.067.088-.089v.11c0 .022.044-.044.066-.11l.11.308v-.132l.417.154c.242-.352.418-.835.88-1.032-.089.241 0 .373.043.637-.154-.264-.33.175-.571.131.132 0 .11.154.088.198l.373-.308c0 .22.11.154.22.242-.132-.417.286-.33.44-.483.021.154 0 .307-.22.285.263.308.241-.549.505-.307-.044 0-.088 0-.088.066.11-.154.418-.044.352.066h-.044c.352.044 1.033-.044 1.055-.44 0 .044 0 .462-.044.528l.549-1.296c-.044.33.198 1.076-.066 1.274.088.044.176.087.352-.044-.066-.044-.154-.461-.088-.483.22.351.154.175.417.483-.088-.066 0-.571.132-.55 0 .067 0 .506-.022.55l.308-.483s0 .417.066.549c-.044-.088.285 0 .373-.044l-.132-.11c.374.088.374-.703.726-.659-.044.11-.11.637.066.68.087-.263.395-1.207.747-1.405l.066.154.263-.154c-.175.352-.637 1.164-.879 1.472.132.11.044.175.242.153.066.132-.11.198-.176.22l.462.088c0-.308.373-.286.373-.527-.175.088-.351.176-.527.285 0-.285.33-.834.681-.746.088.131-.088.527-.088.615.044-.088.33-.176.352-.088l-.154.153c.176.132.33-.373.527-.065.088.022.198.395.22.22-.11-.352-.044-1.384.044-1.626.022.022.396.351.483.527.11.264-.241.615-.153.857 0-.088.088-.176.132-.198.065.066-.066.242.131.22.066-.286.352.043.11-.242.176-.066.176.066.396.066-.044-.198.263-.637.44-.68 0 .065 0 .175.021.219.352.088.528.241.88.285 0 .066.175.176.087.308.066-.044.11-.132.22-.132.154.285-.242 0-.132.33.044-.176.308-.198.461-.286 0-.264-.33-.088-.505 0 .044-.374.374-.725.747-.835.308-.044.088.264.132.198.527.132.571-.571.967-.22.132.264-.088.461-.066.637-.242.044-.33-.22-.483-.241l.175.153s-.241.088-.33 0c.11.242.88.198 1.231.483.088-.065.22-.11.198-.22h-.132c-.088-.197.286-.197.154-.329.198-.087.44-.263.66-.087v.263s-.133-.198-.22-.132c.131-.087.285.44.483.132l-.132-.22c.198-.087.484-.307.681-.175-.044-.286-.066 0-.132-.33.044.418-.549-.153-.439.308-.066-.395-.242-.22-.374-.571 0 .088.044.176-.132.11 0 .022-.043.044-.065.066.044.044.066.11.066.153-.132.176-.418.11-.55.198-.11-.066.066-.088.022-.198l-.176.132c.022-.198-.22-.373.066-.44l-.22-.065c-.11-.132-.285-.22-.417-.154-.11-.066-.308.154-.198.022L42.59.95V.905c-.352-.066-.791.22-1.143-.197-.132.022-.264.065-.461 0V.532c-.176.044-.462-.242-.55-.066-.11-.483-.769-.176-1.033-.264v.22c-.22-.022-.417.022-.659.088v.198c-.22.153-.505-.176-.835-.176.022-.066.11-.044.154 0-.374-.483-.813.285-1.165-.044-.087.066-.153.044-.22 0h-.043l-.11-.11s.066.088.11.11a.663.663 0 00-.264.066l-.044-.22h-.022c-.088-.088-.088.11-.022.264-.044.044-.088.066-.132.132-.088-.352-.263.11-.373-.242-.066.176-.506.132-.55.505 0-.044-.044-.066 0-.066-.11-.044-.22-.088-.307.022l-.066-.263-.22.373c-.154-.154-.22-.242-.088-.461-.33.33-.285.132-.571.46V.884s-.264.264-.33.11c-.264-.33-1.186 0-1.824-.198.176.484-.307-.197-.285.198-.044-.11-.154-.176-.066-.285-.308.153-.506-.132-.66.22-.043-.11.044-.177 0-.242 0 .022-.087.11-.131.044-.044-.066.022-.11.066-.176-.33.066-.286.439-.264.79-.176-.153-.264-.11-.33.132-.066-.11-.175-.197 0-.285-.11 0-.703-.044-.659.241-.044-.066-.154 0-.176.044-.241.022-.285 0-.505.088h.066c-.022.373-.176.154-.374.22V1.74c-.505-.154-.176.153-.659-.022l.066.197c.066.462-.44-.153-.66.066l.11.088c-.087.176-.527-.505-.68-.505-.045-.022.021-.066.065-.11-.44-.154.022.286-.242.417-.087-.131-.043-.373-.22-.35-.131-.089-.395.614-.724.394.087.088.175.198.066.308-.176.11-.638-.242-.704.154-.044 0-.044-.044-.066-.066-.11.131-.417.307-.439.527-.374-.637-.77.637-.989 0a7.55 7.55 0 00-.417.197V2.97c-.308.066-.352.264-.374.462-.088 0-.066-.088-.066-.132-.461.044-.483.088-.703.527l-.11-.176c-.044.154-.725-.088-1.01.352v-.11c-.33.439-1.32-.044-1.121.746l-.198.308c.395-.132.11.33.307.373-.11.11-.483-.022-.33-.153h.045c-.132-.396-.528.131-.637-.11-.682.417-1.517.593-2.154.988l.242.22-.22.131s-.22-.153-.044-.263c-.176-.088-.176.307-.154.373-.373.088-.088-.395-.176-.33l-.11.11h.044c-.043.198.044.308-.153.418-.154.022-.176-.132-.22-.11 0 0-.044 0-.088.044l-.286.154.264.131c-.044.176-.264.154.022.308-.44-.264-1.099.593-1.296.57-.044.264-.22.396-.44.528.088 0 .286.197.088.307-.308-.505-.483.044-.879-.175.286.11-.44.46 0 .593-.176.087-.154-.154-.352-.176-.175.461-.813.505-1.186.922.044.066.198.088.176.242l-.484-.11s.22.395-.088.33c.066.021.154.065.132.131-1.01.483-1.318 1.691-2.527 2.043.198 0 .154.065.088.153.066-.022.132.132.22.176l-.506.154c.176.241-.307.373-.11.593l.044-.132c.132.351.726.263 1.033.57-.154-.394.77-.043.594-.636.11 0 .065.132.153.176-.088-.176-.044-.286.154-.374v.044c.33-.439.637-.461 1.12-.79l-.175-.11c.11-.066.176-.044.264-.044-.11-.33-.264.241-.418-.11.418.176.637-.637 1.055-.373.132-.132-.198-.132-.066-.264l.132.066-.088-.154s.264 0 .352.088c-.044 0-.044.088-.066.11.22 0 .307-.351.395-.351l-.198.066c.33-.44.923-.725 1.143-1.274l-.088-.044c.176-.395.308-.11.594-.44 0 0 .065-.219.175-.263 0 .154.308.044.264.242.22-.418.066-.242.088-.703l.154.088c0-.176-.044-.242.088-.417-.066.22.263.11.197.395.572 0 .33-.703.813-.373-.088-.484-.461 0-.44-.132-.175-.066-.043-.374.089-.417.132-.066.527.329.835.131-.022 0 0 .044-.044.066.176 0 .132-.285.373-.22-.066-.285.198-.11.022-.417l-.241.242c.11-.176.044-.615.417-.637 0 .066 0 .198-.044.286.132.043.11-.154.242-.11.154.307-.308.285-.33.615.154.065.176-.418.308-.044-.132-.483.33-.154.352-.593l.088.175s.044-.175.11-.197v.285c.087-.285.46 0 .57-.22-.35.198-.197-.175-.439-.219.286-.483.528.33.945-.022-.044.066-.308.022-.242-.11.11 0 .264 0 .374.044.286-.22-.154-.154-.088-.351.242.154.11-.176.198-.33l.11.176c.417-.088-.11-.461.285-.483v.33l.132-.154.066.241c.11-.241.198-.241.418-.263-.11-.11-.154-.352 0-.44.175.066.022.22.241.066 0 .154 0 .33-.175.198 0 .066 0 .154.022.22.175.066.33-.11.395-.154h-.11l.22-.44s.066.132.066.198c.066-.044.066-.175.154-.241.044.175.132.33 0 .461l.241-.33s.242.11.242.176c.22 0 .308-.505.593-.483 0-.044 0-.066.044-.11.242-.066.528.044.704-.285l.263.22c.198-.154-.351-.286-.044-.528.22-.197.198.198.308.242.066-.198.176-.593.505-.44-.066.089-.131.067-.197.11h.175zm2.681-.989s-.11.22-.175.11c0-.241.065-.154.175-.11zm4.175-1.427s-.11.044-.175 0a.239.239 0 01.175 0zm12.504-1.186c-.11-.088-.066-.066 0 0zm.242.154s.043-.044.022-.088c-.022.044-.088.044-.154 0 0 .066.044.11.132.066v.022zm-27.71 5.446H16c-.066.132-.066.066-.066 0z" fill="#681418"/><path d="M30.437 2.574s-.022-.066-.044-.11c0 .044 0 .088.044.11zM22.46 5.385h-.022l.022.044v-.044zm16.877-3.009s-.066-.065-.088-.11c0 .045 0 .088.088.11zm5.779-1.251h-.176s.11.065.132.11c0-.045 0-.132.044-.11zm1.099 1.646h.087v-.087s-.175.044-.087.11V2.77zm-1.121-.921c-.022.175.088.153.22.131.087-.241-.044-.197-.198-.131h-.022zm.242.131s.065 0 .11.022c.043-.088-.045-.022-.11-.022zm-1.341-.857s.088-.22.11-.131c.11-.22-.44.197-.11.131zm1.055 1.318l.022-.22-.11.154.088.066zm-.857-.373l.176.11.066-.067c-.11-.022-.22-.11-.242-.043z" fill="#681418"/><path d="M44.413 2.113s.11.022.154 0h-.154zm.373.329l-.044-.066-.11-.043.154.11zm-2.593-.79l-.22.044s0 .132.088.11c.066-.044.132-.066.11-.132l.022-.022zm.506.681s-.044-.11-.066-.176l-.044.264.11-.088zm-.594-.023s-.33.176-.066.198c.022-.066.242-.11.066-.197zm-3.032-.702h.066l.022-.44-.088.44zm-2.725.944c.242.11.066-.285.264-.132.066-.11-.176-.11-.11-.197-.154.11-.22.044-.154.351v-.022zm.154-.329l.066-.066c-.044.022-.066.044-.066.066zM8.44 12.983l-.197.066.198.022v-.088zm.045.461l-.242-.154.132.242s.044-.11.11-.088zm18.788-9.376v-.066s-.088-.066-.154-.066l.154.132zm-2 .394l.022-.022-.132-.22.11.242zm-1.516.878s.132-.109.197-.109c-.131.11-.33-.176-.197.11zm-15.69 8.082s-.066-.175-.088-.22c-.11.198.132.242.088.22zm-1.033 2.043l-.044-.066-.044.373.088-.307zm-1.186 1.757c.373 0 .373-.68.659-.922h.088l-.11-.286c-.22.417-.418.988-.637 1.23v-.022zm-1.165.636c.132 0-.022.264.176-.22-.022 0-.044 0-.044.023-.022.043-.044.087-.11.197h-.022z" fill="#681418"/><path d="M4.815 17.683c-.154.087.11-.198 0 0zm-.462.944l.044-.308s-.241.242-.241.132c-.088.308 0 .286.197.176zm.067.351v-.153s-.045.044 0 .153zm.11-.483l-.067.33s.154.021.044-.154c.066.066 0-.022.022-.176zm.131-.153c.132-.11.286-.285.242.044.242-.505 0-.55-.242-.044zm1.429-.857l.197-.132v-.22s-.286.308-.198.352zm-2.725 2.723h.285v-.241s-.198.263-.285.22v.021zm.307.001l-.044.35c.132-.263.11-.329.044-.35zm1.033-1.011l.044-.593-.088.68.044-.087zM2.837 21.35l-.066-.22.088.396-.022-.175zm-.286.79c-.065-.175-.263.088-.285-.065-.066.22-.022.439 0 .637 0-.198.088-.374.285-.571zm-.263.9s0-.197-.044-.329c0 .11 0 .22.044.33zm1.077-1.997s-.154 0-.286.154l.22-.044.066-.11zm-.045.132a1.62 1.62 0 01-.131.241c0-.022.066-.11.132-.241zm.858-1.296c0 .22-.066.615.241.351-.066-.175-.241 0-.241-.351zm-.528 1.098l.176-.307s-.132 0-.154-.088l-.044.395h.022zm0 .176v-.176l-.066.11.066.066zm-.989 1.405c.022.176-.022.33-.088.506.11-.176.198-.352.264-.55-.044-.043-.11-.175-.176.044zm.33-.68v.044s.022-.022 0-.044zm-.989 2.898h.044l-.044-.022v.022zm.901-2.284a.38.38 0 00.066-.33c-.022.11-.066.22-.11.352 0 0 .044.022.044 0v-.022zM2.2 23.568s.132-.132.176-.22c-.088.045-.22.176-.176.22zm.725-1.625s0 .154.022.22c0-.088.044-.176.044-.264h-.066v.044z" fill="#681418"/><path d="M2.991 25.655c-.154-.066-.198-.483.066-.747 0-.351-.637-.33-1.033-.132.066.022.132.044.132.418.132-.088.44-.66.505-.33-.044.461-.153.33-.307.505.263-.11.132.637.483.615v-.395s.088.154.154.066zm-.725-1.515v-.132c-.066.154-.154.241-.352.395 0 .242.066.308.11.352l.242-.66v.045zm.22-.725c.131.175.11.505.373.373.132-.395-.044-.33-.044-.57-.176.636-.022-.22-.307.197 0-.132.044-.242.087-.351-.065.11-.131.197-.197.285h.022l.066.066c-.11.175-.066 0-.066-.044h-.022l-.132.659c.066-.132.11-.308.198-.593l.022-.022zm2.154-2.702h-.045c0 .044 0 .066.044 0zm-.22.197s-.045-.131.021-.263c.11-.088.088.044.132.066 0-.11 0-.351-.198-.132v.044c-.175.198-.527.418-.527.374.198 0 .33 0 .55-.11l.021.022zm-.946 1.253l-.11.549.264-.198H3.54c.154-.308 0-.285-.044-.351h-.022zM1.892 24.82l-.176-.131.176.395v-.264zm-.197.702l-.154-.066.044.198.11-.132zm13.689 34.94l.154.066s-.11-.044-.154-.066zm-.834-.725l-.066.044s.11 0 .066-.044zM1.54 43.179c-.087.263-.263.593-.065.505l.154-.132c-.088-.154-.088-.285-.088-.395v.022zm6.022 10.387v-.088s-.154 0-.22-.022c.066.044.154.066.22.11zm.725-.306l.066.329s0-.176-.066-.33zm12.327 10.343l.242-.088c-.242-.132-.176 0-.242.088zM.552 32.858c-.088.198-.11.373-.132.505.11-.242.286-.44.132-.505zm13.228 28.9s.154.043.176 0c-.11-.044-.175-.044-.175 0zM.42 33.978s.022-.066.044-.11a3.286 3.286 0 01-.044-.483c-.088.175-.132.395 0 .593zm41.554 33.6h.044c0-.023 0-.023-.044 0zm6.899.372s-.153.066-.263.11c.044 0 .132-.022.263-.11zM1.826 27.785s.044.066.088.087c-.044 0-.066-.043-.088-.087zm-.746.351s-.067.11-.089.176c0-.022.044-.088.088-.176zm-.089.022s.022-.088.044-.132c-.022-.022-.044 0-.044.132zm-.066.417s.044-.176.066-.241c0 .021-.044.021-.044.021 0 .044 0 .11-.022.22zm29.16 39.09h.022c.154 0 .088-.022-.022 0zM4.947 46.693c-.308-.11-.33-.242-.352-.418l-.44.352.792.066z" fill="#681418"/><path d="M17.604 61.978l-.198-.352c.528 0 .725.264.572-.11-.374.462-1.187-.746-1.583-.285l-.131-.242s.087 0 .131.066c-.197-.505-.549.154-.989-.285-.131-.176-.197-.33-.043-.308l-.462-.197s0-.154.088-.066l-.571-.417c-.132 0-.418-.044-.528-.066-.088-.176.11 0 .132-.066l-.395-.154c-.022-.22.33-.11.527.066.11-.68-.352-.11-.725-.878l.33.175c.043-.417-.264-.483-.418-.944-.022.154.242.966-.176.79a.687.687 0 00-.395-.329c.153-.154-.044-.285-.264-.483l.22-.198c-.264-.153-.352-.044-.572-.087-.22-.264-.11-.462-.044-.66-.351-.416 0 .506-.483.089-.242-.396-.571-.527-1.033-.835-.132-.307.154-.066.154-.22l-.352-.065s.022-.088.066-.088c-.22-.132-.22.175-.527-.066-.308.11-.132-.878-.703-1.032 0-.132.176-.066.241-.154-.57-.351-.483-.307-1.054-.549l-.088-.483c0 .395-.418.198-.791 0 0 .154-.044.285-.022.373l-.462-.417s.11-.088.264-.066l-.11-.044c-.044-.241.154-.241.374-.197v.285c.197.022.417.022.549-.088-.044 0-.11-.066-.176-.11.066 0 .11 0 .11-.022 0-.044-.066-.044-.176-.087l.176-.286-.132.044-.263-.747c-.55-.285-1.275-.417-1.78-1.164.307.088.351-.153.593-.263-.132.351.417.549.615.944-.11-.22.044-.241.11-.22-.242-.175-.44-.373-.637-.548.198-.088.066-.242.044-.462-.308.352-.528-.395-.813-.614.132-.088.285-.088.44.285.087-.549-.726-.264-.682-.769.044.088.044.132.132.132-.22-.154-.396-.68-.22-.615l.044.088c-.308-.57-.769-1.8-1.187-1.757a3.29 3.29 0 01.528-.088l-1.626-.614c.33 0 .9-.66 1.274-.22 0-.154-.044-.352-.263-.615 0 .11-.33.395-.418.285.176-.483.066-.329.22-.878 0 .176-.55.176-.594-.088.088 0 .462-.175.55-.11l-.66-.439c.132.132.418-.11.506-.263-.066.088-.154-.505-.242-.66l-.044.286c-.131-.68-.879-.483-1.054-1.163.131.065.659.043.637-.308-.286-.088-1.319-.44-1.648-1.032l.11-.154-.264-.461c.44.242 1.384.9 1.758 1.274.066-.286.154-.11.066-.483.11-.154.242.153.264.263l-.088-.9c-.286.088-.418-.615-.66-.55l.484.901c-.286.11-.923-.395-1.011-1.054.088-.176.55.044.637 0-.11-.066-.307-.571-.241-.637l.197.242c.044-.374-.505-.527-.263-.989 0-.153.33-.483.153-.483-.307.286-1.34.462-1.604.308 0-.066.242-.857.396-1.032.242-.264.66.307.879.087-.088 0-.198-.131-.22-.175.044-.154.264.044.198-.286-.308-.044-.044-.703-.264-.131-.11-.33.022-.352 0-.747-.176.132-.703-.33-.769-.659.066 0 .176-.066.22-.11.044-.703.176-1.076.198-1.713.065-.066.175-.373.285-.22-.044-.087-.154-.175-.154-.373.264-.373.044.44.352.176-.176-.022-.242-.527-.33-.813-.285.066-.066.66.044.945-.351 0-.79-.527-.879-1.23-.022-.549.264-.22.22-.307.198-1.01-.55-.945-.176-1.78.286-.307.462.045.638 0 .044.462-.22.66-.264.967l.154-.351c.066.153.088.439 0 .593.263-.264.22-1.713.55-2.438-.045-.154-.089-.395-.199-.307v.241c-.241.198-.175-.505-.33-.22-.065-.35-.197-.768 0-1.207h.286s-.22.241-.175.395c-.066-.22.505-.637.22-.922l-.264.285c-.066-.373-.22-.834-.044-1.23-.308.11 0 .11-.374.33.44-.154-.286 1.054.22.746-.418.22-.264.483-.66.835.089 0 .198-.11.089.241.021 0 .043.066.065.088a.294.294 0 01.176-.153c.176.22.044.768.132.988-.088.197-.088-.11-.198 0l.11.307c-.198 0-.395.505-.44 0l-.065.44c-.132.241-.22.614-.176.856-.066.22.154.57 0 .351l.044.725H.486c-.132.703.198 1.45-.154 2.24.044.242.11.483.044.878l-.176.088c.066.308-.175.923 0 1.054-.461.352.022 1.494 0 2.02h.22c0 .374.11.725.242 1.165l.198-.044c.175.373 0 1.01.153 1.625-.088-.022-.088-.176-.066-.308-.285.813.616 1.472.418 2.196.11.154.088.264.088.396v-.044.066a.789.789 0 01-.044.241c.022-.088.044-.153.044-.22.044.132.132.308.22.484l-.176.132v.043c0 .198.132.11.263 0a.84.84 0 00.198.198c-.285.242.264.44-.044.747.198.066.396.878.791.856-.044 0-.044.088-.088 0 .022.22.044.44.198.571l-.22.176.506.307c-.044.308-.088.462-.396.286.55.505.33.46.835.878l-.175.044c.087.198.417.395.33.571-.177.593.944 2.042 1.23 3.228.33-.46.066.593.417.44-.066.131-.044.307-.241.197.417.461.33.857.835 1.032-.066.132-.22 0-.242.088.044.022.198.11.176.198-.022.088-.132 0-.242-.066.352.505.703.351 1.033.197.044.352.132.462.461.528-.044.153-.022.373-.285.087.087.198.593 1.186.857 1.01 0 .089.175.242.241.264.286.373.286.44.616.79l-.044-.131c.373-.066.307.264.57.527h-.043c.374.834.308.242.681 1.054l.132-.176c.396-.241.33.725.813.967l-.044-.22c.308.088.088.966.242 1.208 0 .066-.11-.022-.198-.066.33.703.264-.132.681.198-.044.175-.351.175-.11.46.022.242 1.121.352 1.297.88 0-.154 0-.308.242-.22.307.22.505 1.01 1.01.944v.11c.286.11.814.483 1.1.417-.199.747 1.691.747 1.296 1.296l.769.483-.066.044c.44.373.725.307.989.285.088.11-.022.11-.044.132.659.527.747.549 1.516.593l-.044.22c.22-.022.879.922 1.78 1.01 0 0-.044.044-.132.044.945.131 1.802 1.45 2.417.856.198.022.418.022.637.022-.725-.307.242-.285-.021-.505.307.044.659.461.285.395l-.044-.066c-.285.352.88.44.77.703.747.22 1.45.527 2.153.79.725.22 1.428.44 2.153.616l-.088-.352.484.132c.11.11.132.285-.22.198.154.22.615 0 .637-.088.66.285-.33.307-.131.373l.285.044-.066-.044c.264-.088.308-.198.725-.11.264.11.11.22.22.242 0 .022.022.044.154.044l.637.132-.22-.286c.308-.088.594.088.33-.22.374.506 2.351.418 2.593.55.418-.176.791-.132 1.275-.11-.11-.044-.176-.352.241-.308-.175.593.747.264 1.099.681-.308-.285 1.187-.088.703-.483.352.044.022.22.286.351.813-.263 1.846.066 2.856-.132 0-.087-.175-.175.023-.307l.593.308c.198-.066.132-.462.527-.242-.066-.066-.154-.132 0-.198 2.066.088 3.956-1.054 6.109-.988-.308-.066-.132-.132.066-.198-.132 0-.066-.175-.11-.263h.901c.044-.307.857-.33.835-.615l-.242.132c.22-.44-.725-.505-.813-.923-.241.484-1.142-.175-1.582.505-.154-.043.066-.153-.022-.241-.11.22-.285.307-.637.33v-.045c-.945.308-1.406.242-2.527.374l.132.175c-.242 0-.308-.044-.44-.065-.22.373.681-.11.506.285-.396-.351-1.714.33-2-.132-.374.066.154.22-.22.286l-.11-.11-.066.176c-.241 0-.395-.154-.417-.242.066 0 .154-.044.22-.066-.33-.11-.88.154-.99.132l.374.044c-1.01.242-2.263.154-3.23.44l.088.087c-.747.198-.615-.088-1.45 0h.022c-.176.066-.396.11-.616.11.22-.11-.395-.242-.11-.352-.834.154-.417.132-.966.462l-.11-.176c-.198.132-.22.22-.637.22.351-.11-.242-.264.153-.418-.835-.417-1.318.242-1.67-.33-.461.396.726.33.484.418.176.176-.374.286-.637.22-.286-.044-.396-.637-1.077-.725h.154c-.242-.154-.528.088-.813-.176-.22.22-.396-.11-.528.22l.637.066c-.373 0-.79.33-1.34 0 .066-.066.264-.11.395-.132-.153-.132-.351 0-.505-.154.132-.33.77.088 1.209-.087-.154-.176-.77.087-.506-.242-.373.417-.659-.22-1.186.044l.088-.198s-.264.088-.396.044l.308-.198c-.418.132-.66-.35-1.055-.307.747.154.11.285.373.505-.988.066-.395-.615-1.428-.856.154 0 .484.285.242.307-.176-.11-.418-.263-.484-.417-.68-.176.044.241-.285.263-.154-.307-.352 0-.681-.022l.066-.197c-.726-.374-.352.351-.99-.022l.396-.176-.373-.044.153-.198c-.439.044-.57-.021-.9-.263.021.176-.198.33-.528.198-.176-.22.198-.132-.264-.308.154-.066.33-.175.462.088.044-.066.154-.088.198-.132-.176-.241-.572-.285-.748-.373.066.044.132.088.154.132h-.79c-.067-.132.043-.154.153-.176-.154-.044-.286 0-.483-.066.132-.132.175-.307.505-.263l-.703-.11s-.242-.33-.132-.352c-.308-.22-.989-.11-1.362-.483h-.198c-.396-.263-.66-.658-1.275-.724l-.11-.418c-.417-.153.176.55-.527.286-.505-.198-.022-.33-.132-.505-.285 0-.835 0-1.099-.483.154.044.242.153.374.22l.11-.286zm-4.395-3.25c.11.044.374.066.33.22-.264.109-.242-.045-.33-.22zm-5.757-6.062s.132.154.154.308a.582.582 0 01-.154-.307zM.882 30.047c-.11.242-.066.176 0 0zm.153-.505s-.044-.066-.088-.044c.044.044.044.154 0 .286.066-.022.11-.088.088-.242zm30.369 39.837l-.088-.066c.242-.022.154 0 .088.066z" fill="#681418"/><path d="M8.22 53.28s-.043.067-.065.11c.044 0 .088 0 .066-.11zm12.35 10.322v.022l.044-.022h-.044zM2.552 37.426s-.066.154-.088.197c.044 0 .088-.043.088-.197zM1.19 26.774v.33c0-.154.065-.198.109-.286-.044 0-.132.044-.11-.066v.022zm2.065-2.394s.022-.087 0-.153h-.088c-.066.176-.022.33.088.154zm-1.297 2.263c.176 0 .176-.197.198-.417v.044c-.22-.132-.198.132-.198.395v-.022zm.198-.483s.022-.132.044-.198c-.088-.044-.044.088-.044.198zM.991 28.883s-.22-.11-.132-.153c-.22-.154.154.768.132.153zm1.583-2.284l-.242.022.132.175.11-.197zm-.572 1.713l.132-.352s-.044-.044-.044-.11c-.066.22-.132.462-.088.462zm.088-.462c.022-.11.044-.22.022-.285 0 .066-.044.198-.022.285zm.418-.746l-.066.088-.066.241.132-.329zm-1.055 5.073v.395s.132-.066.132-.198c-.044-.088-.044-.241-.132-.197zm.725-1.12s-.11.11-.198.154l.264.044-.088-.198h.022zm-.066 1.142s.154.571.198.088c-.066-.044-.088-.44-.198-.088zm-.242 5.885l-.022-.088-.44.044.462.044zm1.978 4.854c-.022-.461-.308-.022-.286-.461-.131-.066 0 .351-.131.263.197.242.175.396.417.198zm-.418-.198l-.11-.11c.045.066.089.11.11.11zm46.586 25.057l.33-.022-.242-.066-.088.088zm.44-.506l.175.242.088-.307s-.176.11-.242.066h-.021zM13.033 57.74l-.066.043s.022.132.11.242l-.044-.286zm2.813 2.744l-.044-.066-.066.285.11-.22zm2.879 1.603s-.264-.132-.374-.22c.264.132.22.505.374.22z" fill="#681418"/></svg>