<svg width="71" height="70" fill="none" xmlns="http://www.w3.org/2000/svg"><path d="M52.372 41.301c-.347-.305-.998-.326-1.236-.348a8.161 8.161 0 01-2.256-.566 45.8 45.8 0 00-2.689-1.045h-.043c-1.258-.566-2.624-.675-3.253.196-.586.805-.325 2.133-.542 3.2 0 .066-.022.153-.065.196-.022.066-.087.109-.174.109-.65.022-1.474-.414-2.168-.544-.911-.175-1.583.13-2.082.696-.456.523-.477 1.437-.39 2.352v.043c0 .74.043 1.524.086 2.286.044.632.065 1.241.022 1.83-.044.609-.217 1.11-.282 1.676-.022.217-.043.413.043.675.044.13.195.283.304.348.716.5 4.077 2.286 7.416 3.135.196.044.413.109.608.13 1.062.218 2.103.349 3.057.284 2.798-.24 4.056-2.613 4.403-5.661.021-.196.043-.414.065-.61.282-3.44-.347-7.293-.607-8.12a.62.62 0 00-.196-.305l-.021.043z" fill="#DC5137"/><path d="M49.292 18.484s-.195.087-.238.087c.13.11.282-.13.238-.087zm1.345 1.024l-.087.022.325.065-.238-.087zm.846 1.262c.238-.326-.304-.457-.37-.74l.044-.087-.325.065c.239.24.629.5.65.762zm-.303 1.111c.108-.109.195.087-.044-.174v.044c0 .021.043.065.065.13h-.022zm-.066-.131c-.087-.13-.065.152 0 0zm.434.588l-.217-.109s0 .24-.065.218c.173.152.217.065.282-.11zm.347.022l-.109-.065s0 .065.11.065zm-.325-.196l.216.13s.152-.108-.087-.065c.109-.043 0-.021-.13-.065zm-.022-.13c0-.131 0-.305.195-.175-.239-.326-.456-.13-.195.174zm.304-1.394v-.197l-.174-.043c.087.022.065.327.174.261v-.022zm.086 2.918s.173-.153.26-.218l-.152-.087s0 .261-.108.305zm.26-.218l.218.152c-.065-.196-.152-.196-.218-.153zm.087-1.132l-.455-.196.498.261-.043-.065zm0 2.132l-.217-.043.347.087-.13-.043zm.26.502c-.173-.021-.195.218-.325.153.065.13.239.196.39.283-.108-.087-.13-.218-.065-.436zm.305.566s-.13-.087-.218-.13c.065.043.13.086.218.13zm-.304-1.546s-.13.109-.13.261l.173-.174-.043-.087zm.021.066zm-.195-1.089c.173.065.412.261.477-.066-.174 0-.217.175-.477.066zm.368.784l-.065-.24s-.108.11-.195.066l.26.174zm.11.065l-.11-.065.022.087.087-.022zm.064 1.24c.13.066.173.175.217.284 0-.153-.022-.284-.065-.414-.065 0-.217 0-.152.13zm.629 1.502l.043-.043-.043.022v.022zm-.433-1.653c0-.11-.066-.153-.153-.175.066.066.087.131.13.218.044 0 .044 0 .023-.043zm-.066.914s.044-.13.066-.217c-.044.065-.131.217-.066.217zm-.282-1.176l.196.065a.947.947 0 00-.152-.13s-.022.043-.044.065zm2.298 1.895a.335.335 0 01-.346-.48c-.239-.195-.846.175-1.15.48.087 0 .174-.044.37.152.086-.109.086-.588.324-.457.217.283 0 .283-.043.457.217-.196.455.305.824.13l-.195-.26s.173.065.217-.044v.022zm-1.604-.458l-.065-.087c0 .11-.043.218-.173.414.151.13.238.13.303.13l-.13-.457h.065z" fill="#681418"/><path d="M53.26 25.451c.24 0 .413.196.608-.022-.108-.283-.239-.13-.39-.261.195.435-.174-.087-.174.283a.58.58 0 01-.13-.218c0 .087 0 .174-.022.261 0 0 .044-.043.022 0h.087c0 .153-.044.044-.087 0h-.043l.26.392s-.043-.217-.152-.413l.022-.022zm.131-2.656l-.043.044c.043 0 .065 0 .043-.044zm-.043.24s-.13 0-.174-.13c0-.131.109-.044.174-.088-.087-.043-.239-.152-.26.087h.043c0 .24-.152.566-.195.566.173-.13.282-.24.412-.457v.022zm.065 1.197l.26.327.108-.261-.108.043c-.044-.218-.174-.13-.26-.109zm.043 2.265l-.26.021.412.11-.152-.131zm.153.478l-.196.044.152.087.044-.13zM42.917 52.492l-.087.109s.065-.087.087-.109zm.846-.392v-.109s-.044.11 0 .11zm9.086-13.128c-.239.087-.607.13-.369.196l.239.043c0-.13.065-.196.13-.24zm-3.774 7.924h.088s-.044-.152-.066-.24v.24h-.022zm.585.784l-.281.044s.174 0 .282-.043zm-11.492 6.532l-.11.261c.24-.043.11-.152.11-.261zm16.178-22.186a.695.695 0 00-.131.349c.13-.175.327-.305.13-.349zM42.245 50.098s-.044.13-.022.174c.043-.066.065-.13.022-.174zm11.949-17.309l.065-.065a.875.875 0 01-.065-.327c-.11.13-.153.261 0 .414v-.022zm-33.375 16.96v-.044c-.022.022 0 .044 0 .044zm-2.082-5.182s.087.087.152.131c0-.044-.043-.087-.152-.13zm35.999-16.285s.065.022.13.022c-.065 0-.087 0-.13-.022zm-.716.501s-.044.087-.044.152c0-.022.044-.065.044-.152zm-.108.043v-.087c-.044 0-.066 0 0 .087zm.043.283v-.174c0 .021-.044.021-.044.021 0 .022 0 .066.022.153h.022zM29.754 53.341c-.131.044-.088.044 0 0zm23.94-10.647v-.021h-.021l.021.021zm-.064.459c-.13-.305-.066-.37.043-.458l-.629-.218.586.676z" fill="#681418"/><path d="M40.878 53.341l.347.087c-.238.458-.542.414-.173.61-.196-.697 1.106-.5.889-1.197l.238.065s-.043.065-.108.065c.499.175.087-.588.585-.675.174 0 .326.022.26.153l.283-.327s.13.087.021.13l.499-.304c.022-.109.108-.348.173-.457.174.022-.021.109.044.174l.217-.305c.195.109.043.392-.174.457.607.501.174-.26.933-.217-.065.087-.152.152-.217.24.368.282.499 0 .954.043-.152-.066-.932-.196-.716-.545.109 0 .239-.043.326-.283.13.218.26.066.455-.065l.174.305c.173-.218.065-.349.108-.566.26-.11.455.065.629.218.412-.197-.499-.197-.087-.523.369-.109.52-.392.76-.806.281-.065.086.196.216.218v-.348s.108.043.13.087c.087-.196-.195-.283 0-.544-.152-.327.824.043.846-.545.13 0 .108.196.217.283.217-.544.195-.457.282-1.001l.412-.066c-.369 0-.304-.457-.282-.827-.152-.022-.282-.043-.347-.043l.195-.458s.13.11.174.283v-.108c.195-.022.281.174.325.392h-.26c.065.195.151.435.303.566 0-.044 0-.11.044-.175 0 .066.043.11.065.131.043 0 0-.065 0-.196l.347.196-.087-.13.607-.284c.022-.61-.087-1.219.195-1.85.109.305.325.326.564.544-.39-.087-.217.523-.542.74.152-.109.238.022.26.087.087-.217.152-.457.195-.696.196.196.239.021.434-.044-.499-.24.022-.61.065-.914.152.109.26.26 0 .479.542-.022-.195-.74.282-.806-.043.065-.087.087-.043.153 0-.24.368-.523.412-.349l-.044.066c.347-.392.89-1.329.542-1.633.044.021.434.348.477.413a18.15 18.15 0 00-.823-1.567c.303.261 1.257.457 1.236.958a.538.538 0 00.238-.48c-.087.044-.585-.086-.564-.217.52-.065.304-.087.824-.24-.13.066-.607-.348-.498-.5.065.065.542.261.563.348l-.303-.718c.043.152.434.24.65.217-.13 0 .174-.392.174-.544l-.217.13c.304-.5-.542-.848-.304-1.35.087.11.651.436.825.197-.24-.24-1.15-1.067-1.258-1.568h.195l-.087-.435c.369.326 1.128 1.284 1.323 1.763.217-.152.239.022.304-.283.195-.065.195.261.151.348.13-.217.217-.457.347-.696-.347-.087-.173-.675-.455-.719l.108.893c-.347-.087-.824-.784-.607-1.241.174-.087.586.283.694.305-.087-.109-.087-.545 0-.566l.108.261c.217-.261-.303-.588.087-.85.044-.108.52-.26.326-.326-.434.11-1.67-.152-1.952-.348.043-.022.499-.5.716-.588.346-.13.693.436.997.327-.087-.022-.195-.153-.217-.218.109-.109.282.109.304-.174-.347-.109.152-.544-.282-.174-.043-.283.152-.262.152-.588-.239.065-.76-.392-.846-.653.087.022.217 0 .282-.044.087-.522.282-.805.325-1.306.087-.044.195-.283.347-.174-.065-.066-.195-.153-.195-.305.303-.305.043.348.434.13-.217-.021-.304-.413-.434-.63-.325.064-.065.5.065.74-.455 0-.932-.414-1.128-.893-.108-.392.282-.174.217-.24.087-.762-.802-.588-.542-1.219.26-.261.564-.065.759-.152.152.326-.13.522-.087.74l.109-.283s.217.326.13.435c.26-.24-.087-1.306.087-1.938-.109-.087-.217-.26-.326-.152l.065.174c-.216.196-.347-.305-.433-.043-.174-.218-.5-.436-.456-.806l.304-.13s-.13.26-.022.326c-.173-.109.325-.61-.13-.675l-.173.283c-.217-.217-.608-.413-.586-.74-.282.218.043.065-.26.348.412-.283.152.74.564.349-.39.305-.109.413-.412.74.108-.022.173-.13.173.109.043 0 .087.022.108.043.044-.065.087-.13.13-.152.282.065.304.479.456.588-.043.152-.13-.044-.238.043l.216.174c-.238.044-.347.436-.52.11v.304c-.087.196-.109.457 0 .588-.044.152.303.348.108.24.065.152.109.326.152.479h-.065c-.022.479.412 1.001-.022 1.545.044.175.109.327 0 .61l-.216.044c.043.217-.26.587-.066.696-.542.152-.238.958-.433 1.306l.26.066c-.065.24-.043.5 0 .827l.239.044c.151.326-.347.631-.456 1.045-.087-.066-.022-.153.043-.218-.672.326.087 1.176-.498 1.48.043.131-.022.196-.109.262v-.022.044s-.152.065-.195.108c.065-.021.13-.043.174-.065-.022.087-.066.218-.044.37l-.26-.043v.021c-.13.087.065.153.282.153 0 .087.043.152.065.218-.412-.066 0 .391-.477.326.173.174-.174.675.195.936-.065-.021-.108 0-.065-.065-.108.109-.239.218-.195.392l-.325-.109.216.5c-.26.088-.412.088-.52-.217.108.631-.065.414.043.958l-.173-.13c-.065.13.021.478-.174.457-.26.021-.498.348-.759.74-.303.348-.65.762-1.04.98.563.283-.456.13-.11.457-.13-.066-.281-.022-.281-.218-.173.414-.607.305-.52.784-.13-.066-.087-.218-.196-.24 0 .044 0 .196-.086.153-.087-.022-.044-.13-.044-.218-.282.327 0 .675.282 1.002-.303 0-.347.108-.282.435-.152-.044-.347-.065-.173-.283-.13.087-.846.457-.63.74-.086-.043-.173.13-.194.174-.282.218-.326.218-.564.458h.108c.152.391-.173.239-.368.435v-.044c-.716.131-.152.283-.868.37l.174.197c.26.478-.63.087-.824.435l.195.065c-.065.261-.868-.348-1.063-.305-.065 0 0-.108.043-.152-.607 0 .109.327-.173.588-.152-.13-.152-.435-.39-.348-.174-.066-.347.892-.824.718.13.087.26.174.151.348-.238.175-.889-.152-.91.349-.044 0-.066-.044-.087-.087-.13.217-.542.435-.564.696-.499-.762-1.063.871-1.344.087-.196.11-.39.153-.586.218v-.087c-.412.065-.499.283-.586.5-.108-.021-.065-.13-.065-.173-.607 0-.65.065-1.062.544l-.109-.261c-.108.174-.91-.262-1.43.152 0-.022 0-.087.042-.13-.628.37-1.583-.61-1.778.37-.152.087-.282.174-.433.239.563.087-.087.414.151.588-.238.043-.585-.305-.303-.349l.043.044c.109-.5-.716-.196-.694-.544-1.106.043-2.147-.436-3.123-.632l.044.414-.347-.109c-.065-.109-.065-.326.195-.261-.087-.24-.456.087-.477.152-.456-.26.303-.392.152-.435h-.217l.043.043c-.195.11-.26.283-.542.196-.174-.13-.043-.26-.108-.283 0-.021 0-.043-.109-.043-.152-.044-.282-.11-.412-.174l.087.348c-.239.087-.39-.152-.304.24-.13-.632-1.54-.74-1.648-1.002-.347.087-.607-.044-.89-.218.044.087-.042.436-.303.261.412-.587-.368-.522-.325-1.088 0 .414-.759-.348-.716.24-.195-.175.13-.24.044-.48-.63-.087-1.02-.805-1.648-1.175-.065.065-.044.261-.26.283v-.61c-.174-.043-.456.349-.478-.065 0 .087-.043.218-.151.174-.456-.61-1.063-1.002-1.605-1.502-.564-.48-1.128-1.002-1.258-1.85 0 .26-.108.173-.217.065.022.108-.173.152-.26.26l-.13-.696c-.347.152-.456-.479-.76-.327l.174.11c-.477.043-.433.848-.845 1.153.542-.065.021 1.067.845 1.002 0 .152-.173.043-.238.174.238-.044.368.044.498.327H18c.608.544.716.936 1.28 1.676l.13-.24c.13.153.087.24.13.349.412-.13-.39-.392.043-.566-.173.588 1.02.914.803 1.458.238.196.108-.283.347-.087l-.044.175.196-.11c.13.153.086.37 0 .48-.022-.044-.13-.066-.174-.087.087.304.629.392.65.5l-.173-.261c.716.435 1.518 1.067 2.364 1.241v-.13c.629.13.369.37 1.02.566h-.044a.858.858 0 01.52.087c-.216.043.174.392-.086.435.694.065.368-.022.954-.24v.218c.217-.109.26-.174.585-.109-.325.066.087.349-.282.458.52.653 1.128-.066 1.236.653.478-.414-.477-.501-.26-.545-.086-.217.39-.304.564-.174.195.066.13.828.694.936-.065 0-.065.022-.13 0 .173.196.455-.087.65.196.217-.283.326.11.456-.304h-.52c.325-.066.693-.48 1.084-.131-.044.065-.217.152-.326.196.109.152.282 0 .39.152-.13.414-.628-.065-1.018.175.108.217.65-.153.39.26.347-.522.542.218.997-.173l-.065.24s.217-.132.326-.11l-.26.305c.347-.24.563.327.889.218-.63-.066-.109-.327-.347-.545.802-.24.347.719 1.257.719-.13 0-.433-.218-.238-.305.152.065.369.196.477.327.586-.044-.065-.262.195-.414.174.305.282-.109.542-.218v.262c.65.174.174-.523.76-.327l-.26.348.303-.087-.065.283c.347-.217.433-.13.78-.087-.086-.174.022-.479.304-.5.195.13-.087.26.303.195-.086.175-.173.37-.368.153 0 .087-.087.174-.109.261.217.152.543 0 .694 0-.065 0-.13 0-.173-.044l.564-.391s.043.174-.022.26c.108-.043.195-.151.369-.195-.022.218 0 .435-.239.544l.542-.283s.326.196.26.283c.347.066.716-.544 1.15-.457 0-.044.043-.087.13-.13.39 0 .802.152 1.193-.262l.347.283c.325-.174-.477-.37.087-.653.39-.24.238.261.412.327.151-.24.39-.697.867-.545-.108.11-.217.087-.325.174l.173.196zm4.055-1.98s-.108.326-.238.217c-.065-.305.087-.218.238-.218zm4.945-4.573s-.087.153-.217.153a.332.332 0 01.217-.153zm4.402-16.72c-.087.195-.043.13 0 0zm.065-.37s-.065-.023-.108 0c.065 0 .087.086.065.195.065-.022.108-.087.043-.196zM29.015 51.36l.044.087c-.173.044-.108 0-.043-.087z" fill="#681418"/><path d="M49.596 47.593l-.13-.065c0 .065.043.087.13.065zm6.702-11.909s-.11.109-.153.13c.065 0 .13 0 .153-.13zm-2.69-7.772l.109.217s0-.152.043-.217c-.065 0-.13.087-.152 0zm.976-2.395s-.021-.065-.065-.087l-.109.044c.066.13.175.218.175.043zm-.195 2.003c.216-.066.108-.196.021-.349-.303.044-.173.196-.043.349h.022zm0-.392s-.044-.088-.044-.153c-.13 0 0 .065.044.152zm-.239 2.155s-.282 0-.195-.065c-.282-.044.39.457.195.065zm.89-2.068l-.24.13.24.044v-.174zm.108 1.372v-.283s-.065 0-.087-.065c.022.174 0 .348.087.326v.022zm-.087-.349s-.043-.174-.087-.195c0 .043.044.152.087.195zm.152-.675l-.044.087.022.196.022-.283zm.13 3.941l.087.305s.152-.043.109-.152c-.066-.066-.11-.174-.196-.13v-.023zm.715-.958s-.108.088-.195.153h.325l-.13-.153zm.109.893s.26.457.238.044c-.086-.022-.173-.349-.238-.044zm-.846 4.55v-.087l-.52-.109.52.196zm-.021 4.333c.26-.305-.283-.218 0-.458-.087-.13-.24.196-.304.088.043.26-.087.348.282.391l.021-.021zm-.304-.392s0-.087-.022-.13c0 .065 0 .108.022.13zm-36.562 3.832l-.066-.24-.043.24h.109zm-.608-.065l.238-.262-.325.088s.13.087.087.152v.022zm28.018 7.924v-.087s-.152-.044-.26 0l.26.065v.022zm-3.078 1.284h.065l-.218-.261.153.261zm-2.516 1.307c.108 0 .216-.13.346-.13-.238.13-.477-.218-.347.13zm5.681-35.444s-.087.195-.108.217c.043-.043.13-.283.108-.217zm.347-.414l-.043.087.108-.196-.065.109zm.152.065c.131-.349-.065.043-.043-.11v-.086l-.109.283c.044-.022.174-.196.153-.087zm-.26.784c.043-.13.065-.108 0-.043v.043zm.087-.066l-.066.11s0 .108-.043.173c.043-.065.087-.13.13-.283h-.021zm.129-.239v.044s-.043.043 0-.044z" fill="#681418"/><path d="M46.3 19.05l.065-.109s.065-.174-.022.044c.044-.109 0 0-.043.065zm0-.065s.022-.13.109-.24c-.066.022-.153.284-.11.24zm.282-.935v-.11l-.044.11c.022-.066 0 .108.044 0zm-.282 1.328s.087-.196.108-.305l-.043.087s0 .109-.065.218zm.13-.306l.065-.109s-.043.044-.065.11zm.13-.566l-.152.261.153-.261zm-.173.914l-.087.175.13-.261-.043.087zm.065 0c-.065.153-.109.24-.13.327.021 0 .086-.13.152-.24-.044.066-.044.044 0-.087h-.022z" fill="#681418"/><path d="M46.539 19.355s-.044.087-.088.152c0-.021.044-.087.088-.152zm-.022-.348s-.066.174-.066.218l.088-.218h-.022zm.021-.283c.066-.109.153-.218.196-.413-.065.13-.109.239-.196.413zm.087.021v-.065s-.065.13-.087.196l.087-.13z" fill="#681418"/><path d="M46.647 18.68l-.022.066v.021l.022-.087zm-.065.458s.065-.087.087-.109v-.087c-.022.065-.087.174-.066.174l-.021.022zm.195-.044l.021-.044-.021.022v.022z" fill="#681418"/><path d="M46.669 18.92l-.044.065.044-.022c0-.021.021-.043 0-.043zm-.044.348s.022-.087.044-.13c-.022.064-.066.173-.044.13zm-.065-.174l.065-.13s-.022.043-.043.065c0 0 0 .043-.022.065zm.846-1.328c-.087.196-.196.37-.13.152-.087.13-.348.784-.478 1.154.044-.087.066-.152.152-.261.044-.11.065-.262.152-.436.065-.087 0 .087-.043.196.086-.24.195-.326.347-.697l-.087.11s.065-.131.087-.197v-.021zm-.651 1.241s-.021.13-.087.305c.066-.087.087-.153.131-.218l-.044-.044v-.043z" fill="#681418"/><path d="M46.712 19.007c.108-.217.151-.283.238-.522-.043 0-.087.174-.152.261.066-.043-.065.109-.086.24l-.044.043v.087l.044-.087c0 .044-.022.066-.044.087v.044l.087-.087s0-.022-.043 0v-.066zm.195-1.023s-.065.109-.065.087c0-.065.043-.109.065-.174-.022.044-.087.152-.109.261 0 0-.108.327-.13.349.065-.196.13-.327.196-.523h.043zm-.065.457l.087-.087.065-.196-.043.11s-.066.086-.087.173h-.022zm-.108.762l-.087.218.152-.305-.065.087zm.065-.022l-.087.196.065-.109.022-.087zm1.106.501c-.065.174-.196.457-.087.26l.109-.217s-.022 0 0-.043h-.022zm1.388-.85v-.065s-.044.13-.087.196l.087-.13zm1.843-.609l.13-.196s-.065.087-.13.196zm-3.839 1.089s-.021.13-.021.152c.043-.13.108-.305.021-.152zm2.017.958s.044-.065.087-.109c-.022.022-.044.066-.087.109zm-1.994-.806v-.044c-.023.022-.044.066-.044.044-.022.087-.044.152.043 0zm-.044-.957s.021-.044.043-.11c-.022.045-.044.088-.044.11zm-.347.848v-.021c0 .043-.022.065 0 .021zm2.428-1.851c-.151.24-.13.218-.13.153l-.282.61.412-.763z" fill="#681418"/><path d="M50.81 18.245l.087-.196c.217-.283.174-.152.304-.435-.369.61-.13 0-.52.631l.064-.13h.022c.152-.327-.282.413-.282.304 0-.065.065-.152.108-.218l-.13.131s.065-.13.065-.109h-.086c-.065.087-.174.24-.217.305.043-.087.043-.065.087-.152l-.109.13c.087-.174.195-.305.195-.283.347-.631-.108.153.044-.261l.065-.065c.195-.37.087-.24.195-.48-.065.131-.26.588-.39.74 0-.043 0-.086-.066.044.13-.217.087-.174.066-.174l.173-.305s-.152.218-.239.349c0-.044.13-.283.217-.48 0-.065-.195.393-.26.415.043-.131-.065-.022-.195.13.043-.109.108-.174.152-.261l-.152.218s.043-.087.065-.11c-.065.088-.173.305-.239.37-.195.327.217-.5-.021-.152.043-.087.108-.174.173-.304-.173.217-.13.152-.347.457l.087-.218c-.108.24-.282.48-.412.697a5.28 5.28 0 01-.108.261l-.13.13s.086-.152.151-.282l-.043.065c.043-.109.152-.283.26-.457l-.087.196c.109-.174.217-.37.326-.544-.022.043-.044.065-.065.065l.065-.13c0-.023-.022.02-.065.108l.173-.348-.065.13.065-.24c-.217.306-.52.785-.65.893.151-.239.216-.392.368-.696-.152.326.109-.11.109-.022 0-.044.086-.174.108-.218l-.217.24c.13-.24.087-.196.13-.283-.238.479-.217.283-.303.435.086-.152.173-.326.173-.261.152-.37-.325.544-.195.218 0 0 0 .021.043-.044-.086.13-.065 0 0-.13 0 0-.13-.066-.347.326.022-.044.26-.479.304-.566l-.78 1.328c.173-.348.585-1.198.715-1.372 0-.065.022-.13-.065 0 0 .044-.239.523-.26.545.173-.392.086-.218.217-.566-.022.087-.304.631-.326.587l.304-.587-.304.522s.239-.457.304-.61c-.044.11-.044-.021-.065 0l-.044.131s-.412.74-.455.675c.065-.109.347-.675.369-.762-.152.261-.694 1.306-.846 1.502l.065-.152-.108.174c.238-.414.715-1.263.889-1.59.043-.13.086-.195.043-.195.065-.153.13-.218.13-.218v-.13c-.173.326-.217.304-.347.566l.239-.305c-.152.326-.477.892-.5.827.044-.13.283-.566.326-.675-.065.109-.152.196-.108.109l.108-.174c.022-.13-.238.413-.13.087 0-.022.174-.436.065-.24-.152.37-.694 1.524-.846 1.808 0-.022.13-.37.196-.567.108-.304.347-.674.455-.936a1.39 1.39 0 01-.13.218c.022-.087.13-.283.087-.24-.152.327-.044-.043-.152.284-.065.087 0-.088-.022-.088a6.445 6.445 0 01-.434.806c.044-.087.087-.196.109-.24-.044-.043 0-.217-.022-.239.044-.087.065-.196.13-.327-.043.066-.087.174-.108.174.108-.304.043-.021.195-.391-.087.196-.152.24-.239.37-.13.305 0 .087.087-.044-.195.414-.412.828-.542 1.002-.087.087.108-.283.065-.218-.043-.109-.369.697-.303.37.086-.261.238-.522.303-.718.065-.087-.022.196 0 .174v-.13s.13-.131.108-.066c.087-.24-.086-.087-.043-.349-.043.088-.108.175-.152.284h.044c-.087.195-.152.24-.174.348-.087.13-.217.37-.195.24l.13-.305s-.065.196 0 .108c-.065.131.13-.435-.065-.043l-.065.218c-.087.13-.26.457-.239.348-.108.305 0-.044-.108.327.174-.436.065.043.239-.414-.152.414-.044.196-.174.544.044-.109.065-.196.065-.13 0-.022.044-.066.044-.087 0-.044.043-.11.065-.153.108-.218.151-.196.217-.305 0 .044-.066.11-.087.218l.087-.174c-.087.218-.13.37-.217.5h.021c-.043.153-.043.218 0 .131 0 .044.152-.217.044-.065l.108-.109v.065s.239-.326.109.087c.043-.043.086-.108.086-.043l-.086.196s-.022.218.065 0c-.217.522.043.152.021.261l.109-.24s.065-.043.151-.13l.109-.218c.108-.174 0 .174.043.174-.043.087-.043.066-.021 0-.195.501.26-.304.13.066.043-.066.043-.044.021 0a.303.303 0 01-.043.13c0-.065.043-.109.043-.13 0 0 .044 0 .066-.066l-.109.24s.065-.109.152-.283a.456.456 0 01.087-.13c-.174.37.086-.11-.087.282.108-.196.13-.109.347-.522l-.043.087c0 .043 0 .109.043 0l-.152.305.217-.37a2.076 2.076 0 01-.239.5c.217-.326.087-.13.304-.435l-.108.196s.173-.24.086-.087c-.151.37.109.13 0 .5.282-.566-.108.262.13-.152-.065.13-.086.218-.173.327.108-.11-.065.24.152-.11-.065.131-.109.197-.152.262 0-.022.065-.109.043-.022a.456.456 0 01-.108.153c.043 0 .26-.392.477-.762-.087.196-.065.174.087-.066-.065.131-.13.262-.174.283 0 .022 0 .218.152-.065-.043.087 0 .022.022 0 0 .044 0 .065.043.044v-.044c.239-.348.087-.065.13-.087v.043c-.108.284.065-.108-.043.218l.13-.218c.282-.478-.108.305 0 .153l.065-.13c.108-.153-.325.674-.347.74 0 .043-.043.065-.065.087-.13.304.173-.283.239-.327-.087.152-.239.392-.239.436-.065.13.369-.48.217-.153.065-.13.13-.24.195-.326.043-.022-.217.5.043.13l-.043.087s.152-.13.282-.326c-.434.762.325-.305-.087.392h.087l-.043.065c0 .065.13-.087.238-.261 0 .043-.065.108-.087.152-.043.174 0 .152.239-.174l-.13.217c.087-.13-.152.392.065.175 0 .021-.044.065-.065.087.217-.24-.26.697.282-.109l.151-.174s.217-.349.282-.501c.044-.043-.108.283-.151.305v-.044c-.26.414 0 .196-.196.48.109.043.044.326.13.413l.196-.348v.043s-.13.261-.152.24c-.108.196.13-.131.173-.196-.043.152-.26.37-.26.392h.044v-.066c.108-.13.195-.261.216-.24-.021.088-.108.218-.13.218 0 .022 0 .044 0 0v.044l.174-.261c.108-.11.021.043.195-.261-.26.479.043.26-.022.413.152-.174.174-.152.174-.109.021-.065.217-.348.217-.305-.39.61-.109.284-.369.74.173-.304.108-.021.347-.457 0 .066-.13.218-.217.37.195-.195 0 .218.13.175.044-.087.109-.218.195-.327l-.217.414s.304-.457.152-.152c.044-.066.087-.175.13-.196-.13.457.456-.153.109.653.087-.174.108-.174.108-.174 0-.044.13-.196.196-.305l-.13.326c.194-.283.064 0 .26-.26l-.044.043c.239-.327.434-.762.716-1.198-.26.37.282-.61-.087-.087.044-.087.087-.13.152-.24-.13.175-.174.218-.13.11v-.044s.022-.196.022-.37l-.13.218s.043-.11.064-.175c-.217.305.022.044-.217.392.26-.457-.108-.065.196-.588-.022 0-.152.262-.174.24l.087-.13-.108.173s.108-.217.173-.326c0 0 .022-.022.043-.022.087-.174-.086 0-.065-.043v.087c-.173.087-.152-.153-.368.087l-.065.108c-.174.153.021-.13-.087-.087 0 0-.13.11-.13.087.087-.108.108-.239.217-.37-.174.175-.13.131-.39.501l.086-.174c-.108.152-.152.218-.217.261.109-.13.152-.261.282-.435.174-.392-.325.326 0-.24-.325.457-.108.283-.195.37-.087.153-.239.327-.217.284 0 0 .347-.61.282-.632h.022c.065-.152-.13.109-.044-.087-.195.283 0-.044-.238.327l.087-.066s-.37.48-.282.261c.043-.065.13-.152.151-.195.065-.11-.065.065 0-.066.217-.348.109-.043.304-.305.087-.152-.217.24.043-.152-.325.48 0-.087-.26.261l.13-.217s-.108.13-.108.108l.195-.26c-.174.217.087-.24-.022-.131.044.021-.151.26-.217.435-.238.24.326-.588.174-.523.022-.021-.044.153-.13.24a.73.73 0 01.108-.261c-.065 0-.13.217-.238.348.151-.261-.087.087-.152.174l.13-.218c.043-.174-.304.458-.239.24l.217-.283-.065.065.152-.24c-.152.175-.13.11-.108.023-.087.152-.239.392-.282.392.065-.131.13-.197.086-.197.087-.13.217-.304.087-.087l.13-.195c.087-.153-.021-.066-.043-.066v.066l-.239.282s.087-.152.13-.217c-.021 0-.086.109-.108.13.108-.174.217-.37.304-.435l-.174.174s.109-.218.152-.283c.043-.13-.282.305-.217.152a.303.303 0 01-.065.088c0-.066.108-.305-.087-.066l.174-.326s-.217.413-.347.522c-.087.087.152-.283.195-.37-.108.153-.347.457-.217.174.043-.043.022 0 .043 0l.152-.065zm-.455-.087s.13-.174.065-.044c-.152.24-.087.131-.065.044zm-.867.218s.043-.022 0 .065v-.065zm-2.343.74l-.043.087s.043-.065.043-.044c.022-.065.044-.108 0-.065v.022zm3.405 1.763v-.065s.044 0 0 .065zm-.845-2.787l-.066.13.066-.13zm1.387.174l.044-.043-.044.043z" fill="#681418"/><path d="M48.577 17.352s-.022.088-.044.131c.022-.065.044-.109.044-.13zm-1.779 2.068l.044-.043v-.087c-.022.065-.065.13-.065.13h.021zm.456-1.545l-.022.022-.043.109s.065-.087.065-.131zm-.13.761c.087-.195.044-.13 0-.108-.13.283-.065.196 0 .108z" fill="#681418"/><path d="M47.124 18.528c-.044.11 0 .022 0 0zm-.086.675s-.11.26-.088.174c-.13.24.175-.283.087-.174zm.346-1.241l-.087.261.087-.196v-.065zm.044.239v-.087s-.022.066-.044.087c0 0 0 .066.044 0zm-.022.001l-.044.021.044-.021zm.064-.283l-.021.043v.022l.022-.066zm.196.457l.065-.066s.066-.13.022-.108c-.044.065-.065.087-.087.174zm.239-.719s-.044.109-.066.196l.131-.305-.065.109zm.108-.022s.152-.218.109-.218c-.044.088-.11.131-.11.218zm.217.567l-.239.479.239-.48zm.933-1.002c.022-.13-.152.305-.109.13-.065.11-.043.131-.087.219.087-.11.065-.044.196-.37v.021zm-.217.37s-.022.044-.044.066c0-.022.044-.044.044-.066zm2.602 4.246l-.044.108.087-.152-.043.044zm.261-.306l-.175.305.175-.26s-.044.021 0-.044zm-1.172-3.983l-.043.065s-.044.087-.044.109l.087-.174zm.153.37l-.153.283.152-.283zm.433-.197s-.044.044-.044 0c.044-.043-.152.328.044 0zM15.96 49.095s.196.044.24.044c-.044 0-.304-.066-.24-.044zm-.454-.239l.087.022-.218-.087.131.065zm.043-.152c-.369-.11.043.065-.087.065h-.087l.282.087c-.043-.043-.216-.152-.108-.13v-.022zm.803.196c-.131-.043-.11-.065-.044 0h.044zm-.066-.087l.109.065s.108 0 .173.043c-.065-.043-.152-.065-.282-.108zm-.238-.109h.043s.044.043-.043 0z" fill="#681418"/><path d="M16.2 48.79l-.109-.065s-.174-.065.044.022c-.109-.044 0 0 .065.044zm-.066 0s-.13 0-.26-.086c.044.065.282.152.26.087zm-.954-.217h-.108l.109.043c-.066-.022.109 0 0-.043zm1.345.196s-.195-.087-.304-.109l.087.044s.108 0 .217.065zm-.303-.109l-.131-.087s.044.043.13.087zm-.565-.13l.239.152-.239-.153zm.911.174l.152.087-.239-.152.087.065zm0-.087c.152.065.239.108.325.152 0-.022-.13-.087-.238-.152.065.043.021.043-.087 0zm-.065-.109s.087.066.152.087c-.021 0-.065-.043-.152-.087zm-.347.043s.174.065.218.065l-.218-.087v.022zm-.282 0c-.108-.065-.217-.152-.412-.196.13.066.239.088.412.196zm.022-.087h-.065s.13.066.196.087l-.13-.087z" fill="#681418"/><path d="M15.83 48.42l.066.044h.022l-.087-.043zm.457.045s-.087-.066-.087-.088h-.087c.065.022.174.087.174.066v.022zm-.022-.218l-.044-.022.044.022zm-.195.13s0 .022.065.066l-.022-.044c-.022 0-.044-.022-.044 0v-.022zm.347.066s-.087-.022-.13-.044c.065.022.174.065.13.044zm-.152.065s-.087-.044-.109-.066c0 0 .022.022.065.044 0 0 .044 0 .066.022h-.022zm-1.28-.958c.195.087.347.218.13.152.13.109.76.392 1.128.544-.087-.043-.152-.087-.26-.152-.109-.043-.26-.065-.434-.174-.087-.087.087 0 .195.044-.239-.11-.325-.218-.672-.392l.108.087s-.13-.087-.195-.087v-.022zm1.193.718s.108.043.282.109a.81.81 0 00-.217-.13l-.044.043h-.021v-.022z" fill="#681418"/><path d="M16.178 48.334c-.195-.11-.282-.175-.52-.262 0 .044.151.11.238.174-.022-.087.108.066.238.087l.044.044h.087l-.087-.044c.043 0 .065.022.087.044h.021l-.087-.109s-.043 0-.021.044v.022zm-1.041-.174s.108.065.087.065c-.066 0-.109-.044-.174-.066.043.022.13.087.26.109h-.021s.347.087.39.087c-.195-.065-.325-.13-.52-.196h-.022zm.477.065l-.087-.087-.195-.066.108.044s.087.065.174.109zm.759.065l.217.11-.304-.175.087.065zm0-.065l.174.087-.087-.065-.087-.022zm.781-1.481c.173.087.455.196.26.087l-.195-.108s0 .043-.044 0l-.021.021zm-.629-1.719h-.065s.13.044.196.087l-.131-.087zm-.715-2.003l-.218-.087.218.087zm.802 4.572s.13.021.152.021c-.13-.043-.305-.13-.152-.021zm1.496-3.004l-.13-.066a.354.354 0 00.13.065z" fill="#681418"/><path d="M16.785 47.571h-.043c.021.022.043.066.021.066.087.043.153.043.022-.044v-.022zm1.388-7.381s.021 0 .021.022c0 0 0-.021-.021-.021zm-2.429 7.49s-.043-.022-.087-.065c.044.021.087.043.087.065zm.824.37h-.022c.044 0 .066.023.022 0zm-1.431-2.96c.238.152.195.152.152.13l.585.306-.737-.458v.022z" fill="#681418"/><path d="M15.874 43.348l-.217-.043c-.303-.153-.195-.131-.477-.218.672.261.022.13.694.414l-.152-.044c-.347-.109.477.196.347.218a.564.564 0 01-.238-.066l.152.11s-.13-.044-.109-.044v.087c.109.065.26.152.325.174-.108-.022-.065-.044-.151-.065l.151.109c-.173-.066-.325-.153-.303-.175-.672-.26.152.11-.26 0l-.066-.065c-.39-.152-.26-.065-.498-.13.13.043.607.195.759.304-.044 0-.087 0 .043.066-.238-.11-.195-.066-.173-.022l-.304-.153s.239.131.369.218c-.044 0-.282-.087-.5-.174-.064.022.391.152.435.24-.13 0-.022.065.13.195-.109-.021-.195-.087-.282-.13l.238.152-.13-.065c.087.065.304.152.369.218.325.174-.52-.175-.152.043-.087-.043-.195-.109-.304-.152.217.174.152.13.478.348l-.217-.065c.238.087.499.261.694.413.108.044.217.087.26.11l.13.13s-.152-.087-.282-.153l.065.044a2.33 2.33 0 01-.455-.24l.195.088a4.668 4.668 0 00-.564-.305c.043 0 .065.043.065.065l-.13-.065c-.043 0 .022.022.109.065l-.348-.152.13.065-.238-.044c.304.218.78.523.89.675-.24-.152-.391-.217-.695-.37.326.153-.108-.13 0-.13a.51.51 0 01-.217-.11l.239.219c-.239-.131-.195-.088-.304-.11.477.24.282.218.412.327-.151-.087-.325-.174-.26-.196-.368-.152.52.349.195.218 0 0 .022 0-.043-.044.13.088 0 .088-.13 0 0 0-.109.153.282.392a18.047 18.047 0 01-.542-.326l1.28.849c-.326-.196-1.172-.61-1.324-.762-.065 0-.13-.022 0 .065.044 0 .499.261.52.283-.39-.174-.216-.087-.563-.218.087.022.607.349.564.349-.087-.044-.52-.305-.586-.327l.499.349s-.434-.262-.585-.327c.108.044-.044.044 0 .087l.13.044c-.109 0 .694.479.628.522-.108-.065-.65-.392-.737-.392.26.175 1.236.806 1.41.98l-.152-.087.152.152c-.39-.26-1.171-.827-1.497-1.045-.13-.043-.173-.087-.195-.043-.152-.066-.195-.153-.217-.153h-.13c.304.196.282.262.542.414l-.282-.283c.304.174.846.566.76.588-.13-.066-.543-.327-.651-.392.108.065.173.174.087.13l-.152-.108c-.13-.044.39.283.065.152-.022 0-.412-.196-.239-.087a24.8 24.8 0 011.735.98c-.021 0-.368-.13-.564-.218-.282-.13-.65-.414-.889-.523.087.066.174.131.217.153-.087-.022-.26-.153-.238-.109.303.196-.066.044.26.174.065.087-.087 0-.087.044.217.109.672.435.76.5-.088-.043-.196-.108-.24-.13-.065.043-.216 0-.26.043-.086-.043-.195-.065-.325-.152.043.044.152.109.152.13-.304-.108 0-.065-.369-.217.174.109.239.196.325.283.282.152.087-.022 0-.109.39.218.781.5.933.653.065.11-.26-.13-.217-.087-.108.044.65.457.325.37-.26-.108-.498-.26-.694-.37-.065-.087.196.022.196 0l-.13-.043s-.13-.11-.044-.087c-.238-.11-.13.13-.368.087.086.065.151.13.26.174v-.044c.195.087.238.196.347.218.13.109.347.261.195.24l-.304-.153s.195.065.109 0c.13.087-.434-.152-.065.065l.216.087c.13.11.413.305.304.283.304.131-.022-.021.325.131-.433-.196.065-.087-.39-.261.412.174.195.043.542.174-.087-.044-.195-.087-.13-.087-.022 0-.065-.044-.087-.044-.043 0-.087-.043-.151-.065-.217-.13-.174-.174-.282-.24.065 0 .108.066.216.11l-.151-.11c.217.11.368.153.477.24h.021c.13 0 .196 0 .109-.065.065 0-.217-.174-.044-.066l-.108-.13h.043s-.281-.283.13-.13c-.043-.044-.086-.11 0-.11l.174.087s.217.022.043-.087c.5.24.174-.065.282-.065l-.238-.13s0-.088-.087-.175l-.217-.109c-.152-.13.195 0 .195-.065.087.044.044.044 0 .022.5.196-.26-.327.109-.196-.065-.065-.044-.044.021-.044.044 0 .087.022.13.044-.065 0-.108-.044-.13-.044 0 0 0-.043-.065-.087l.217.13s-.108-.086-.26-.173c-.043-.022-.065-.066-.13-.11.369.197-.087-.108.303.088-.173-.109-.086-.174-.477-.392l.087.044c.065 0 .109 0 0-.066l.282.153-.369-.261c.196.065.304.108.5.26-.304-.239-.11-.108-.413-.348l.174.11s-.239-.197-.065-.11c.368.153.151-.174.542-.108-.564-.284.282.087-.152-.153.13.065.217.087.325.174-.108-.13.26.022-.087-.196.13.066.196.11.26.153-.021 0-.108-.087-.021-.044a.455.455 0 01.152.109c0-.065-.39-.283-.76-.479.196.065.174.044-.064-.109a.97.97 0 01.303.153c.022 0 .239-.022-.065-.175.087.044.044 0 0-.043.044-.044.065-.022.065-.087h-.065c-.368-.218-.065-.087-.086-.153h.043c.303.066-.109-.087.238 0l-.238-.108c-.499-.24.325.065.152-.066l-.13-.043c-.152-.11.715.24.78.24.044 0 .065.043.087.064.325.066-.303-.152-.347-.239.174.065.412.196.456.174.151.044-.5-.348-.152-.261a1.283 1.283 0 01-.347-.153c-.022-.065.52.11.13-.108l.108.043s-.13-.174-.347-.283c.824.305-.325-.326.434-.043v-.11l.065.023c.065-.044-.108-.131-.282-.218.065 0 .13.043.174.065.173-.043.151-.065-.195-.261l.26.065c-.13-.065.433 0 .173-.174.022 0 .065.022.109.044-.26-.175.78-.066-.152-.349l-.217-.13s-.412-.11-.564-.11c-.043-.043.304 0 .347.044h-.043c.477.13.195-.065.52 0 0-.174.326-.283.369-.479h-.39l.021-.087c.087 0 .304 0 .282.066.217 0-.173-.088-.26-.11.173-.065.455.088.455.066v-.044h-.065c-.152-.043-.325-.065-.303-.108.086-.022.238 0 .26 0 .021 0 .043 0 0 0l.043-.088h-.303c-.152-.043.021-.065-.326-.043.543 0 .217-.261.369-.283-.217-.044-.217-.087-.195-.153-.065 0-.412.022-.369 0 .716 0 .304-.087.824-.174-.347.066-.086-.152-.564-.043.065-.044.26-.022.434-.066-.282-.065.152-.26.022-.37-.087 0-.239.066-.369.066l.456-.153s-.543.087-.217-.022c-.065.022-.195.066-.217.044.412-.37-.477-.348.238-.893-.151.11-.173.087-.195.066-.043.043-.217.087-.325.13l.282-.24c-.326.131-.065-.108-.369.044h.065c-.368.131-.78.436-1.258.632.434-.153-.585.348.022.13-.087.044-.152.044-.26.11.217-.066.26-.066.173 0h-.043s-.108.173-.217.282l.239-.065s-.109.044-.174.087c.369-.087 0-.065.412-.152-.499.152 0 .13-.542.283 0 .021.282-.066.282-.044l-.152.044.195-.044s-.216.066-.347.087h-.043c-.174.066.065.044 0 .066l.087-.044c.152.044 0 .152.303.196h.109c.217.022-.13.044-.022.109h-.022c.109 0 .174.022.174.043-.13 0-.26.044-.434 0 .239.066.195.022.63.066h-.196c.173.021.282.021.325.065-.173-.044-.303 0-.52 0-.434.044.434.13-.195.13.542.066.303-.043.433 0 .174 0 .412.044.347.066 0 .022-.694 0-.694.043h-.043c-.152 0 .173.044-.043.044.325.044-.022.022.39.087l-.087-.065s.586.13.347.152c-.087 0-.195-.043-.26-.065-.13 0 .087.043-.043.043-.412-.065-.087-.087-.39-.152-.174 0 .303.087-.153.022.564.087-.086.043.347.13l-.26-.043.152.043-.325-.065c.282.065-.239 0-.109.065 0-.065.304.044.477.044.326.13-.65-.065-.564.022-.043 0 .152 0 .26.021h-.281c.043.066.26.044.412.11-.304-.044.108.043.217.108l-.26-.065c-.174.022.52.13.303.152l-.347-.109.087.044-.282-.065c.195.087.152.087.065.087.173.043.455.13.455.152-.151 0-.238-.065-.216-.022-.152-.043-.348-.108-.109-.065l-.238-.065c-.174-.022-.044.043-.044.043h.065l.326.153s-.174-.044-.239-.066c.022 0 .13.066.152.087-.195-.065-.412-.13-.499-.174l.195.11s-.238-.044-.325-.066c-.13 0 .369.196.195.174.043 0 .065.022.108.044-.065.021-.303-.022-.065.108l-.368-.108s.455.13.564.24c.108.086-.304-.088-.413-.11.174.087.521.261.217.196-.065-.043 0-.022-.021-.043l.108-.153zm-.043.523s-.195-.11-.044-.066c.26.131.13.087.044.066zm.195 1.001s-.022-.043.065 0c0 0 0 .022-.065 0zm.282 2.94l.087.043s-.066-.044-.044-.044c-.065-.021-.108-.043-.065 0h.022zm2.169-5.422h-.066.066z" fill="#681418"/><path d="M15.787 44.61l.131.066-.13-.065zm.066-1.567l-.044-.021.044.021zm-1.041 3.005s.087.022.13.043c-.065-.021-.109-.043-.13-.043zm1.8 2.176l-.043-.065h-.088l.131.066zm-1.54-.478l.022.022.109.043s-.088-.087-.131-.087v.022zm.781.109c-.196-.087-.13-.044-.109 0 .262.13.196.065.11 0z" fill="#681418"/><path d="M15.744 47.855c.022 0 .109.065 0 0zm.694.065s.239.131.152.11c.238.13-.26-.218-.152-.11zm-1.236-.37l.238.109-.173-.11h-.065zm.261-.087h-.088s.066.043.088.043c0 0 .087 0 0-.043zm-.001.065l.022.043s0-.021-.022-.043zm-.303-.065l.043.022.044-.022h-.088zm.521-.305l-.044-.066s-.13-.065-.109-.043c.044.043.066.065.153.109zm-.695-.24s.108.044.195.087l-.282-.152.109.087-.022-.022zm.001-.151s-.196-.175-.218-.131c.087.043.13.13.218.13zm.65-.327v.021l.477.261-.477-.282zm-.868-1.09c-.13-.021.282.175.13.131.109.066.13.044.217.11-.108-.088-.021-.066-.347-.24zm.347.218s.044.022.066.044c-.022-.022-.044-.044-.066-.044zm3.275-5.638l.087-.087-.152.109.065-.022zm-.39.109l.303-.153-.282.11s.043 0 0 .043H18zm-2.82 3.614l.066.043s.087.022.109.022l-.197-.065h.022zm.369-.218l.282.11-.282-.11zm-.26-.392s.043.044.021.044c-.043-.044.349.087-.021-.044zm11.949-14.195s-.109.13-.13.152c.065 0 .152-.195.13-.152zm.715-.065l-.043.065.174-.109-.13.044zm.477.283c.109-.284-.195-.066-.238-.197v-.065l-.13.196c.13.022.347-.043.368.087v-.021zm.239-1.698c.022.109-.044.109.065.022v-.022h-.065zm-.152.086l.044-.108s-.066-.088-.044-.131c-.043.065-.043.13 0 .24zm.043.066l-.065.108s0 .153.022-.043c0 .087 0 0 .022-.066h.022zm.044.044s.087.109.043.218c.11-.044.066-.262-.043-.218zm0 1.262v-.109l-.109.066c.044-.022.066.13.11.043zm-.434-1.524v.261l.044-.065s-.066-.087-.066-.175l.022-.021zm.022.239l-.065.11s.065-.044.065-.11zm.282.458l.109-.24-.13.261.02-.021zm-.542-.719l.043-.152-.065.218.022-.066zm-.152 0c.044-.109 0-.218.044-.283-.044 0-.087.109-.131.196.044-.044.065-.022.109.087h-.022zm-.174.044l.087-.13c-.021.021-.043.065-.087.13zm.391.305s0-.153-.044-.196v.174h.044v.022zm.282.217s-.13.218-.044.37c.022-.13 0-.217.044-.37zm-.261 0l.066.044v-.174l-.087.109.021.021zm-.021.066l.021-.066-.021-.021v.087zm-.325-.392s-.087.065-.11.087c.044.043.066.065.11.065 0-.065.043-.152 0-.152z" fill="#681418"/><path d="M27.671 27.694s.044 0 .088-.043h-.088v.043zm-.195-.304s0 .086.022.108c0-.065 0-.152-.022-.109zm.326.151s-.044.066-.066.11c0 0 .044-.022.066-.044v-.065zm-1.063 1.046c.065-.153.195-.284.238-.087.109-.11.196-.654.217-.959a.396.396 0 01-.152.218c0 .11.109.24 0 .37-.13.066-.065-.087-.086-.174 0 .218-.217.24-.304.545l.13-.066s-.065.109-.065.152h.022zm.586-1.002h.044s-.044-.13-.044-.26c-.065.065-.087.13-.109.173l.13.066-.021.021zm.151.022c-.065.174-.152.24-.152.435.087 0 .087-.13.174-.196-.152 0 .065-.087 0-.217.043-.022.065-.022.087-.044 0-.022-.044-.065-.044-.087v.087c-.021-.043 0-.043 0-.065l-.151.043c.021.022.064.044.13.022l-.044.022zm.608.893s.021-.11.065-.087c.022.065 0 .087 0 .152.022-.044.087-.13 0-.218 0 0-.13-.283-.109-.305 0 .175 0 .284.065.458h-.021zm-.347-.393l-.13.066.043.174v-.087s.087-.066.087-.13v-.023zm-.521-.696l.066-.174-.153.24.087-.066zm-.152-.021l.044-.153-.066.087.022.065zm-1.734 2.982l.043-.065s-.066.065-.044.065zm-2.365-3.397c0 .152 0 .414.022.218v-.174l-.021-.044zm2.56.806l.044-.043s-.11.043-.175.065h.131v-.022zm.672-.348l-.065.13.065-.13zm-2.949 1.371l-.196.044s.11 0 .196-.044zm2.32-2.09s0-.13-.044-.152c0 .13-.065.283.044.152zm.412 1.807s-.043.044-.065.087c.022 0 .065-.044.065-.087zm-.564-2.046v.044c.044 0 .087 0 .109.021 0-.087 0-.152-.109-.087v.022zm.998 1.11s-.044 0-.066-.044c0 0 .022.044.066.044zm-.044.24l-.043.087c0-.044.043-.066.043-.087zm.087-.741s.022 0 .043.044v-.022h-.043v-.022zm-1.735-1.567c-.195.152-.217.109-.239.022l-.216.479.455-.523v.022z" fill="#681418"/><path d="M24.137 29.632v.217c-.326.088-.347-.065-.413.196.39-.391.478.327.846-.13v.152h-.065c0 .327.347-.261.477-.087.044.065.044.174-.021.218l.216-.044s0 .11-.065.087l.26.066s.196-.153.26-.196c.023.109-.043.043-.064.109l.173-.087c0 .152-.151.26-.238.195-.044.588.152-.087.368.305l-.173.044c0 .174.043.24.108.283a.382.382 0 01.109.087s.043.022.065.043v.044h.043l1.757-1.981-1.735 1.96v-.044L26 30.982l-.065-.196c-.043-.153-.021-.283.066-.327.021.044.065.066.151.022l1.649-.958-.608-.218h-.065c.195-.065.13-.109.087-.196l.26-.065s-.238-.022-.368-.044c0-.108.173-.195.346-.283 0-.174-.281.218-.39.044.044-.174-.087-.218-.303-.327.043-.13.151-.043.216-.108h-.238s.065-.044.087-.044c-.109-.044-.26.109-.37.022-.281.109.305-.392-.064-.37.043-.066.152-.066.238-.11-.281-.065-.216-.086-.563-.065l.086-.195c-.13.195-.39.195-.607.217-.065.087-.13.153-.152.174l-.195-.065s.109-.065.217-.109h-.065s.195-.152.347-.196l-.108.13c.151-.043.346-.108.477-.195h-.087a.165.165 0 00.108-.044h-.108l.238-.196-.108.066v-.305c-.325.022-.759.174-.998.065.217-.087.282-.218.5-.392-.174.218.216.087.26.24 0-.066.086-.13.13-.152l-.347-.044c.173-.13.086-.152.108-.261-.304.305-.325.043-.499.043.109-.109.217-.174.282-.065.152-.327-.477.196-.369-.065.022 0 0 .043.087 0-.13.043-.195-.153-.065-.218h.022c-.109-.174-.499-.392-.716-.109.022-.044.26-.348.326-.392-.348.24-.651.523-.933.85.174-.262.434-.959.672-1.024-.021-.065-.065-.152-.217-.109 0 .065-.13.435-.173.435.043-.37 0-.195-.022-.544.022.087-.217.501-.282.457.044-.065.174-.457.217-.479-.13.11-.238.24-.369.37.066-.065.13-.37.13-.522 0 .087-.194-.065-.26-.044l.065.131c-.238-.13-.368.61-.542.566.022-.087.109-.479.044-.631l-.065-.153-.477 1.394v.043c.195-.152.954-.718 1.192-.74l-.065.13.195-.043a11.6 11.6 0 01-1.28.762c0 .13-.086.13 0 .196-.064.13-.173.109-.216.087l.13.24c.174-.218.347-.087.499-.261h-.412c.173-.197.672-.458.759-.305-.043.108-.369.348-.412.435.087-.065.26-.022.217.044l-.152.065c0 .152.369-.174.282.109 0 .043-.13.37-.022.24.152-.306.803-1.067.976-1.22 0 .022-.043.37-.108.523-.109.24-.456.413-.564.61.043-.066.152-.11.173-.131 0 .087-.173.174-.065.217.195-.217.13.153.195-.152.13 0 .044.109.13.174.087-.174.456-.435.586-.457a1.812 1.812 0 00-.108.196c.13.13.13.305.282.392-.022.065 0 .196-.109.26.043-.02.13-.086.174-.064-.044.26-.13-.044-.217.26.108-.13.238-.108.368-.152.109-.239-.13-.13-.238-.108.195-.305.52-.523.759-.588.152 0-.065.218-.022.196.195.196.499-.436.542-.11-.043.24-.217.393-.282.545-.151 0-.086-.217-.151-.24v.131s-.13.066-.13 0c-.044.218.368.262.477.523.065-.044.151-.087.173-.196h-.065c.022-.196.217-.174.174-.283.13-.087.303-.24.346-.087l-.086.24s0-.175-.065-.11c.086-.087.043.392.216.11v-.197c.109-.087.304-.305.348-.217.043-.262-.022 0 0-.283-.066.37-.217-.11-.26.304.064-.348-.066-.174 0-.479-.022.087-.044.153-.088.087 0 0-.043.044-.043.066v.13c-.108.175-.238.11-.325.175-.022-.066.065-.087.087-.175l-.13.11c.086-.175.021-.35.173-.393l-.087-.043c0-.13-.043-.196-.13-.152 0-.066-.217.13-.108 0h-.196l.022-.022c-.13-.11-.455.087-.412-.305-.065 0-.152.022-.195-.065l.087-.153s-.065-.261-.195-.13c.216-.392-.217-.284-.26-.436l-.13.152s-.153-.065-.304-.087l-.109.153c-.173.065-.108-.261-.217-.349.065-.043.065 0 .065.044.152-.435-.498-.022-.412-.37-.065 0-.086 0-.086-.044l-.694 1.568v.044s.043 0 .086-.066v.196c0 .087.044-.087.044-.24 0-.021.043-.065.065-.108-.044.326.108-.087.065.261.065-.174.195-.087.347-.392 0 .044 0 .065-.044.065.022.066.044.11.13.022l-.108.24.239-.262c-.022.175-.065.262-.196.414.26-.196.152-.043.413-.24l-.109.131s.239-.109.174 0c-.13.305.347.37.303.784.347-.348-.086.24.217 0-.087.087-.108.152-.217.174.174.044-.043.262.282.153-.087.087-.152.065-.217.13.022 0 .109-.022.065.022-.043.044-.086.044-.152.044.087.087.39-.088.694-.262-.086.153-.065.174.152.11-.087.086-.152.173-.238.108 0 .044 0 .348.238.218-.043.043 0 .065.044.065.043.109.021.13.086.218v-.044c.347-.087.13.066.217.13h-.021c-.13.306.13.066-.022.35l.195-.088c.412-.13-.173.261.022.327l.086-.087c.174 0-.498.37-.542.435-.043.022-.065 0-.086 0-.196.218.26-.065.347.044a3.608 3.608 0 01-.239.065c-.043 0-.065.022-.087.043l-.021.022 1.3-1.458c0-.131-.238.413-.26.13a.415.415 0 01-.108.283c-.087 0 0-.435-.217-.174 0-.022 0-.065.022-.087-.087.043-.217.043-.369.174.369-.61-.52.022-.108-.479l-.152-.109.043-.043c-.043-.11-.195-.044-.325 0 0-.044.065-.066.108-.087 0-.218-.043-.218-.39-.153l.174-.13c-.13.021.13-.392-.152-.436.021 0 .065-.022.087-.022-.326-.087.325-.653-.39-.457l-.24-.065c0 .196-.325.087-.411.196-.065-.066.151-.262.216-.196h-.021c.39-.066.065-.24.325-.327-.108-.348.022-.718.022-1.045l-.304.066v-.11s.239-.043.239.022c.173-.043-.152-.13-.217-.13.13-.153.369.043.369 0v-.066h-.066c-.13-.043-.26-.043-.238-.152.065-.065.195-.022.195-.043 0 0 .022 0 0-.044l.043-.13-.238.043c-.108-.065 0-.13-.26-.087.108 0 .173-.066.217-.109l-.694.566c.13.13.39.044.412.152.13-.152.216-.108.303-.065 0-.065.087-.326.152-.261-.26.5.065.305-.065.697.065-.262.239.065.347-.327.043.087-.108.174-.13.327.282-.087.238.326.455.435.044-.065.087-.174.195-.218l-.151.37s.325-.304.216-.043c.022-.066.087-.13.13-.13.13.609.955.5.998 1.393.022-.175.065-.131.13-.11 0-.043.109-.152.174-.239v.37c.217-.196.26.131.434-.065h-.087c.26-.218.282-.653.52-.98-.303.218.109-.566-.325-.26.022-.088.108-.088.152-.175-.13.109-.195.109-.217 0h.043c-.217-.152-.195-.37-.347-.653l-.108.174v-.174c-.26.174.13.13-.152.348.217-.37-.347-.326-.087-.718-.086-.066-.13.196-.216.13l.065-.109-.13.11s.043-.218.108-.284h.087c.021-.174-.239-.13-.239-.196l.043.13c-.303-.108-.542-.478-.954-.434v.087c-.325.043-.13-.196-.433-.24 0 0-.174.065-.24.022.11-.087-.042-.24.088-.327-.326.087-.195.087-.456.37v-.152c-.086.13-.108.196-.238.196.13-.109-.022-.261.13-.392-.195-.348-.412.109-.499-.109l-.824.675s-.087.022-.152.044c.195.087.26.043.282 0l.325-.697.326.174s.151 0 .108.065c.022.11-.065.24-.152.262l-.347.13.044.11v.064c0 .088-.564.088-.564.327 0-.022-.022-.022-.022-.043-.108.087.152.174-.021.26.26.044 0 .131.325.131l-.087-.196c.087.11.477.196.304.37a.456.456 0 01-.217-.087c-.087.066.065.088 0 .153-.325 0-.109-.24-.347-.348-.13.065.238.217-.109.174.477.065-.043.24.326.348h-.195s.13.065.13.109l-.26-.044c.238.087-.152.262 0 .37-.044-.239.238-.087.346-.217.326.24-.498.261-.325.588-.043-.044.087-.196.174-.153a.558.558 0 01-.174.24c.087.217.195-.087.325-.022-.216.13.109.087.217.152l-.195.066c-.043.283.434-.066.347.196H22.9l.109.087-.217.043c.195.066.173.11.173.261.13-.087.348-.108.39-.021-.086.109-.194.043-.108.174-.13 0-.303.044-.151-.087H22.9c-.086.174.044.24.087.305v-.087l.347.087s-.13.065-.195.065c.043.043.13.022.195.065-.152.066-.303.13-.412.087l.26.131s-.108.196-.173.196c0 .174.434.109.412.326h.108c.065.153-.021.414.282.414l-.152.283c.152.066.196-.37.434-.24.195.066-.152.218-.152.327.174-.021.5-.152.456.153-.087 0-.087-.066-.13-.087l-.13.174zm1.843.849s-.152.152-.152 0c.108-.218.108-.109.152 0zm-.239-3.092s.065.022 0 .11c-.021 0-.043-.044 0-.11zm.434-.174s.043-.043.043-.065c-.021.043-.065.043-.086 0 0 .043 0 .087.021.065h.022zm-1.973-2.134h-.044.044z" fill="#681418"/><path d="M26.132 27.476s-.065.044-.087.065c.043 0 .065-.021.087-.065zm-2.841 1.307l-.044.021.044-.021zm.217-1.306s0-.088.021-.11c-.043.044-.043.088-.021.11zm3.34-.349h-.087s.021.065.043.109c0-.044.022-.11.044-.11zm.26 1.415h.043v-.087s-.087.065-.043.109v-.022zm-.434-.74c-.065.174 0 .13.087.108.087-.217 0-.174-.065-.108h-.022zm.086.109h.044c.044-.087 0-.022-.043 0zm-.411-.741s.109-.195.087-.13c.13-.174-.262.174-.087.13zm.173 1.176l.044-.218-.087.153.043.065zm-.369-.327l.066.087s.021-.043.043-.065c-.043-.022-.087-.087-.109-.044v.022zm.109.044s.065.021.087 0h-.087zm.108.283v-.044l-.065-.043.066.087zm-1.083-.849h-.131s-.044.109 0 .109c.043-.022.087-.044.13-.109zm-.044.675s0-.087.044-.174l-.131.218.087-.066v.022zm-.303-.13s-.24.087-.131.152c.043-.065.174-.044.13-.152zm-1.107-1.22h.022l.26-.326-.282.326zm-.477-2.003c-.174-.13-.087.261-.217.109-.043.087.108.13.065.196.108-.087.174-.022.152-.305z" fill="#681418"/><path d="M23.204 25.125l-.065.065.065-.066zm3.34 2.852l.043.131.022-.152-.065.021zm.326-.174l-.131.24.174-.175s-.065 0-.043-.065zm.78 1.262h-.065s-.065.066-.065.11l.13-.11zM24.7 30.35h.022l.087-.24-.109.24zm-1.214-.61s.109.065.13.109c-.13-.044.088-.327-.13-.109zm13.229-7.62s0-.152.021-.195c-.043.043-.021.24-.021.196zm-.521.37v-.065l-.087.174.087-.108zm-.499-.065c0 .305.195-.021.26.088v.065l.066-.24c-.109.022-.26.175-.326.066v.021zm-.13-.675c0 .11-.065.088.044.044v-.022h-.044v-.021zm-.195.022l.087-.087s-.044-.087 0-.153c-.065.044-.087.11-.065.24h-.022zm-.109.218l.044-.044s0-.044-.044.043zm.131-.131l-.087.087s-.022.152.043-.022c-.021.087 0 0 .044-.043v-.022zm.043.066s.065.13-.022.217c.131 0 .153-.217.022-.217zm.173.805l.044.087.065-.087s-.087-.087-.109 0zm-.585-1.198s-.022.174-.044.262l.066-.066s-.044-.109 0-.196h-.022zm-.043.24l-.109.087s.087 0 .109-.087zm.195.544l.174-.217-.196.196.022.021zm-.39-.871l.087-.13-.131.195.044-.065zm-.174-.021s.044-.218.088-.261c-.044 0-.131.087-.197.174.066-.044.088 0 .11.109v-.022zm-.217-.001l.109-.108c-.022 0-.065.043-.109.108zm.39.371s.022-.131 0-.196v.196zm-.021 0l-.065-.044s.021 0 .065.044zm.261.305s-.197.174-.131.348c.065-.109.043-.218.13-.348zm-.261-.066l.065.065s0-.109.044-.152l-.11.087z" fill="#681418"/><path d="M34.698 22.077l.065-.044-.044-.021-.021.065zm-.238-.457s-.087.065-.131.044a.262.262 0 00.109.108c.022-.043.087-.13.022-.152zm-.5-.11l-.021.044.021-.043z" fill="#681418"/><path d="M34.416 21.816s.043 0 .087-.044h-.087v.044zm.174-.131s-.044.065-.088.087c.022 0 .044 0 .066-.043v-.044h.022zm-1.259.827c.087-.152.239-.24.239-.043.13-.088.304-.61.369-.915-.044.066-.065.13-.174.174 0 .087.065.262-.043.37-.13.044-.065-.087-.065-.195-.044.217-.26.217-.369.5l.13-.043s-.087.087-.087.152zm.739-.892h.043v-.262c-.087.043-.11.109-.153.152l.131.087-.022.022z" fill="#681418"/><path d="M34.242 21.663c-.086.152-.195.196-.217.413.087.022.13-.108.196-.174-.152 0 .086-.087 0-.218h.086a.369.369 0 00-.043-.108v.021l-.022.066c-.021-.044 0-.044.022-.066v-.021l-.174.043s.066.044.13.044h.022zm.412 1.002s.044-.087.087-.065c0 .065-.021.087-.043.152.043-.043.109-.109.065-.217 0 0-.065-.305-.043-.327-.022.152-.044.283-.044.457h-.022zm-.238-.457l-.152.044v.174l.043-.087c.066.065.088-.066.11-.131zm-.434-.784l.087-.174-.174.217.087-.043zm-.152-.044l.066-.152-.066.065v.087zm-2.559.196c-.043.152-.13.392-.021.218l.087-.175s-.066 0-.044-.065l-.021.022zm2.495 1.394l.043-.044h-.174.13v.044zm.737-.197l-.087.131s.065-.065.087-.13zm-2.083-2.242v-.152c-.021.109-.086.261 0 .152zm.543 1.481s-.065.021-.109.065c.044 0 .066 0 .11-.065zm-.651-1.721v.044c.044 0 .087 0 .11.043 0-.087 0-.152-.088-.087h-.022zm2.212 3.354s-.043-.022-.065-.044c0 0 0 .044.065.044zm-1.452-1.938l-.066.065c.022-.043.044-.065.066-.065zm.281-.697v.021c0-.021.021-.043 0-.021zm-.087-.022l.044.043v-.021h-.044v-.022zm.131-.326c-.217.109-.217.065-.217 0l-.326.414.543-.414z" fill="#681418"/><path d="M30.88 22.534l-.064.196c-.304 0-.304-.13-.434.087.499-.283.325.413.824.087l-.043.13s-.044 0-.044-.021c-.108.305.39-.153.456.043 0 .087 0 .175-.109.175h.217s-.065.13-.087.087l.196.13s.238-.087.303-.109c0 .11-.065.022-.108.088h.195c-.065.13-.239.174-.282.087-.282.5.174-.022.174.392h-.152c-.13.283 0 .26.021.522.022-.109.065-.588.282-.61 0 .066.044.11.174.066-.109.174-.022.174.065.217l-.152.218c.13 0 .195-.13.325-.196.087.087 0 .283-.065.457.152.131.044-.37.282-.283.087.153.239.11.477.044.065.13-.086.152-.065.24l.174-.175s0 .066-.022.11c.108-.044.108-.262.239-.284.065-.13.086 0 .13.13v.088l.867-.806c.087-.087.152-.196 0-.24.065-.043.174 0 .26-.043-.26-.174-.195-.152-.52-.24l.13-.173c-.173.152-.434.087-.65.065a1.47 1.47 0 01-.196.13l-.195-.087s.13-.043.239-.065h-.065s.238-.109.39-.13l-.13.108c.173 0 .347-.021.499-.087-.044 0-.065 0-.087-.043.043 0 .087 0 .108-.022h-.108l.26-.13h-.108l.087-.262c-.347-.044-.803 0-1.041-.13.216-.066.325-.175.542-.284-.217.196.195.131.217.283 0-.087.108-.13.151-.13l-.347-.11c.196-.108.109-.13.152-.239-.347.262-.347 0-.499-.021.109-.088.239-.153.282 0 .196-.305-.498.13-.368-.131 0 0 0 .043.086 0-.151 0-.151-.174-.043-.218-.065-.174-.39-.457-.672-.217.022-.044.325-.284.39-.327-.368.196-.737.392-1.084.631.238-.217.629-.827.867-.849 0-.065 0-.152-.173-.13 0 .065-.239.392-.282.392.13-.349.065-.196.13-.523 0 .087-.347.435-.39.37.043-.043.282-.392.347-.414l-.434.262s.238-.327.282-.457c-.044.087-.13-.11-.217-.088v.131c-.13-.174-.52.457-.672.348.065-.087.347-.5.282-.61-.174.175-.716.959-.911 1.068V20.9l-.13.109c.173-.327.694-.958.954-1.154-.022-.13.043-.153-.065-.196 0-.13.152-.152.195-.13l-.26-.218c-.087.26-.326.174-.39.413.13-.065.26-.109.411-.152-.108.261-.477.675-.628.566 0-.13.195-.479.216-.566-.065.087-.238.109-.238.043l.13-.13c-.087-.13-.282.305-.347 0l-.043-.13v-.153l-.933 1.633c-.043.087-.087.174 0 .109.195-.262.976-.893 1.193-1.024 0 .022-.109.349-.195.48-.152.217-.52.326-.65.5a.489.489 0 01.194-.087c0 .087-.195.152-.108.196.217-.174.108.174.217-.13.13 0 .021.108.108.195.108-.152.52-.37.65-.37a.47.47 0 00-.13.174c.109.153.109.305.217.436-.043.065-.021.174-.13.26.044 0 .13-.086.174-.043-.087.262-.13-.043-.26.24.108-.13.26-.087.39-.109.152-.218-.108-.152-.239-.13.239-.262.586-.48.803-.501.152 0-.087.217-.044.196.174.195.542-.37.542-.044-.065.24-.26.37-.325.522-.151 0-.065-.217-.13-.26v.152s-.152.043-.152-.044c-.065.218.347.283.412.566.065-.043.174-.087.195-.174h-.065c.044-.196.239-.152.217-.283.13-.065.326-.196.369-.044l-.108.24s0-.174-.066-.13c.087-.088 0 .391.196.13v-.196c.151-.065.368-.283.412-.152.087-.24-.044 0 .043-.283-.13.348-.195-.131-.303.26.108-.348-.044-.195.043-.5-.044.065-.065.152-.109.087 0 0-.043.044-.043.066 0 .043 0 .087-.022.13-.13.152-.238.087-.347.13 0-.065.065-.065.087-.173l-.13.087c.087-.175.065-.327.217-.37l-.087-.066c0-.13-.021-.196-.108-.152 0-.066-.217.109-.087 0h-.195l.022-.044c-.109-.109-.456.044-.37-.326-.064 0-.151 0-.173-.087l.109-.131s-.022-.261-.174-.152c.26-.349-.151-.284-.151-.436l-.174.13s-.087-.065-.174-.086l-1.062 1.698.065-.044.043-.196c.109-.13.152.175.26.196-.021.066-.043.044-.065 0-.021.436.39-.174.39.175.066-.044.066 0 .066.043h.13l-.087.174s.065-.065.13-.217c.044 0 .065-.044.109-.066-.152.305.152-.043 0 .283.13-.13.238 0 .477-.261-.022.044-.022.065-.044.044 0 .065.022.13.13.065l-.151.217.304-.195c-.066.152-.109.24-.282.348.325-.13.151 0 .455-.13l-.13.108s.26-.065.173.044c-.173.283.282.435.152.805.412-.283-.152.218.195.022-.087.065-.13.13-.238.13.173.066-.087.24.238.175-.108.065-.173.043-.217.087.022 0 .109 0 .044.022-.065.043-.087.021-.152.021.065.088.39 0 .716-.13-.13.13-.087.13.13.13-.087.066-.195.131-.26.066 0 .043-.087.305.173.24-.065.021 0 .065.022.065v.197h.13l.499-.436s-.066-.065-.13-.065c-.087-.327-.13.043-.196-.283l-.086.196c-.196.392-.044-.305-.217-.218v.13c-.152.088.13-.609.13-.674 0-.044.043-.044.087-.066.043-.283-.152.218-.282.196.065-.13.238-.283.195-.348.065-.109-.456.261-.347-.022-.065.087-.109.196-.217.218-.087-.022.13-.436-.152-.261 0-.022.044-.044.065-.066-.108 0-.238-.043-.412.044.52-.457-.52-.13.022-.5a.935.935 0 01-.13-.153h.065c0-.153-.174-.11-.326-.087.022-.044.087-.044.13-.066.044-.217.022-.217-.346-.24l.195-.086c-.13 0 .238-.327-.022-.436h.087c-.282-.174.52-.479-.239-.5l-.195-.131c-.065.174-.325-.022-.455.043-.044-.087.217-.196.26-.108h-.043c.39.043.151-.196.412-.175 0-.152.086-.304.151-.413l-.932.566s.174.196.282.261l.13-.283.087.065s-.109.218-.152.175c-.065.152.173-.066.217-.11.043.175-.239.262-.217.306h.065v-.022c.108-.087.195-.196.26-.13 0 .086-.087.173-.087.195v.022l.087.109.13-.218c.13-.044.087.087.217-.152-.217.37.282.5.239.631.195-.044.26.022.303.13 0-.065.217-.239.26-.152-.455.327-.065.305-.346.61.173-.218.238.196.455-.13 0 .086-.174.13-.239.26.304.044.152.458.37.61.064-.044.13-.152.26-.152l-.218.326s.37-.218.217 0c.044-.043.109-.109.152-.109 0 .654.846.675.716 1.568.043-.152.108-.13.152-.087 0-.044.13-.13.195-.196l-.044.37c.217-.174.217.174.412 0h-.086c.282-.196.368-.631.672-.893-.325.175.217-.544-.26-.305.043-.087.108-.065.173-.13-.152.087-.217.065-.217-.044h.044c-.195-.174-.13-.392-.217-.675l-.152.131s.022-.109.043-.174c-.282.13.087.152-.216.305.282-.305-.26-.37.086-.697-.065-.087-.173.152-.216.087l.086-.087-.152.065s.087-.196.174-.26c0 0 .043 0 .065.02.065-.152-.173-.173-.152-.217v.13c-.26-.152-.325-.544-.694-.609l-.065.066c-.26-.066 0-.197-.238-.327h.021s-.173 0-.217-.065c.13-.022.087-.218.239-.24-.282-.065-.195 0-.564.109l.087-.13c-.13.065-.195.108-.304.043.174 0 .13-.218.326-.261.065-.436-.52-.022-.26-.48-.391.24 0 .327-.11.349-.064.13-.303.174-.324.087-.044-.065.26-.5.086-.653h.044c0-.152-.217 0-.195-.196-.196.174-.109-.087-.304.174l.217.044c-.152 0-.434.26-.499.021a1.05 1.05 0 01.195-.13c0-.11-.13 0-.13-.11.174-.282.26.066.499-.064.022-.153-.347.065-.087-.218-.303.348-.195-.174-.52.065l.086-.174s-.13.065-.173.044l.195-.196c-.217.152-.217-.283-.412-.218.304.087 0 .261.065.435-.217.087-.217-.087-.238-.26l-1.15.696c-.152 0-.303.043-.303.24 0-.066.151-.175.238-.066a.78.78 0 01-.26.174c0 .261.217 0 .303.109-.26.043.087.13.152.24H30.1c-.152.239.412.087.239.304l-.282-.109.065.131h-.239c.174.109.13.152.065.283.152-.043.369 0 .39.109-.108.087-.195-.022-.151.13-.13-.021-.304-.043-.109-.13l-.195-.044c-.13.11 0 .24 0 .284 0-.022 0-.066.044-.066l.303.196s-.13.022-.195 0c.022.044.13.065.152.13-.174 0-.325.044-.434-.043l.239.196s-.174.174-.239.152c-.065.175.39.24.325.436.044 0 .066 0 .109.044 0 .152-.109.391.173.479l-.216.217c.13.109.26-.305.477-.13.151.108-.196.174-.239.26.174 0 .52 0 .39.24-.065 0-.065-.065-.108-.108l.217.152zm1.302 1.284s-.195.066-.13-.043c.173-.152.13-.044.13.043zm1.887-1.197s.043.044 0 .109c-.022-.022-.022-.066 0-.109zm-1.106-1.568s.043-.043.043-.065c-.043.044-.065.022-.065 0-.022.044-.022.087.022.065zm-1.215-.849v-.065s.044 0 0 .065z" fill="#681418"/><path d="M34.416 22.795s-.065.044-.109.044c.044 0 .066 0 .11-.044zm-4.121-1.785s0-.087.044-.11c-.044.023-.065.066-.044.11zm3.362.087h-.087s.022.066.022.109c0-.043.043-.109.065-.109zm.043 1.437h.044l.043-.087s-.109.043-.087.109v-.022zm-.303-.806c-.066.153 0 .131.065.131.13-.218.043-.174-.044-.13h-.021z" fill="#681418"/><path d="M33.462 21.837h.043c.044-.087 0-.021-.044 0zm-.326-.783s.131-.174.11-.109c.13-.174-.284.13-.11.109zm.022 1.197l.087-.196-.109.13.022.066zm-.325-.371l.043.088s.044-.044.066-.044c-.044-.043-.088-.109-.11-.043zm.108.045s.044.022.087 0h-.087zm.087.326l-.022-.065-.043-.044.065.109zm-.975-.98h-.11s-.065.087 0 .087c.044-.022.088 0 .131-.087h-.021zm-.109.653s.022-.087.065-.152l-.152.218.109-.044-.022-.022zm-.282-.13s-.261.065-.13.13c.043-.043.174-.021.13-.13zm-.932-1.372l.02.022.326-.283-.347.261zm1.734-.719c-.087-.174-.173.218-.217.044-.087.065.044.152-.022.196.13-.044.152.022.26-.24h-.021zm-.26.24s-.044 0-.065.043c.043 0 .065-.021.065-.043zm2.386 4.115l.021.13.044-.152-.066.022zm.369-.108l-.175.217.196-.152s-.065 0-.043-.066h.022zm-2.885.5l.043-.043s0-.088-.022-.131v.174h-.021zm-.911-1.132v.021l.174-.195-.174.174zm-.933-.828s.087.088.11.132c-.088-.088.174-.284-.11-.131zm38.558 21.925s.13.13.174.152c0-.196-.218-.152-.174-.152zm.13-1.982l.066.065-.11-.326.044.261zm.412-1.741c-.347.109-.087.653-.26.936l-.087.044.217.196c.043-.392 0-.915.13-1.176zm.846-.828c-.13.044-.065-.217-.065.218l.043-.044c0-.043 0-.087.044-.174h-.022z" fill="#681418"/><path d="M70.133 40.039c-.022.196.13-.109 0 0zm.065-.893l.065.262s.13-.262.173-.175c0-.26-.087-.217-.238-.087zm-.174-.283v.13s.066-.043 0-.13zm.066.435l-.044-.283s-.152 0 0 .13c-.087-.043 0 .022.044.153zm-.066.152c-.087.131-.152.305-.217.044-.043.48.195.457.217-.043zm-.997 1.067l-.13.153.065.174s.152-.327.065-.348v.021zm1.539-2.917s-.173.065-.26.065l.065.196s.109-.26.217-.26h-.022z" fill="#681418"/><path d="M70.306 37.665l-.087-.283c-.043.24 0 .305.088.283zm-.629 1.111l.174.479-.152-.567-.022.088zm1.02-2.265l.13.175-.196-.305.066.13zm.021-.717c.13.13.217-.153.282 0 0-.196-.108-.37-.217-.523.043.152.022.327-.087.544l.022-.021zm-.043-.806l.13.261a.735.735 0 00-.13-.261zm-.369 1.916s.153-.044.218-.197l-.196.088v.108h-.022zm0-.11a.51.51 0 01.044-.24c0 .023 0 .11-.044.24zm-.346 1.286c-.088-.175-.174-.523-.348-.218.109.13.217-.044.347.218zm.086-1.046l-.065.283s.13-.043.174.044l-.109-.327zm-.044-.152l.044.152.044-.109-.088-.043zm.478-1.372c-.087-.13-.087-.283-.087-.435a2.108 2.108 0 00-.065.5c.065.022.152.11.152-.087v.022zm-.044-2.003l-.043.022h.043v-.022z" fill="#681418"/><path d="M70.284 35.597c-.043.131 0 .196.066.283 0-.087-.022-.196 0-.304-.022 0-.044 0-.044.021h-.022zm.326-1.045s-.087.13-.109.218c.066-.066.153-.197.11-.218zm-.173 1.502s-.066-.13-.11-.174c0 .087.023.152.044.218 0 0 .044-.022.066-.044zm-1.215-3.004c.173 0 .347.349.152.632.13.283.694.108.997-.153-.065 0-.152 0-.26-.305-.087.11-.195.654-.369.392-.108-.392.044-.305.13-.5-.216.152-.325-.48-.629-.392l.13.326s-.13-.109-.173 0h.022zm1.149 1.045v.13c.044-.13.13-.24.26-.413-.086-.196-.151-.24-.216-.262 0 .196 0 .392-.022.588v-.043h-.022z" fill="#681418"/><path d="M70.371 34.748c-.173-.109-.26-.392-.455-.217 0 .348.151.239.217.457-.022-.566.108.174.216-.24.022.109.044.218.044.305.022-.109.065-.196.087-.283 0 0-.044.022-.022 0 0 0-.043-.022-.065-.044.043-.174.043-.021.065.022h.022l-.087-.566c-.022.13-.022.283 0 .544l-.022.022zm-1.128 2.765h.044c0-.044-.044-.044-.044 0zm.131-.218s.086.087.065.218c-.065.109-.087 0-.152 0 .043.087.108.283.217.065v-.044c.065-.217.325-.478.347-.435a1.169 1.169 0 00-.477.218v-.022zm.498-1.263c0-.152-.043-.326-.065-.479l-.173.24h.087c-.044.261.065.217.13.24h.021zm.651-2.59l.195.065-.282-.261.087.196zm-.043-.609l.174.021-.11-.174-.064.153zM53.044 6.423l.065-.066s-.087.044-.065.066zm13.749 11.713c.044-.261.175-.588 0-.457l-.13.152c.087.109.13.218.13.327v-.022zm-6.918-7.642v.087s.153 0 .218-.021c-.065 0-.153-.044-.218-.044v-.022zm-.628.457l-.087-.283s.043.153.087.284zM47.428 4.006l-.218.131c.218.065.153-.044.218-.13zM69.7 26.519c.043-.196.043-.327 0-.457-.066.239-.175.435 0 .457zM53.543 4.376s-.152 0-.152.044c.087 0 .152 0 .152-.044zM69.612 25.56s0 .066-.022.11c.066.108.11.239.131.391.044-.174.066-.37-.109-.5zM22.944 2.853l.218-.11c-.044 0-.11.044-.218.11zm47.471 27.476c.021 0 .021.13 0 0zm-.672.696s-.044-.044-.088-.044c.044 0 .088.022.088.044zm.607-.501s.043-.109.043-.174c0 .022-.022.087-.044.174zm.086-.021v.109c.044 0 .044 0 0-.11zm-.043-.371v.218c0-.022.022-.022.022-.022 0-.043 0-.087-.022-.174v-.022zM38.97 1.611h-.022c-.13.066-.065.066.022 0zM63.453 16.22h.021v-.022l-.02.021z" fill="#681418"/><path d="M63.085 15.937c.303.022.347.13.39.283l.369-.413-.76.152v-.022z" fill="#681418"/><path d="M50.16 4.942l.195.283c-.434.066-.672-.087-.499.24.304-.523 1.084.479 1.388-.022l.13.196s-.065 0-.13-.044c.217.436.455-.24.89.066.13.13.216.261.064.261l.434.065s0 .153-.065.066l.542.283c.13 0 .369-.044.477-.044.087.152-.108 0-.108.087l.368.065c.044.196-.281.175-.455.044-.043.675.325.022.716.675l-.304-.109c0 .392.26.414.455.784 0-.13-.325-.827.066-.74.065.087.173.174.39.196-.109.174.087.217.282.37l-.174.217c.26.087.325-.043.52-.043.218.196.13.414.087.588.347.304-.043-.48.413-.174.238.326.52.391.997.544.152.24-.152.109-.108.218h.325s0 .065-.043.087c.195.065.195-.196.477-.044.26-.174.195.784.715.784 0 .13-.151.087-.195.196.564.196.456.196.998.261l.151.392c-.065-.348.37-.283.738-.174v-.349l.455.262s-.087.109-.238.13h.108c.043.218-.13.262-.325.283v-.26c-.217.02-.412.064-.52.217a.35.35 0 01.173.065c-.065 0-.109.022-.109.044 0 .043.065.022.174.043l-.152.305.108-.065.304.61c.542.13 1.171.108 1.778.609-.282 0-.303.218-.52.37.087-.348-.477-.348-.694-.675.108.174 0 .218-.087.218l.672.326c-.173.131-.021.218 0 .414.239-.392.543.218.825.348-.109.11-.26.153-.456-.152 0 .5.694.065.716.523-.065-.066-.065-.11-.152-.088.217.066.434.501.282.501l-.065-.065c.303.457.976 1.372 1.323 1.24-.044.023-.412.197-.5.197.521.043 1.085.065 1.606.152-.304.087-.781.784-1.171.501.021.13.065.305.303.479 0-.109.282-.435.369-.348-.13.479-.043.305-.087.827 0-.152.499-.283.586-.087-.087 0-.412.261-.5.218l.695.217c-.152-.065-.369.196-.434.349.065-.11.217.392.325.5v-.26c.196.565.868.195 1.128.761-.13 0-.629.13-.542.414.282 0 1.366 0 1.756.457l-.086.152.325.327c-.455-.087-1.431-.435-1.908-.631 0 .24-.109.13.043.413-.065.175-.26-.087-.304-.152.087.24.152.5.239.74.26-.152.499.414.716.305l-.608-.653c.239-.153.955.109 1.128.653-.043.174-.52.109-.607.152.13.022.39.414.347.48l-.239-.153c.022.326.564.326.412.762.022.13-.217.479-.065.457.239-.305 1.193-.718 1.475-.653 0 .044-.065.762-.174.958-.173.283-.694-.109-.845.152.086 0 .217.066.26.087 0 .153-.26.022-.13.284.303-.044.173.566.282.043.173.24.021.305.13.631.152-.152.716.11.867.37-.087 0-.152.088-.195.131.13.588.109.915.217 1.459-.065.065-.087.348-.239.261.066.066.174.109.217.283-.173.37-.13-.37-.368-.043.173 0 .325.37.477.587.238-.13-.065-.566-.217-.783.347-.087.824.261 1.106.805.195.436-.195.24-.13.305.065.87.737.653.585 1.415-.195.327-.455.066-.607.153-.152-.37.065-.588 0-.85l-.065.327s-.195-.348-.152-.5c-.195.282.217 1.458.043 2.155.087.109.196.305.282.196l-.043-.218c.174-.218.304.37.369.087.151.283.39.588.325 1.002l-.26.087s.13-.283.043-.392c.13.152-.303.653.043.805l.174-.304c.152.283.434.63.369 1.001.26-.174-.022-.087.26-.348-.369.24 0-.936-.39-.566.325-.283.108-.48.39-.85-.087 0-.152.131-.13-.174-.022 0-.065-.043-.087-.065a.344.344 0 01-.108.174c-.217-.13-.26-.61-.369-.762.022-.174.108.066.195-.043l-.173-.218c.195-.044.26-.523.433-.109 0-.13-.021-.261-.043-.392.065-.24.065-.566-.043-.74 0-.196-.282-.436-.109-.283l-.217-.588h.044c-.065-.61-.564-1.154-.369-1.916-.087-.196-.173-.37-.217-.718l.152-.11c-.13-.239-.043-.805-.26-.848.368-.392-.26-1.263-.347-1.698l-.217.065c-.087-.305-.26-.566-.477-.893l-.174.087c-.238-.261-.195-.849-.412-1.328.087 0 .109.13.109.24.13-.762-.803-1.11-.781-1.742-.13-.087-.152-.196-.152-.305h.022l-.022-.022v-.217c0 .065-.022.152 0 .196a1.604 1.604 0 00-.26-.349l.152-.152-.022-.022c0-.174-.152-.065-.238.087a.45.45 0 00-.217-.13c.238-.284-.282-.327-.065-.654-.217 0-.542-.631-.911-.522.043-.022.043-.087.087 0-.066-.174-.109-.348-.282-.436l.195-.196-.499-.152c0-.283.043-.435.325-.326-.564-.327-.368-.327-.889-.567l.152-.087c-.108-.13-.455-.24-.39-.413.065-.545-1.106-1.59-1.518-2.548-.26.48-.13-.5-.456-.283.044-.13 0-.26.195-.217-.433-.305-.39-.697-.889-.74.044-.131.196-.044.217-.131-.043 0-.195-.044-.173-.13 0-.088.13 0 .217 0-.39-.371-.673-.153-.955.064-.065-.304-.173-.391-.455-.37 0-.152 0-.348.239-.13-.087-.175-.716-.893-.911-.697 0-.087-.174-.196-.239-.196-.303-.283-.303-.327-.629-.588l.044.109c-.347.152-.304-.174-.564-.348h.022c-.413-.697-.326-.131-.738-.806l-.087.196c-.325.305-.347-.61-.802-.718l.043.196c-.282 0-.151-.893-.325-1.067 0-.066.108 0 .174 0-.347-.588-.217.174-.63-.044 0-.174.304-.261.044-.435-.065-.174-1.02-.087-1.236-.545 0 .153.043.283-.195.262-.304-.131-.52-.85-.954-.675-.022-.044 0-.087 0-.11-.26-.043-.803-.239-1.02-.13.13-.74-1.518-.392-1.236-.98-.238-.108-.477-.174-.715-.26l.043-.044c-.434-.24-.65-.153-.89-.066-.086-.087 0-.108.044-.13-.607-.392-.694-.414-1.366-.305v-.218c-.173.066-.867-.631-1.605-.61 0 0 .044-.065.109-.065-.803-.021-1.692-1.088-2.147-.392l-.542.066c.628.217-.174.305.065.5-.26 0-.608-.391-.282-.348l.043.044c.195-.37-.78-.327-.715-.61-1.302-.152-2.56-.653-3.817-.718l.108.326-.433-.043s-.13-.262.173-.218c-.152-.196-.52.109-.542.174-.607-.174.26-.348.065-.37h-.26l.065.044c-.217.108-.239.26-.608.217-.238-.087-.108-.196-.195-.217 0-.022-.021-.044-.151 0h-.543l.217.217c-.238.13-.52 0-.26.283-.369-.435-2.039-.152-2.255-.261-.326.218-.651.24-1.063.261.108.044.195.327-.173.327.086-.588-.673-.196-.998-.588.282.24-.998.196-.542.544-.304 0-.044-.217-.282-.304-.672.348-1.583.087-2.429.348 0 .087.174.152 0 .305L28.67.914c-.152.088-.065.48-.434.283.065.044.152.131.044.175-1.779.021-3.253 1.24-5.118 1.219.282.043.13.13-.022.196.13 0 .065.174.13.261h-.78c0 .327-.716.348-.673.631l.195-.13c-.151.413.694.5.803.892.173-.479 1.019.175 1.323-.544.151.022-.044.174.043.24.065-.218.195-.327.52-.349v.044c.781-.305 1.193-.261 2.147-.457l-.13-.175c.195-.043.26 0 .369.022.13-.37-.564.174-.456-.24.37.284 1.432-.37 1.735.044.304-.065-.151-.217.152-.283l.108.11.044-.175a.367.367 0 01.39.218c-.043 0-.13.065-.173.087.303.087.737-.24.824-.218h-.304c.824-.327 1.909-.283 2.69-.697l-.087-.087c.607-.283.52.044 1.214-.109h-.022a.979.979 0 01.52-.152c-.173.13.348.196.13.348.673-.26.326-.174.782-.588l.108.153c.152-.153.152-.24.52-.283-.282.13.239.24-.086.435.759.349 1.106-.37 1.453.153.347-.458-.65-.24-.456-.349-.173-.152.282-.326.52-.283.24 0 .413.566.998.566-.065 0-.065.022-.13.022.217.109.434-.13.716.065.173-.26.347.044.412-.304l-.542.043c.303-.065.629-.457 1.127-.218-.043.066-.195.153-.303.196.152.11.303-.043.434.066-.066.348-.673.022-1.02.261.152.152.63-.196.456.152.282-.457.585.11.997-.24l-.043.197s.217-.109.325-.109l-.238.261c.347-.217.607.262.91.174-.65-.087-.108-.26-.368-.457.846-.152.39.61 1.28.632-.13 0-.434-.196-.24-.262.174.066.37.175.456.305.586.044-.065-.218.217-.305.152.283.303-.065.585-.087l-.043.218c.65.261.26-.392.824-.109l-.303.218h.325l-.109.218c.37-.088.477-.022.781.108-.043-.152.13-.37.434-.304.173.174-.152.174.26.24-.13.108-.26.239-.412 0-.043.064-.13.108-.152.173.174.196.52.153.672.196a.182.182 0 01-.151-.087c.216-.043.455-.109.672-.13.065.108 0 .152-.108.174.13 0 .238-.044.411 0-.086.152-.13.326-.39.326h.607s.217.283.13.327c.282.196.868-.065 1.237.174.021-.022.086-.044.173-.044.369.153.629.523 1.15.48l.13.391c.368.087-.196-.5.433-.37.456.087.044.305.152.436.26-.044.76-.218 1.02.217-.152 0-.218-.108-.348-.13l.044-.044zm4.12 2.156s-.325 0-.325-.131c.217-.152.217 0 .325.13zm5.79 4.18s-.151-.11-.173-.24c.065.044.13.13.173.24zM70.09 28.89c.02-.152.043-.24 0 0zm-.023.457s.066.044.087 0c-.065-.021-.065-.13-.087-.24-.043.044-.086.11 0 .219v.021zM37.67.088l.086.064c-.195.066-.13 0-.086-.065z" fill="#681418"/><path d="M59.311 10.908s.022-.087.044-.11c-.044 0-.087.023-.044.11zM47.45 3.985v-.022l-.023.043.022-.021zM66.858 23.23s0-.152.044-.195c-.044 0-.088.065-.044.196zm3.774 8.448l-.066-.283c0 .13 0 .196-.043.261.044 0 .109-.065.13 0l-.021.022zm-1.258 2.482s0 .088.021.131h.088c0-.174-.066-.305-.131-.13h.022zm.564-2.177c-.174.022-.109.196-.065.392v-.044c.24.044.152-.152.065-.37v.022zm-.066.435v.174c.11 0 0-.065 0-.174zm.369-2.503s.239.043.152.087c.238.087-.326-.61-.152-.087zm-.867 2.242l.217-.065-.174-.11-.043.175zm.043-1.524l-.043.305s.065.022.087.087c0-.196 0-.413-.044-.392zm.065.392s0 .196.065.24a.567.567 0 00-.065-.24zm-.195.718l.043-.087v-.217l-.043.304zm-.259-4.441l-.131-.327s-.11.087-.044.196c.066.065.13.196.175.13zm-.435 1.111s.087-.109.13-.174l-.26.043.13.13zm-.217-.958s-.304-.436-.217-.022c.087 0 .217.326.217.022zm-.998-4.965l.044.088.412-.153-.456.066zm-2.71-3.591c.086.392.282-.044.325.326.13.044-.043-.305.087-.261-.195-.152-.217-.305-.412-.065z" fill="#681418"/><path d="M65.08 18.963s.065.044.109.087a.597.597 0 01-.11-.087zM21.968 3.005l-.282.022.217.065.065-.087zm-.324.5l-.175-.24-.043.284s.152-.11.218-.066v.022zm32.918 4.442l.044-.044s-.044-.13-.13-.196l.065.24h.021zm-2.754-1.895l.044.022.043-.283-.087.261zm-2.646-.936s.239.044.347.11c-.238-.044-.26-.414-.347-.11zM21.253 3.331s-.022-.174-.044-.196c-.087.087.065.24.044.196zm-.868.893l-.022-.087-.065.24.087-.153zm-.976.501c.239.218.325-.24.542-.218l.065.044-.043-.261c-.195.152-.39.435-.564.435zm-.824-.305s-.065.152.13-.044h-.043s-.043.022-.109.044h.022zm-.325.283l.086-.174s-.195 0-.173-.066c-.108.131-.043.175.087.24zm-.022.262l.044-.088s-.044 0-.044.088zm.152-.24l-.087.174s.087.109.044-.066c.043.088 0 0 .043-.108zm.108-.001s.217 0 .152.175c.239-.175.087-.349-.152-.175zm1.019.306h.153l.043-.11c0 .066-.24.023-.174.11h-.022zm-2.168.021l.195.196.065-.13s-.195 0-.239-.066h-.021zm.195.197l-.087.174c.131-.066.131-.13.087-.174zm.846.042l.13-.348-.174.37.044-.021zm-1.583.11v-.174l-.022.283.022-.11zm-.347.26c0-.152-.195-.13-.174-.239-.087.087-.108.24-.13.37.043-.108.152-.152.304-.13zm-.369.327s.044-.13.044-.196a.434.434 0 00-.044.196zm1.107-.435s-.109-.109-.218-.087l.153.13.065-.043zm-.044.044s-.109.043-.13.065c0 0 .065-.022.13-.065zm.781-.24c-.022.13-.153.348.109.37 0-.152-.153-.174-.11-.37zm-.521.348l.174-.065s-.087-.087-.087-.153l-.087.218zm-.044.087l.044-.087-.065.022.022.065zm-.91.175c0 .109-.087.152-.152.217a.67.67 0 00.282-.13c0-.065-.044-.174-.13-.109v.022zm-.933.761l.022.022-.022-.043v.021zm1.085-.652s.087-.066.109-.153l-.131.131c0 .022 0 .044.043 0l-.021.022zm-.672.13h.173c-.065-.022-.174-.065-.174 0zm.802-.414s0 .109-.022.152c.022-.043.065-.087.065-.13 0 0-.021 0-.043-.022zm-.759 2.069c-.087-.153-.022-.392.216-.349.066-.196-.347-.61-.65-.783.043.065.087.13 0 .304.108.044.434-.043.412.175-.13.195-.195.065-.325.043.195.109-.044.435.173.653l.087-.217s0 .152.087.152v.022zm-.153-1.307l.044-.065s-.173 0-.347-.044c-.043.131-.043.196 0 .262l.304-.196v.043z" fill="#681418"/><path d="M16.156 6.314c.065.196-.043.349.174.457.173-.13.043-.217.086-.348-.26.24.022-.152-.238-.087.043-.065.087-.109.13-.152-.065 0-.13.021-.195.021 0 0 0 .044.021.066-.108.021-.043-.022-.021-.066v-.021l-.217.283s.152-.066.26-.196v.043zm1.93-.132s-.021 0-.021-.02c0 .02 0 .042.02.02zm-.173-.042s0-.109.065-.13c.086 0 .043.086.086.13 0-.065.066-.196-.108-.196v.044c-.152 0-.434-.088-.412-.131.13.13.217.196.39.305l-.021-.022zm-.868.13l-.195.24.217.065-.065-.087c.152-.065.065-.13.043-.217zm-1.605.392l-.086-.174.022.327.065-.153zm-.281.239l-.087-.152-.022.152h.109zM4.641 23.666l-.065-.043s.065.065.065.043zM8.5 13.194c-.194 0-.476-.065-.324.044l.173.087s.087-.13.152-.153v.022zM5.855 18.92h.066s-.087-.11-.11-.153l.044.152zm.63.457l-.174.065s.109-.043.174-.065zm-2.863 7.86l.152.13c.044-.13-.065-.108-.152-.13zM12.23 9.384c-.13 0-.216.043-.26.087.174 0 .348.043.26-.087zM2.667 23.253s.044.087.088.109c0-.065-.044-.11-.088-.11zm9.087-13.564h.065c.043-.066.087-.153.152-.196-.13 0-.239.043-.217.217v-.02zM.76 42.129s-.023-.087-.044-.131c0 .022 0 .065.043.13zM14.66 8.1s0 .065.021.087c-.021-.044-.021-.066-.021-.087zm-.672-.414s.043 0 .065-.022c0-.022-.022-.044-.066.022zm-.152.152s.065-.043.109-.065H13.9l-.087.087.022-.022zM8.74 16.307c-.13-.24-.066-.261.021-.304l-.499-.262.456.566h.021z" fill="#681418"/><path d="M3.99 25.517l.217-.13c.174.304.043.435.325.348-.542-.218.196-.697-.347-.915l.152-.065v.087c.347-.13-.325-.326-.152-.587.087-.088.196-.131.217-.022l-.043-.283s.13 0 .087.043l.086-.37s-.151-.24-.195-.326c.109-.066.044.065.109.065l-.044-.24c.174 0 .239.196.174.327.607.043-.065-.218.412-.457v.196c.347 0 .303-.175.585-.283-.13 0-.65.174-.694-.088.065-.043.13-.108.065-.26.196.086.196-.044.239-.175l.239.13c0-.174-.152-.217-.217-.37.108-.152.303-.087.477-.043.152-.24-.39.022-.304-.305.195-.174.152-.37.13-.696.174-.11.13.108.239.087l-.13-.24s.086 0 .108.044c0-.153-.238-.13-.217-.349-.238-.196.586-.152.39-.522.087 0 .13.109.24.152-.044-.392 0-.326-.153-.718l.26-.11c-.26.044-.368-.26-.455-.543h-.26v-.349s.152.066.217.174v-.087c.13-.043.217.087.325.24h-.195c.108.152.238.326.39.392 0-.044-.021-.087 0-.13.022.043.065.064.087.086.022 0 0-.043-.043-.13l.303.108-.087-.087.37-.24c-.11-.391-.37-.848-.24-1.306.13.218.304.218.521.37-.304-.043-.087.37-.26.523.087-.087.195 0 .217.044v-.501c.173.13.195 0 .325-.022-.412-.174-.087-.414-.108-.631.13.065.238.196.086.348.39 0-.26-.544.087-.566-.022.044-.065.065 0 .109-.043-.174.217-.348.282-.218v.044c.217-.24.564-.828.304-1.089.043.022.325.305.39.348l-.65-1.24c.216.239.954.522.932.849.087-.044.173-.088.195-.283-.065 0-.434-.175-.434-.24.412.044.239 0 .63 0-.11 0-.435-.348-.348-.435.044.065.39.304.412.37l-.173-.544c0 .108.325.26.477.304-.087-.043.173-.217.195-.304l-.173.043c.281-.24-.304-.719-.044-.98.044.11.412.48.564.392-.13-.218-.672-1.067-.607-1.458l.152.043.043-.305c.152.37.477 1.22.564 1.611.173-.021.152.087.26-.087.152.044.087.218.043.261l.37-.304c-.24-.175.02-.457-.174-.61a5.585 5.585 0 00-.109.588c-.238-.174-.434-.784-.152-.98.152 0 .347.392.412.457-.043-.109.087-.37.152-.326v.217c.217-.065-.065-.479.304-.457.065-.043.433.087.303-.043-.325-.13-1.084-.828-1.214-1.067.043 0 .52-.087.694-.044.282.088.303.566.542.654a.566.566 0 01-.087-.218c.109 0 .152.196.239.043-.195-.24.26-.24-.13-.24.065-.195.173-.086.303-.239-.173-.087-.325-.587-.238-.762.043.066.152.11.195.131.282-.218.52-.261.759-.479.065.022.239 0 .282.13 0-.065-.043-.173.043-.26.326.065-.151.195.174.304-.109-.13.043-.348.065-.544-.217-.174-.282.196-.325.37-.239-.261-.326-.74-.174-1.11.152-.262.239.087.239.021.433-.304-.065-.783.433-.87.282.065.304.348.434.457-.108.218-.369.109-.477.218l.217-.044s-.087.24-.195.261c.238.066.694-.544 1.149-.653 0-.109.065-.24-.043-.283l-.087.109c-.217-.065.022-.348-.152-.327.065-.217.087-.5.347-.566l.195.174s-.217-.021-.238.088c0-.153.52.065.39-.284l-.239-.043c.066-.218.066-.566.282-.631-.238-.153-.021.043-.325-.11.347.218-.455.327-.043.523-.347-.196-.304.044-.672-.065.065.065.151.087 0 .174v.087c.065 0 .108 0 .151.044.044.217-.173.392-.195.544-.108.044-.022-.109-.13-.152v.217c-.152-.152-.455-.065-.325-.326l-.196.152c-.173 0-.346.087-.39.24-.108.043-.065.348-.108.174l-.195.326-.044-.043c-.282.218-.325.74-.867.762-.065.109-.109.24-.304.348l-.152-.087c-.065.152-.455.196-.39.37-.455-.218-.607.48-.846.61l.152.152c-.13.13-.217.305-.325.545l.152.13c0 .261-.456.283-.651.523-.043-.066.022-.11.108-.13-.607-.023-.281.805-.759.87 0 .109-.065.152-.13.152h-.021c-.044 0-.109 0-.152.022h.152a.59.59 0 00-.109.261l-.195-.109c-.13.022.022.131.173.175v.174c-.303-.152-.065.261-.433.13.087.153-.217.458.043.74-.043-.021-.087 0-.043-.065-.109.066-.195.131-.174.262l-.238-.13.152.413c-.217 0-.326 0-.412-.218.043.479-.066.305 0 .719l-.13-.11s.021.37-.13.327c-.413 0-.716.915-1.28 1.285.499.174-.347.109-.022.348-.13-.043-.217 0-.26-.13-.065.326-.412.304-.239.653-.13-.022-.108-.153-.195-.153 0 .044.044.13-.043.13s-.065-.086-.087-.152c-.152.284.152.501.434.697-.217.044-.239.13-.109.348-.13 0-.282 0-.217-.174-.065.087-.455.523-.238.654-.087 0-.087.13-.087.174-.13.217-.173.217-.26.435l.065-.043c.26.239-.022.217-.087.413h-.021c-.434.262 0 .196-.434.48l.195.064c.39.24-.39.24-.347.545l.152-.044c.087.196-.716.087-.824.196-.044 0-.044-.065-.044-.13-.39.24.217.152.174.435-.152 0-.304-.218-.412-.043-.152.043.217.696-.152.805.13 0 .26 0 .282.13-.043.197-.586.327-.325.632h-.087c.022.174-.022.523.108.675-.715-.109 0 .98-.629.762-.043.152-.065.305-.108.457l-.065-.043c-.13.26 0 .413.108.566-.065.043-.108 0-.13-.022-.26.37-.238.435-.021.87h-.217s-.52.48-.369.959c-.022 0-.065-.022-.087-.066.13.523-.845.98-.13 1.328l.109.349c.151-.37.325.13.477 0 0 .152-.326.348-.326.152h.044c-.39-.174-.239.436-.499.37-.108.784-.499 1.524-.585 2.287l.325-.044-.044.261s-.26.066-.216-.13c-.196.087.108.326.195.348-.174.348-.347-.174-.369-.065v.152l.043-.022c.109.13.26.174.217.392-.086.13-.195.044-.217.109-.021 0-.043 0 0 .087l-.065.327.26-.11c.11.153-.043.306.26.175-.476.174-.238 1.22-.368 1.35.174.218.174.413.13.653.065-.065.347-.087.304.13-.586-.087-.26.392-.694.567.26-.153.065.61.455.37-.043.174-.216 0-.347.152.239.436-.13.958-.021 1.48.086 0 .195-.086.303 0l-.368.306s.433.065.195.282c.065-.021.152-.087.195 0-.26 1.067.477 2.069 0 3.223.13-.174.152-.066.174.043.021-.065.195-.022.281-.065l-.216.479c.303.022.086.457.368.457l-.065-.13c.347.13.672-.392 1.084-.436-.39-.13.456-.61-.13-.849.065-.087.152.044.239 0-.195-.044-.239-.152-.195-.348h.043c-.13-.501.043-.74.087-1.328l-.195.065c0-.13.086-.153.13-.218-.325-.109 0 .349-.347.261.39-.217-.087-.892.39-1.045 0-.196-.238.066-.238-.108l.13-.066-.174-.043c0-.131.174-.196.282-.218 0 .022.044.087.044.109.13-.174-.066-.457 0-.523l-.066.196c-.13-.522 0-1.175-.26-1.676l-.086.043c-.196-.392.108-.304.043-.74h.022s-.13-.196-.13-.305c.108.11.238-.196.346-.043-.173-.436-.151-.218-.498-.501l.173-.065c-.152-.11-.217-.11-.26-.327.13.174.26-.13.434.087.368-.435-.326-.697.216-.849-.412-.24-.281.37-.368.24-.152.087-.304-.196-.26-.327.021-.152.585-.196.628-.566 0 .043.022.044.022.087.13-.13-.13-.283.065-.414-.26-.13.044-.217-.303-.283l.043.349c-.065-.196-.455-.414-.217-.719.065.044.152.13.195.196.109-.087-.043-.174.065-.261.347.065.044.413.282.631.152-.087-.217-.413.152-.261-.455-.196.087-.348-.238-.631l.195.043s-.109-.13-.087-.196l.239.174c-.196-.217.26-.348.173-.544-.065.392-.26.044-.434.196-.195-.522.586-.196.564-.74 0 .087-.173.261-.238.13.065-.087.151-.217.281-.26 0-.371-.216 0-.325-.153.26-.066-.065-.196-.13-.37l.195.043c.195-.37-.412-.196-.173-.522l.26.217v-.196l.195.088c-.13-.24-.065-.305.044-.48-.152 0-.37-.108-.326-.282.152-.088.174.108.217-.153.109.087.26.196.043.261.066.022.109.087.174.11.173-.11.108-.327.13-.415 0 .044-.043.066-.065.088l-.195-.436s.13.022.195.087c0-.087-.087-.152-.087-.261.152.065.326.109.369.283l-.108-.392s.238-.13.281-.065c.13-.174-.195-.544 0-.762-.021-.022-.043-.066-.065-.109.109-.218.369-.37.239-.718l.347-.066c0-.24-.434.087-.434-.305 0-.283.282 0 .39-.087-.108-.174-.346-.5 0-.653.022.087-.043.13-.043.218l.065-.13zm.911-2.678s.087.218-.043.218c-.196-.152-.065-.152.043-.218zm1.518-4.093s-.022.109-.13.13c0-.043.043-.108.13-.13zm6.918-10.32c-.152.022-.087.022 0 0zm.26-.109s0-.065-.043-.087c0 .044-.022.087-.087.131.043.022.108.044.13-.044zM.434 32.985l.065-.044c.043.131 0 .087-.065.044z" fill="#681418"/><path d="M6.42 19.334s-.066 0-.11-.044c0 .044.066.065.11.044zm-2.842 7.881v.022h.044l-.044-.022zm8.263-14.827h-.152c.043.044.087.044.152 0zm2.667-5.225l-.108.152s.108-.043.174-.043c-.044-.044-.11-.065-.066-.109zm1.93.196s.044-.022.044-.065l-.066-.087s-.087.174 0 .152h.022zm-1.388.283c.108.13.174 0 .239-.066-.109-.195-.174-.065-.217.066h-.022zm.26-.109s.044-.043.088-.065c-.044-.087-.044 0-.088.065zm-1.517.501s-.11-.196-.044-.152c-.087-.218-.13.457.044.152zm1.67 0l-.153-.13.044.174.109-.044zm-.825.456l.174-.065v-.087c-.087.066-.217.11-.174.153zm.174-.173s.087-.065.109-.13c-.022 0-.088.065-.11.13zm.499-.066h-.087l-.109.066.196-.066zm-2.234 1.503l-.109.196s.11.065.153 0c0-.065.043-.153-.044-.174v-.022zm.846.044s-.109-.044-.174-.066l.174.218v-.152zm-.413.435s-.065.37.11.174c-.044-.065.065-.261-.11-.174zm-2.407 1.872l.022-.043-.325-.305.303.348zm-.997 2.678c.238-.108-.174-.217.065-.304-.044-.11-.195.065-.217-.044 0 .174-.109.196.173.327l-.021.021zM.608 42.738l-.066.175.13-.131-.064-.044zm.39.24l-.26.087.26.044s-.044-.087 0-.131zm4.598-20.291l-.065-.044s-.088 0-.131.087l.196-.043zm-.976 1.785l.02-.021-.26-.022.24.043zm-.26 1.72s0-.152.021-.217c0 .152-.348.13-.021.217zM.716 43.283c0-.13-.174-.044-.217-.066.086.218.26.044.217.066zm.932 2.089l-.087-.021.26.283-.173-.262zm.607 2.004c.217-.283-.282-.697-.282-1.088l.044-.088-.282-.087c.173.414.499.937.52 1.263zm-.26 1.284s.196.196-.065-.261v.065c0 .044.044.087.065.196zm-.065-.196c-.087-.217-.043.174 0 0zm.434.936l-.217-.24s.043.327-.043.262c.173.261.216.174.26-.022zm.326.175l-.11-.131s0 .087.11.13zm-.326-.392l.217.261s.13-.108-.087-.13c.087 0 0-.044-.13-.13zm-.022-.174c0-.175-.043-.392.174-.153-.239-.5-.412-.348-.174.153zm.239-1.634v-.24l-.152-.152c.087.066.065.414.152.37v.022zm.39 3.789s.109-.174.174-.217l-.152-.175c0 .131.065.327-.022.392z" fill="#681418"/><path d="M3.144 50.946l.239.24c-.108-.261-.173-.305-.239-.24zm-.13-1.458l-.412-.392.456.479-.044-.087zm.499 2.787l-.217-.087.347.195-.13-.108zm.412.74c-.173-.065-.087.261-.238.174.13.196.325.305.498.414-.151-.13-.238-.305-.26-.588zm.542.761s-.173-.109-.26-.174a.78.78 0 00.26.174zM3.6 51.687s-.087.13-.043.305l.108-.196-.065-.109zm.065.108c.065.131.087.218.109.262 0-.022-.044-.11-.109-.262zm-.455-1.459c.173.131.433.436.433.022-.173-.065-.152.174-.433-.022zm.52 1.09l-.108-.327s-.087.109-.174.044l.282.283zm.13.108l-.13-.11.044.11h.087zm.455 1.633c.152.087.239.218.347.37a4.113 4.113 0 00-.238-.544c-.065 0-.195 0-.087.174h-.022zm1.28 1.916l.022-.043-.044.021.022.022z" fill="#681418"/><path d="M4.402 52.95c-.043-.153-.13-.197-.217-.24.065.087.13.196.196.305.021 0 .043 0 0-.044l.021-.021zm.391 1.218s-.022-.174-.044-.283c0 .087 0 .283.044.283zM4.012 52.6s.13.088.196.11c-.065-.066-.109-.131-.174-.196v.065l-.022.022zm2.884 2.265c-.152.087-.499-.152-.52-.522-.282-.196-.65.283-.76.696.066-.043.13-.065.391.153 0-.153-.238-.74.043-.588.326.327.152.327.196.566.065-.261.563.283.78.022l-.303-.261s.173.043.151-.088l.022.022zm-1.626-.37l-.087-.109c.065.153.065.283.065.544.195.153.282.153.325.131l-.347-.588h.044v.022z" fill="#681418"/><path d="M4.858 53.842c.216 0 .455.24.52-.044-.217-.348-.282-.174-.477-.326.369.544-.195-.11-.043.348-.087-.087-.152-.196-.217-.283.043.109.065.218.108.348h.065c.065.196-.021.044-.065 0h-.021l.433.523c-.043-.13-.152-.283-.325-.544l.022-.022zm-.716-3.331s0 .022-.022.044c.044.022.066.043.022-.044zm0 .283s-.13-.043-.173-.174c0-.152.086-.043.13-.065-.087-.066-.26-.24-.217.065h.043c.044.305 0 .697-.043.675.108-.152.195-.261.26-.479v-.022zm.368 1.524l.348.436v-.327l-.065.066c-.109-.283-.196-.175-.26-.175H4.51zm1.042 2.873l-.196.044.413.109-.217-.153zm.434.589l-.152.065.174.108-.022-.174zm35.239 11.451l.13-.065s-.108.044-.13.065zm-1.085.197v.087s.044-.087 0-.087zm-20.774-.436c.151.24.303.566.347.37v-.196a1.035 1.035 0 01-.347-.174zm11.71 1.916l-.065-.066s-.108.11-.174.174c.066-.021.152-.065.239-.108zm.217-.761l.282.152s-.152-.109-.282-.153zm15.593-2.94l.087-.24c-.262.11-.11.153-.087.24zm-36.021-3.941c.108.196.216.305.303.414-.108-.24-.151-.479-.303-.414zm30.338 8.013s.131-.087.11-.131c-.088.044-.153.087-.11.13zm-29.579-7.207s-.044-.066-.044-.11a1.47 1.47 0 01-.39-.282c.087.174.217.348.455.392h-.021zm51.677-10.734s.022 0 .044-.022c0 0-.022 0-.044.022zm4.577-5.05s-.044.174-.088.26a.876.876 0 00.088-.26zM7.677 58.131c-.109-.108-.022 0 0 0zm-.087-.239s.044.13.087.195c0-.043-.043-.087-.087-.195zm-.043.086s-.043-.087-.065-.108c-.044 0-.044.021.065.108z" fill="#681418"/><path d="M7.808 58.283s-.11-.13-.153-.196v.043a.488.488 0 00.153.153zm48.12 2.221h.044c.065-.152.022-.109-.044 0zm-31.726 6.074c-.282.153-.39.087-.543 0v.566l.543-.566z" fill="#681418"/><path d="M43.762 66.492l-.39-.066c.347-.392.65-.37.26-.522.13.588-1.3.435-1.214 1.023l-.26-.065s.065-.044.13-.066c-.52-.152-.217.523-.824.566-.217 0-.37-.065-.26-.152l-.434.218c-.13 0-.13-.087 0-.11l-.694.175s-.282.283-.39.348c-.196-.043.086-.087 0-.152l-.37.218c-.173-.13.11-.327.391-.349-.455-.522-.304.196-1.128 0l.347-.152c-.282-.305-.542-.087-.976-.283.109.109.89.414.5.631a.585.585 0 00-.5.11c-.021-.219-.238-.131-.52-.11v-.283c-.304.11-.26.24-.434.392-.347 0-.433-.196-.52-.37-.542 0 .39.305-.239.414-.455-.087-.759.109-1.3.261-.326-.087.043-.174-.066-.24l-.282.218s-.043-.065-.043-.109c-.239.087 0 .283-.39.349-.109.305-.76-.457-1.237-.11-.108-.086.065-.173.022-.282-.629.218-.542.174-1.084.457l-.434-.218c.304.24-.108.457-.499.61.109.109.195.218.26.261l-.607.087s0-.152.109-.24l-.109.066c-.195-.13-.087-.283.087-.414l.195.196c.152-.152.304-.326.282-.5a1 1 0 01-.195.065c.043-.044.065-.087.043-.109 0-.022-.087.022-.173.087l-.109-.326-.043.108-.737-.26c-.564.239-1.106.696-1.995.63.26-.174.108-.348.173-.63.195.326.672.021 1.106.108-.217-.043-.152-.174-.087-.218a5.397 5.397 0 01-.824.13c.044-.217-.13-.195-.325-.326.087.458-.629.175-.976.24 0-.153.109-.283.499-.174-.369-.414-.65.392-1.02.043.087 0 .152.044.196 0-.26.087-.78-.13-.607-.218h.086c-.629-.108-1.865-.522-2.082-.174 0-.043.217-.413.26-.457l-1.474.85c.195-.284.065-1.111.629-1.111a.905.905 0 00-.629-.174c.087.065.108.5-.043.5-.26-.457-.195-.239-.543-.718.13.13-.216.522-.433.414.065-.066.152-.458.26-.48l-.737.218c.173-.021.173-.37.108-.566.022.11-.477-.217-.65-.24l.195.197c-.607-.327-.911.37-1.54.065.13-.065.455-.479.152-.675-.239.153-1.15.74-1.8.61l-.044-.174-.498-.088c.455-.174 1.561-.5 2.082-.566-.174-.217 0-.195-.326-.348-.065-.174.282-.087.369-.043l-.737-.501c-.109.283-.738-.066-.825.152l.998.196c-.087.283-.889.457-1.431.109-.087-.174.368-.392.39-.479-.13.044-.629-.13-.65-.218h.325c-.26-.261-.716.066-.91-.435-.11-.109-.153-.566-.283-.436 0 .414-.499 1.307-.759 1.437-.043-.043-.499-.718-.542-.958-.065-.348.65-.304.607-.61-.043.066-.217.066-.282.066-.087-.152.195-.174-.108-.326-.217.217-.564-.414-.282.108-.325-.108-.26-.24-.586-.457 0 .218-.694.327-.997.174.065-.043.065-.174.065-.24-.52-.478-.716-.805-1.193-1.218 0-.087-.173-.349 0-.37-.108 0-.238 0-.39-.131-.109-.435.368.261.347-.152-.13.108-.542-.153-.824-.262-.13.261.455.457.737.566-.239.262-.89.262-1.496-.109-.434-.326 0-.348-.109-.37-.65-.783-1.062-.174-1.453-.98-.065-.413.326-.326.412-.5.369.261.347.588.564.805l-.173-.348c.152.044.39.218.455.37-.043-.348-1.17-1.24-1.518-1.96-.152-.065-.369-.195-.369-.043l.174.174c0 .305-.499-.196-.369.11-.325-.175-.715-.327-.932-.785l.152-.24s.065.35.216.393c-.216-.087-.151-.784-.563-.74l.065.37c-.326-.175-.781-.37-.976-.762-.109.304.087.065 0 .479.152-.436.629.892.715.304-.086.458.217.523.217 1.024.065-.066.044-.218.239.087h.108c-.021-.087-.043-.174 0-.218.26 0 .63.436.824.523.109.196-.13 0-.13.152l.304.109c-.13.152.152.631-.282.327l.304.326c.108.261.325.566.542.675.108.174.52.24.282.218l.563.413v.044c.412.544 1.215.762 1.583 1.524.217.109.434.218.694.522l-.043.175c.26.152.586.718.803.653-.022.566 1.149.914 1.54 1.284l.13-.174c.303.218.628.37 1.04.544l.087-.174c.39.11.78.632 1.323.915-.065.043-.195-.044-.282-.13.434.74 1.518.456 1.952 1.044.173 0 .26.109.347.174h-.044l.065.022c.065.065.109.13.174.174a1.22 1.22 0 00-.13-.174c.13.044.303.109.498.13v.218h.022c.152.153.174-.043.152-.217h.282c0 .37.499.087.542.5.174-.108.933.24 1.15-.065 0 .044.021.087-.066.044.174.109.347.24.564.196v.283l.542-.196c.217.24.304.348-.043.479.737-.11.564.043 1.193-.087l-.065.152c.195.043.563-.065.65.087.347.5 2.147.566 3.253 1.089-.13-.545.499.326.607-.044.044.13.195.24 0 .305.608-.022.868.283 1.323 0 .065.13-.152.152-.087.24.044 0 .196-.088.26 0 .044.087-.108.087-.195.13.608.044.716-.326.781-.653.282.196.456.196.672 0 .087.13.26.261-.108.261.217.044 1.28.283 1.323-.022.065.066.303.022.347 0 .477 0 .52.044.976 0l-.13-.043c.173-.327.39-.066.758-.109v.043c.846.24.348-.087 1.215.131l-.065-.196c.043-.457.759.196 1.236 0l-.195-.109c.26-.174.802.545 1.084.566.065.044-.087.066-.173.11.737.195.065-.284.585-.393.109.131-.087.392.282.37.195.131.954-.63 1.475-.435-.13-.087-.239-.174 0-.305.368-.109 1.084.24 1.344-.174.044 0 .087.044.087.065.26-.13.89-.326.998-.566.433.632 1.626-.827 1.8-.196l.845-.283v.066c.564-.11.694-.37.824-.588.13 0 .065.087.065.13.825-.174.89-.239 1.41-.805l.152.174c.108-.196 1.258-.087 1.865-.718 0 .021 0 .065-.044.13.694-.631 2.234-.479 2.169-1.306.152-.13.282-.305.412-.479-.672.37-.065-.348-.412-.305.239-.196.78-.218.477 0h-.065c.087.436.89-.392 1.02-.152.628-.436 1.322-.762 1.951-1.154a38.463 38.463 0 001.822-1.263l-.326-.152.412-.305c.152-.022.304.087 0 .305.26.021.37-.48.347-.545.63-.326.022.458.196.327l.216-.196h-.086c.108-.24.043-.348.368-.631.239-.131.239.043.326 0 0 0 .043 0 .13-.11l.499-.413h-.347c.13-.283.433-.414.043-.414.607.044 1.778-1.524 2.038-1.633.13-.413.39-.696.716-1.044-.108.065-.369-.088-.087-.37.347.5.673-.414 1.215-.414-.39.065.672-.98.065-.85.26-.239.195.11.455 0 .326-.783 1.193-1.371 1.692-2.285-.065-.066-.239.021-.217-.218l.607-.24c.065-.196-.282-.392.152-.566-.087 0-.195.022-.152-.109 1.345-1.545 1.67-3.679 3.058-5.29-.239.196-.174.022-.109-.174-.086.109-.173-.066-.282-.087l.564-.697c-.217-.24.282-.871.044-1.045l-.044.261c-.195-.435-.845.24-1.214.044.217.5-.846.762-.607 1.524-.13.087-.087-.153-.196-.131.109.218.066.414-.151.719v-.066c-.39.936-.738 1.263-1.345 2.2h.217c-.13.217-.217.239-.325.304.151.392.325-.588.52-.218-.52.087-.824 1.503-1.344 1.437-.196.327.26.022.065.349h-.152l.087.196c-.152.195-.347.217-.456.152.044-.044.065-.152.087-.218-.304.174-.434.784-.52.85l.26-.262c-.434.914-1.28 1.829-1.692 2.765h.13c-.325.697-.433.414-.91 1.089v-.044a.949.949 0 01-.282.544c.043-.24-.412.153-.347-.13-.39.74-.152.392-.26 1.045h-.196c0 .218.022.283-.238.61.13-.349-.369 0-.239-.37-.846.37-.65 1.175-1.301 1.066 0 .61.716-.348.607-.109.239-.022 0 .457-.238.632-.217.196-.738-.087-1.236.37.043-.044.043-.066.086-.11-.26.088-.26.458-.629.523.044.305-.325.24-.151.545l.455-.457c-.217.283-.239.805-.824 1.023 0-.087.087-.261.13-.37-.195.021-.217.26-.434.283-.173-.305.564-.545.694-.98-.238 0-.412.631-.498.24.086.544-.564.37-.716.936l-.109-.175s-.108.24-.217.327v-.37c-.13.414-.65.283-.867.61.586-.48.282.087.629 0-.586.805-.716-.087-1.54.566.109-.11.52-.175.39 0-.194.065-.455.152-.628.13-.564.414.195.13.021.392-.325-.087-.238.261-.455.5l-.108-.173c-.738.305.043.479-.63.74l.11-.414-.283.262-.065-.24c-.26.37-.369.414-.759.523.152.087.13.348-.173.522-.282 0 .021-.24-.412 0 .043-.174.065-.37.347-.305 0-.065.043-.174.021-.24-.303 0-.585.262-.737.35a.8.8 0 01.195-.044l-.499.587c-.13 0-.086-.108-.043-.217-.108.087-.173.217-.347.326-.022-.174-.108-.326.108-.544l-.52.479s-.39-.022-.347-.13c-.369.087-.694.696-1.214.74 0 .043-.044.087-.13.152-.456.13-.911.087-1.345.523l-.39-.175c-.39.218.52.196-.109.588-.455.261-.26-.196-.455-.218-.195.218-.542.632-1.063.523.13-.109.26-.087.39-.152l.217.196zm-5.226 1.328s.282-.24.369-.131c-.087.261-.196.152-.369.13zm-8.24.61s.195 0 .325.086c-.109 0-.217 0-.326-.087zM8.912 59.262c.065.153.108.24 0 0zm-.282-.435s-.087 0-.087.043c.065 0 .152.066.217.175 0-.066 0-.131-.152-.218h.022zm49.422 1.742h-.108c.13-.175.108-.087.108 0z" fill="#681418"/><path d="M31.25 68.233s.021.087.043.11c.044-.023.044-.066-.043-.11zm15.614-2.983h.021v-.043l-.021.044zm-31.272-2.656l.11.196c.043-.043 0-.109-.11-.196zm-8.978-5.639l.239.24c-.109-.131-.109-.196-.13-.283-.044.043-.044.13-.109.043zm-.541-3.069s-.066-.087-.11-.11l-.064.066c.108.174.261.24.174.044zm.91 2.394c.13-.13-.044-.261-.195-.414h.021c-.238.13-.021.283.174.414zm-.238-.457s-.087-.109-.13-.174c-.088.044.043.087.13.174zm1.365 2.591c-.043-.109-.216.087-.195 0-.26.066.694.37.196 0zm-.758-2.634l-.13.195h.217l-.087-.196zm.954 1.502l-.174-.327s-.065 0-.108-.021c.13.174.26.392.303.348h-.021zm-.303-.326s-.13-.175-.218-.196c.044.043.131.152.218.196zm-.326-.806l.043.108.131.218-.174-.327zm3.231 4.006l.325.24s.022-.131-.086-.218c-.109-.022-.217-.11-.239 0v-.022zm-.39-1.263v.24l.196-.175-.196-.065zm.824.762s.542.24.195-.087c-.087.022-.39-.218-.195.087zm4.337 3.897l-.087-.066-.238.392.325-.326zm4.944 1.525c-.368-.262-.216.217-.52-.066-.152.044.26.218.13.262.304 0 .412.109.412-.196h-.022zm47.861-19.77l.197-.261-.218.152.022.11zm-.108-.653h.282l-.174-.24c0 .066-.021.197-.108.24zM37.669 67.34v.066s.108.065.238.065l-.238-.13zm3.86-.435h-.065l.174.218-.109-.218zm3.036-1.219c-.13.022-.26.13-.39.152.26-.13.52.153.39-.152z" fill="#681418"/></svg>